<svg xmlns="http://www.w3.org/2000/svg" xmlns:xlink="http://www.w3.org/1999/xlink" viewBox="0 0 789.28 286.86"><defs><style>.a1bad875-99b4-4af5-8c7d-81b59b666b02{fill:#4d4d54;}.a103add8-4226-438c-af35-a3ac0d733003{fill:#028aa2;}.bea06493-435c-40af-a22d-5e8f7a1475f5{fill:url(#f6a30069-31ac-4475-ae40-7fea5239d00f);}.e84bc281-f368-41fc-874e-eeb390235d00{fill:url(#a939243a-2019-41f5-afc4-3e99a1115083);}.bddf74ce-8be8-4d60-8cfc-57fa44555990{fill:url(#adce0587-be06-4f9d-810f-0a741d046b86);}.a0810aae-6bc7-4a62-9c3d-63658b5203ef{fill:url(#a589b15a-702c-4d61-a9a5-dfa0f1670367);}.b8638d0f-02cb-49d5-b9e1-010a007a6f57{fill:url(#e49fdd19-54d4-4ddf-bd73-c1f83a5784f9);}.a64f3791-6136-4cc8-9abb-3ff3ab4c97eb{fill:url(#ac5c641b-90a6-46b8-95ee-41580dcb4e02);}.ac5b586f-d4d6-4625-ad6a-894e7b00f089{fill:url(#e167639b-ff85-4402-9240-5ecbb9a65eb7);}.a637b84f-59fb-4ed6-848d-2e01132280dc{fill:url(#be926cf9-2ff6-44d0-b719-f8165405e0fc);}.b84901a2-5936-430e-bcac-7ef0fe7af3a3{fill:url(#ae5de82e-3631-4855-ba71-699be22eae77);}.a6d5148e-d1f2-4a0a-b8b5-99dcf9c243e6{fill:url(#a9f78752-0024-418f-b59b-1967fdfb71f1);}.afcac57e-c630-4019-8d0b-b9ffa9efb889{fill:url(#aa2acf6e-4608-4867-8b5a-e93dc482af50);}</style><linearGradient id="f6a30069-31ac-4475-ae40-7fea5239d00f" x1="-201.04" y1="95.24" x2="121.67" y2="95.24" gradientTransform="matrix(0.3, 0.17, -0.17, 0.3, 189.94, 120.99)" gradientUnits="userSpaceOnUse"><stop offset="0" stop-color="#027fa5"/><stop offset="1" stop-color="#69b42d"/></linearGradient><linearGradient id="a939243a-2019-41f5-afc4-3e99a1115083" x1="-169" y1="96.58" x2="153.7" y2="96.58" gradientTransform="translate(180.98 110.84) rotate(27) scale(0.39)" xlink:href="#f6a30069-31ac-4475-ae40-7fea5239d00f"/><linearGradient id="adce0587-be06-4f9d-810f-0a741d046b86" x1="-140.27" y1="99.29" x2="182.43" y2="99.29" gradientTransform="translate(170.45 100.1) rotate(24) scale(0.43)" xlink:href="#f6a30069-31ac-4475-ae40-7fea5239d00f"/><linearGradient id="a589b15a-702c-4d61-a9a5-dfa0f1670367" x1="-114.58" y1="103.08" x2="208.12" y2="103.08" gradientTransform="translate(158.14 88.79) rotate(21) scale(0.48)" xlink:href="#f6a30069-31ac-4475-ae40-7fea5239d00f"/><linearGradient id="e49fdd19-54d4-4ddf-bd73-c1f83a5784f9" x1="-91.67" y1="107.69" x2="231.03" y2="107.69" gradientTransform="translate(143.82 76.96) rotate(18) scale(0.53)" xlink:href="#f6a30069-31ac-4475-ae40-7fea5239d00f"/><linearGradient id="ac5c641b-90a6-46b8-95ee-41580dcb4e02" x1="-71.3" y1="112.92" x2="251.41" y2="112.92" gradientTransform="translate(127.25 64.66) rotate(15) scale(0.59)" xlink:href="#f6a30069-31ac-4475-ae40-7fea5239d00f"/><linearGradient id="e167639b-ff85-4402-9240-5ecbb9a65eb7" x1="-53.23" y1="118.58" x2="269.47" y2="118.58" gradientTransform="translate(108.14 51.99) rotate(12) scale(0.66)" xlink:href="#f6a30069-31ac-4475-ae40-7fea5239d00f"/><linearGradient id="be926cf9-2ff6-44d0-b719-f8165405e0fc" x1="-37.26" y1="124.52" x2="285.44" y2="124.52" gradientTransform="translate(86.2 39.03) rotate(9) scale(0.73)" xlink:href="#f6a30069-31ac-4475-ae40-7fea5239d00f"/><linearGradient id="ae5de82e-3631-4855-ba71-699be22eae77" x1="-23.19" y1="130.6" x2="299.52" y2="130.6" gradientTransform="translate(61.11 25.93) rotate(6) scale(0.81)" xlink:href="#f6a30069-31ac-4475-ae40-7fea5239d00f"/><linearGradient id="a9f78752-0024-418f-b59b-1967fdfb71f1" x1="-10.82" y1="136.74" x2="311.88" y2="136.74" gradientTransform="translate(32.5 12.85) rotate(3) scale(0.9)" xlink:href="#f6a30069-31ac-4475-ae40-7fea5239d00f"/><linearGradient id="aa2acf6e-4608-4867-8b5a-e93dc482af50" x1="0" y1="142.84" x2="322.7" y2="142.84" gradientTransform="matrix(1, 0, 0, 1, 0, 0)" xlink:href="#f6a30069-31ac-4475-ae40-7fea5239d00f"/></defs><g id="ba2ca669-8327-45ad-87cc-4298f8941a77" data-name="Capa 2"><g id="b52ecd77-71e1-4213-b587-7cd193f31ba8" data-name="Capa 1"><path class="a1bad875-99b4-4af5-8c7d-81b59b666b02" d="M358.75,77.33a7,7,0,0,1-2.37-.47,5.16,5.16,0,0,1-2.09-1.31,2.68,2.68,0,0,1-.79-1.89,3.44,3.44,0,0,1,.1-.84L375.12,3a3.42,3.42,0,0,1,2-2.31A8,8,0,0,1,380.47,0a7.55,7.55,0,0,1,3.46.79,3.57,3.57,0,0,1,2,2.25l21.41,69.78a1.71,1.71,0,0,1,.21.74,2.52,2.52,0,0,1-.89,1.88,6.94,6.94,0,0,1-2.15,1.37,6.29,6.29,0,0,1-2.42.52,3.93,3.93,0,0,1-2-.47,2.46,2.46,0,0,1-1.16-1.52l-4.72-15.63H366.62L362.1,75.34a2.42,2.42,0,0,1-1.2,1.52A4.52,4.52,0,0,1,358.75,77.33Zm10-24.87h23.51L380.47,13Z"/><path class="a1bad875-99b4-4af5-8c7d-81b59b666b02" d="M428.84,77.33a6,6,0,0,1-3-.78,2.56,2.56,0,0,1-1.37-2.36V8.81h-17a2.55,2.55,0,0,1-2.2-1.25,5.18,5.18,0,0,1-.84-2.94,5.32,5.32,0,0,1,.73-2.73A2.48,2.48,0,0,1,407.43.63h42.81a2.48,2.48,0,0,1,2.31,1.26,5.33,5.33,0,0,1,.74,2.73,5.77,5.77,0,0,1-.74,2.88,2.45,2.45,0,0,1-2.31,1.31h-17V74.19a2.56,2.56,0,0,1-1.37,2.36A6,6,0,0,1,428.84,77.33Z"/><path class="a1bad875-99b4-4af5-8c7d-81b59b666b02" d="M466,77.33a5.06,5.06,0,0,1-2.72-.78A2.6,2.6,0,0,1,462,74.19V3.67a2.44,2.44,0,0,1,1.41-2.31,6.54,6.54,0,0,1,3-.73,6.45,6.45,0,0,1,3.05.73,2.44,2.44,0,0,1,1.36,2.31V69.36h28.75a2.28,2.28,0,0,1,2.15,1.21,5.48,5.48,0,0,1,.68,2.78,5.58,5.58,0,0,1-.68,2.73,2.28,2.28,0,0,1-2.15,1.25Z"/><path class="a1bad875-99b4-4af5-8c7d-81b59b666b02" d="M510.68,77.33a6.94,6.94,0,0,1-2.36-.47,5.27,5.27,0,0,1-2.1-1.31,2.71,2.71,0,0,1-.78-1.89,3.44,3.44,0,0,1,.1-.84L527.05,3a3.46,3.46,0,0,1,2-2.31A8,8,0,0,1,532.4,0a7.6,7.6,0,0,1,3.47.79,3.57,3.57,0,0,1,2,2.25l21.41,69.78a1.71,1.71,0,0,1,.21.74,2.52,2.52,0,0,1-.89,1.88,7,7,0,0,1-2.16,1.37,6.24,6.24,0,0,1-2.41.52,3.93,3.93,0,0,1-2-.47,2.46,2.46,0,0,1-1.16-1.52l-4.72-15.63h-27.6L514,75.34a2.4,2.4,0,0,1-1.21,1.52A4.46,4.46,0,0,1,510.68,77.33Zm10-24.87h23.51L532.4,13Z"/><path class="a1bad875-99b4-4af5-8c7d-81b59b666b02" d="M586.86,78.17a31.19,31.19,0,0,1-11.75-2,22.77,22.77,0,0,1-7.76-4.83q-2.73-2.77-2.73-5a4.71,4.71,0,0,1,.57-2.16,6.67,6.67,0,0,1,1.47-1.88,2.76,2.76,0,0,1,1.84-.79A3.48,3.48,0,0,1,571,62.75c.8.84,1.81,1.83,3,3a16.17,16.17,0,0,0,4.77,3A19.69,19.69,0,0,0,586.44,70a19,19,0,0,0,7.66-1.42,11.12,11.12,0,0,0,5.09-4.3A13.28,13.28,0,0,0,601,57a13,13,0,0,0-1.89-7.35,15.76,15.76,0,0,0-5-4.72,46.81,46.81,0,0,0-6.72-3.36l-7.35-3a30.37,30.37,0,0,1-6.76-3.78A16.87,16.87,0,0,1,568.4,29a19.17,19.17,0,0,1-1.89-9,19.48,19.48,0,0,1,2.09-9.55,16.37,16.37,0,0,1,5.57-6,23.21,23.21,0,0,1,7.5-3.1,36.91,36.91,0,0,1,7.92-.89,45.28,45.28,0,0,1,6,.42,39.28,39.28,0,0,1,6,1.26,15,15,0,0,1,4.62,2.15A3.78,3.78,0,0,1,608,7.34a5.63,5.63,0,0,1-.42,1.95,6,6,0,0,1-1.26,2,2.76,2.76,0,0,1-2.09.89,5.85,5.85,0,0,1-2.84-1,27,27,0,0,0-4.46-2,22.14,22.14,0,0,0-7.29-1,23.22,23.22,0,0,0-7.08,1.05,10.65,10.65,0,0,0-5.25,3.47,9.93,9.93,0,0,0-1.94,6.4,9.76,9.76,0,0,0,1.89,6.19,14.74,14.74,0,0,0,4.93,4,55.39,55.39,0,0,0,6.72,2.88q3.66,1.32,7.34,3A33,33,0,0,1,603,39.45,18.34,18.34,0,0,1,608,46a23.92,23.92,0,0,1,1.89,10.13q0,7.55-3,12.43a18.21,18.21,0,0,1-8.13,7.24A28.06,28.06,0,0,1,586.86,78.17Z"/><path class="a1bad875-99b4-4af5-8c7d-81b59b666b02" d="M357.38,181a6.12,6.12,0,0,1-3-.78,2.56,2.56,0,0,1-1.41-2.37V107.34a2.41,2.41,0,0,1,1.41-2.36,6.89,6.89,0,0,1,3-.68,5.87,5.87,0,0,1,2.84.63,6.86,6.86,0,0,1,2.09,1.83,18.68,18.68,0,0,1,1.89,3.1l26,51.1V107.34a2.44,2.44,0,0,1,1.41-2.31,6.41,6.41,0,0,1,3-.73,6.34,6.34,0,0,1,3.05.73,2.44,2.44,0,0,1,1.36,2.31v70.51a2.57,2.57,0,0,1-1.36,2.37,6,6,0,0,1-3.05.78,4.76,4.76,0,0,1-3.09-1.15,9.76,9.76,0,0,1-2.36-2.84l-27.39-52.78v53.62a2.59,2.59,0,0,1-1.36,2.37A6,6,0,0,1,357.38,181Z"/><path class="a1bad875-99b4-4af5-8c7d-81b59b666b02" d="M413.63,181a7,7,0,0,1-2.37-.47,5.16,5.16,0,0,1-2.09-1.31,2.68,2.68,0,0,1-.79-1.89,3.44,3.44,0,0,1,.1-.84L430,106.71a3.46,3.46,0,0,1,2-2.31,7.84,7.84,0,0,1,3.36-.73,7.68,7.68,0,0,1,3.46.78,3.61,3.61,0,0,1,2,2.26l21.41,69.78a1.68,1.68,0,0,1,.21.74,2.54,2.54,0,0,1-.89,1.88,7.13,7.13,0,0,1-2.15,1.37A6.29,6.29,0,0,1,457,181a3.93,3.93,0,0,1-2-.47,2.41,2.41,0,0,1-1.15-1.52l-4.73-15.64H421.5L417,179a2.42,2.42,0,0,1-1.2,1.52A4.52,4.52,0,0,1,413.63,181Zm10-24.87H447.1l-11.75-39.45Z"/><path class="a1bad875-99b4-4af5-8c7d-81b59b666b02" d="M493.27,181.63A27.71,27.71,0,0,1,482,179.38a17.71,17.71,0,0,1-8.18-7.3c-2-3.35-3.05-7.8-3.05-13.32V127.17c0-5.52,1-10,3.1-13.32a18.07,18.07,0,0,1,8.23-7.3,30.56,30.56,0,0,1,23.41.16,18.78,18.78,0,0,1,7.76,6.56,16.51,16.51,0,0,1,2.73,9.29c0,2-.37,3.25-1.1,3.88a5,5,0,0,1-3.31.94,5.2,5.2,0,0,1-3.2-.84,3,3,0,0,1-1.21-2.2,23.62,23.62,0,0,0-.57-3.62,11.11,11.11,0,0,0-1.89-4,10.51,10.51,0,0,0-4.09-3.2,16.83,16.83,0,0,0-7.09-1.26q-6.72,0-10.33,3.62t-3.62,11.28v31.59q0,7.65,3.67,11.28t10.6,3.62a16,16,0,0,0,7-1.26,9.51,9.51,0,0,0,3.84-3.15,12.57,12.57,0,0,0,1.78-4,31.83,31.83,0,0,0,.73-4,2.78,2.78,0,0,1,1.26-2.31,5.83,5.83,0,0,1,3.15-.73,4.83,4.83,0,0,1,3.31,1c.73.67,1.1,2,1.1,3.94a16.81,16.81,0,0,1-2.78,9.39,19.22,19.22,0,0,1-7.87,6.72A27.65,27.65,0,0,1,493.27,181.63Z"/><path class="a1bad875-99b4-4af5-8c7d-81b59b666b02" d="M531.78,181a6.09,6.09,0,0,1-3-.78,2.55,2.55,0,0,1-1.42-2.37V107.34a2.43,2.43,0,0,1,1.42-2.31,6.59,6.59,0,0,1,6,0,2.44,2.44,0,0,1,1.36,2.31v70.51a2.57,2.57,0,0,1-1.36,2.37A6,6,0,0,1,531.78,181Z"/><path class="a1bad875-99b4-4af5-8c7d-81b59b666b02" d="M573,181.63a28.18,28.18,0,0,1-11.49-2.25,17.67,17.67,0,0,1-8.08-7.24q-3-5-3-13.38V127.17q0-8.39,3-13.38a17.67,17.67,0,0,1,8.08-7.24A28.18,28.18,0,0,1,573,104.3a28.54,28.54,0,0,1,11.55,2.25,17.59,17.59,0,0,1,8.13,7.24q3,5,3,13.38v31.59q0,8.38-3,13.38a17.59,17.59,0,0,1-8.13,7.24A28.54,28.54,0,0,1,573,181.63Zm0-8q6.51,0,10.18-3.62t3.68-11.28V127.17q0-7.65-3.68-11.28T573,112.27q-6.5,0-10.12,3.62t-3.62,11.28v31.59q0,7.65,3.62,11.28T573,173.66Z"/><path class="a1bad875-99b4-4af5-8c7d-81b59b666b02" d="M614.25,181a6.09,6.09,0,0,1-3-.78,2.57,2.57,0,0,1-1.42-2.37V107.34a2.42,2.42,0,0,1,1.42-2.36,6.85,6.85,0,0,1,3-.68,5.83,5.83,0,0,1,2.83.63,6.89,6.89,0,0,1,2.1,1.83,18.68,18.68,0,0,1,1.89,3.1l26,51.1V107.34a2.44,2.44,0,0,1,1.41-2.31,6.41,6.41,0,0,1,3-.73,6.34,6.34,0,0,1,3,.73,2.46,2.46,0,0,1,1.36,2.31v70.51a2.59,2.59,0,0,1-1.36,2.37,6,6,0,0,1-3,.78,4.76,4.76,0,0,1-3.09-1.15,9.76,9.76,0,0,1-2.36-2.84l-27.39-52.78v53.62a2.59,2.59,0,0,1-1.36,2.37A6.07,6.07,0,0,1,614.25,181Z"/><path class="a1bad875-99b4-4af5-8c7d-81b59b666b02" d="M670.49,181a6.94,6.94,0,0,1-2.36-.47,5.27,5.27,0,0,1-2.1-1.31,2.71,2.71,0,0,1-.78-1.89,3.44,3.44,0,0,1,.1-.84l21.51-69.78a3.46,3.46,0,0,1,2-2.31,7.8,7.8,0,0,1,3.35-.73,7.72,7.72,0,0,1,3.47.78,3.61,3.61,0,0,1,2,2.26l21.41,69.78a1.68,1.68,0,0,1,.21.74,2.54,2.54,0,0,1-.89,1.88,7.18,7.18,0,0,1-2.16,1.37,6.24,6.24,0,0,1-2.41.52,3.93,3.93,0,0,1-2-.47,2.46,2.46,0,0,1-1.16-1.52L706,163.37h-27.6L673.85,179a2.4,2.4,0,0,1-1.21,1.52A4.46,4.46,0,0,1,670.49,181Zm10-24.87H704l-11.76-39.45Z"/><path class="a1bad875-99b4-4af5-8c7d-81b59b666b02" d="M732.4,181a5.09,5.09,0,0,1-2.73-.78,2.62,2.62,0,0,1-1.26-2.37V107.34a2.45,2.45,0,0,1,1.42-2.31,6.41,6.41,0,0,1,3-.73,6.27,6.27,0,0,1,3,.73,2.45,2.45,0,0,1,1.37,2.31V173H766a2.29,2.29,0,0,1,2.15,1.2,5.92,5.92,0,0,1,0,5.51A2.27,2.27,0,0,1,766,181Z"/><path class="a1bad875-99b4-4af5-8c7d-81b59b666b02" d="M357,286.23a4.44,4.44,0,0,1-2.88-.89,2.67,2.67,0,0,1-1.1-2.15V212.57a2.66,2.66,0,0,1,1.1-2.15,4.39,4.39,0,0,1,2.88-.9h18.58a28.53,28.53,0,0,1,11.54,2.26,17.48,17.48,0,0,1,8.13,7.24q3,5,3,13.38v31q0,8.4-3,13.38a17.43,17.43,0,0,1-8.13,7.24,28.36,28.36,0,0,1-11.54,2.26Zm4.83-8h13.75q6.49,0,10.17-3.62t3.68-11.28v-31q0-7.67-3.68-11.28t-10.17-3.62H361.79Z"/><path class="a1bad875-99b4-4af5-8c7d-81b59b666b02" d="M416.35,286.23a5,5,0,0,1-2.72-.79,2.59,2.59,0,0,1-1.26-2.36V212.67a2.6,2.6,0,0,1,1.26-2.36,5.07,5.07,0,0,1,2.72-.79h37.36a2.46,2.46,0,0,1,2.36,1.26,5.4,5.4,0,0,1,.68,2.63,5.26,5.26,0,0,1-.78,2.83,2.52,2.52,0,0,1-2.26,1.26H421.18v26.65h16.37a2.58,2.58,0,0,1,2.26,1.16,4.57,4.57,0,0,1,.78,2.62,4.61,4.61,0,0,1-.68,2.41,2.51,2.51,0,0,1-2.36,1.16H421.18v26.75h32.53a2.56,2.56,0,0,1,2.26,1.21,5.23,5.23,0,0,1,.78,2.89,5.36,5.36,0,0,1-.68,2.62,2.46,2.46,0,0,1-2.36,1.26Z"/><path class="a103add8-4226-438c-af35-a3ac0d733003" d="M491.69,286.23a6,6,0,0,1-3-.79,2.54,2.54,0,0,1-1.41-2.36V213.83a3.75,3.75,0,0,1,1.41-3.36,5.32,5.32,0,0,1,3-.95,6.19,6.19,0,0,1,2.89.63,7.25,7.25,0,0,1,2.2,1.84,16.31,16.31,0,0,1,1.94,3.1l16.58,31.58,16.58-31.58a20.54,20.54,0,0,1,2-3.1,7.25,7.25,0,0,1,2.2-1.84,5.93,5.93,0,0,1,2.78-.63,5.18,5.18,0,0,1,3.1.95,3.88,3.88,0,0,1,1.31,3.36v69.25a2.56,2.56,0,0,1-1.36,2.36,6.26,6.26,0,0,1-6.09,0,2.55,2.55,0,0,1-1.36-2.36V228l-16,29.8a5.58,5.58,0,0,1-1.58,1.84,3.12,3.12,0,0,1-1.78.58,3.31,3.31,0,0,1-1.63-.53,4.64,4.64,0,0,1-1.62-1.89L496.1,227.57v55.51a2.55,2.55,0,0,1-1.36,2.36A6,6,0,0,1,491.69,286.23Z"/><path class="a103add8-4226-438c-af35-a3ac0d733003" d="M562.31,286.23a5,5,0,0,1-2.73-.79,2.59,2.59,0,0,1-1.26-2.36V212.67a2.6,2.6,0,0,1,1.26-2.36,5.1,5.1,0,0,1,2.73-.79h37.36a2.46,2.46,0,0,1,2.36,1.26,5.51,5.51,0,0,1,.68,2.63,5.18,5.18,0,0,1-.79,2.83,2.49,2.49,0,0,1-2.25,1.26H567.14v26.65h16.37a2.55,2.55,0,0,1,2.25,1.16,4.5,4.5,0,0,1,.79,2.62,4.71,4.71,0,0,1-.68,2.41,2.52,2.52,0,0,1-2.36,1.16H567.14v26.75h32.53a2.53,2.53,0,0,1,2.25,1.21,5.15,5.15,0,0,1,.79,2.89A5.47,5.47,0,0,1,602,285a2.46,2.46,0,0,1-2.36,1.26Zm13.75-87.62a2.79,2.79,0,0,1-2.21-1.15,3.77,3.77,0,0,1-.94-2.42,2.3,2.3,0,0,1,1.36-2.3l12.28-6.51a3.45,3.45,0,0,1,1.05-.21,2.5,2.5,0,0,1,2.15,1.1,4.13,4.13,0,0,1,.79,2.47,2.7,2.7,0,0,1-1.47,2.51l-11.86,6.09a3,3,0,0,0-.57.26A1.08,1.08,0,0,1,576.06,198.61Z"/><path class="a103add8-4226-438c-af35-a3ac0d733003" d="M612.36,286.44a5.7,5.7,0,0,1-2.41-.58,6.39,6.39,0,0,1-2.15-1.57,3.15,3.15,0,0,1-.89-2.15,4.29,4.29,0,0,1,.52-1.89l18.15-32.43-17.73-32.21a4.65,4.65,0,0,1-.73-2.31,3,3,0,0,1,.84-2.15,5.54,5.54,0,0,1,2-1.36,6.91,6.91,0,0,1,2.57-.48,3.08,3.08,0,0,1,2.31,1,7.14,7.14,0,0,1,1.47,2.36l14.9,27.91,14.9-27.91a8.78,8.78,0,0,1,1.58-2.36,3.06,3.06,0,0,1,2.3-1,7,7,0,0,1,2.52.48,5.06,5.06,0,0,1,2.05,1.36,3.17,3.17,0,0,1,.79,2.15,4.67,4.67,0,0,1-.74,2.31l-17.73,32.21,18.15,32.43a4.32,4.32,0,0,1,.53,1.89,3.28,3.28,0,0,1-.84,2.15,6.31,6.31,0,0,1-4.62,2.15,2.6,2.6,0,0,1-2-.94,8.9,8.9,0,0,1-1.37-2l-15.53-28.65L615.83,283.5a9.24,9.24,0,0,1-1.37,2A2.72,2.72,0,0,1,612.36,286.44Z"/><path class="a103add8-4226-438c-af35-a3ac0d733003" d="M669.55,286.23a6,6,0,0,1-3-.79,2.55,2.55,0,0,1-1.42-2.36V212.57a2.45,2.45,0,0,1,1.42-2.31,6.42,6.42,0,0,1,3-.74,6.3,6.3,0,0,1,3,.74,2.45,2.45,0,0,1,1.37,2.31v70.51a2.55,2.55,0,0,1-1.37,2.36A5.92,5.92,0,0,1,669.55,286.23Z"/><path class="a103add8-4226-438c-af35-a3ac0d733003" d="M710.68,286.86a27.5,27.5,0,0,1-11.22-2.26,17.7,17.7,0,0,1-8.19-7.29q-3-5-3-13.33V232.4q0-8.29,3.09-13.33a18.07,18.07,0,0,1,8.24-7.29,30.41,30.41,0,0,1,23.4.16,18.67,18.67,0,0,1,7.77,6.56,16.57,16.57,0,0,1,2.72,9.28c0,2-.36,3.26-1.1,3.88a4.94,4.94,0,0,1-3.3,1,5.2,5.2,0,0,1-3.2-.84,2.92,2.92,0,0,1-1.21-2.2,22.57,22.57,0,0,0-.58-3.62,10.71,10.71,0,0,0-1.89-4,10.44,10.44,0,0,0-4.09-3.2A16.75,16.75,0,0,0,711,217.5q-6.72,0-10.34,3.62T697,232.4V264q0,7.66,3.68,11.28c2.44,2.42,6,3.62,10.59,3.62a16.06,16.06,0,0,0,7-1.25,9.41,9.41,0,0,0,3.83-3.15,12.91,12.91,0,0,0,1.79-4,34.07,34.07,0,0,0,.73-4,2.78,2.78,0,0,1,1.26-2.31,5.83,5.83,0,0,1,3.15-.74,4.79,4.79,0,0,1,3.3,1c.74.67,1.1,2,1.1,3.94a16.75,16.75,0,0,1-2.78,9.39,19,19,0,0,1-7.87,6.71A27.44,27.44,0,0,1,710.68,286.86Z"/><path class="a103add8-4226-438c-af35-a3ac0d733003" d="M766.61,286.86a28,28,0,0,1-11.49-2.26,17.56,17.56,0,0,1-8.08-7.24q-3-5-3-13.38V232.4q0-8.4,3-13.38a17.61,17.61,0,0,1,8.08-7.24,28.11,28.11,0,0,1,11.49-2.26,28.46,28.46,0,0,1,11.54,2.26,17.55,17.55,0,0,1,8.14,7.24q3,5,3,13.38V264q0,8.4-3,13.38a17.5,17.5,0,0,1-8.14,7.24A28.29,28.29,0,0,1,766.61,286.86Zm0-8q6.51,0,10.18-3.62T780.46,264V232.4q0-7.67-3.67-11.28t-10.18-3.62q-6.51,0-10.12,3.62t-3.62,11.28V264q0,7.66,3.62,11.28T766.61,278.88Z"/><path class="bea06493-435c-40af-a22d-5e8f7a1475f5" d="M182.35,211.22a7.71,7.71,0,0,1-3.87-1.05l-84-48.5a7.75,7.75,0,0,1,0-13.42l84-48.5a7.75,7.75,0,0,1,11.62,6.71v97a7.68,7.68,0,0,1-3.87,6.71A7.78,7.78,0,0,1,182.35,211.22ZM179,100.66l-84,48.5a6.71,6.71,0,0,0,0,11.6l84,48.5a6.7,6.7,0,0,0,10-5.8v-97a6.7,6.7,0,0,0-10-5.8Z"/><path class="e84bc281-f368-41fc-874e-eeb390235d00" d="M188.19,217.51a8.59,8.59,0,0,1-3.92-1l-96-48.93a8.6,8.6,0,0,1-.78-14.88L177.85,94a8.61,8.61,0,0,1,13.29,6.77l5.64,107.63a8.66,8.66,0,0,1-8.59,9.08ZM178.49,95,88.1,153.72a7.43,7.43,0,0,0,.67,12.86l96,48.93a7.44,7.44,0,0,0,10.8-7L190,100.86A7.45,7.45,0,0,0,178.49,95Z"/><path class="bddf74ce-8be8-4d60-8cfc-57fa44555990" d="M195,224.14a9.7,9.7,0,0,1-3.92-.84L81.67,174.59a9.56,9.56,0,0,1-1.73-16.47l96.88-70.39A9.57,9.57,0,0,1,192,94.46l12.51,119.1A9.59,9.59,0,0,1,195,224.14ZM177.21,88.25l.38.53L80.7,159.17a8.26,8.26,0,0,0,1.5,14.23l109.4,48.71a8.26,8.26,0,0,0,11.58-8.41L190.66,94.6a8.26,8.26,0,0,0-13.07-5.82Z"/><path class="a0810aae-6bc7-4a62-9c3d-63658b5203ef" d="M202.85,231.11a10.79,10.79,0,0,1-3.84-.72L74.78,182.7a10.63,10.63,0,0,1-2.88-18.17L175.31,80.79a10.63,10.63,0,0,1,17.19,6.59l20.81,131.43a10.65,10.65,0,0,1-10.46,12.3ZM176.22,81.91,72.81,165.65a9.17,9.17,0,0,0,2.49,15.7L199.53,229a9.17,9.17,0,0,0,12.35-10L191.07,87.61a9.18,9.18,0,0,0-14.85-5.7Z"/><path class="b8638d0f-02cb-49d5-b9e1-010a007a6f57" d="M211.92,238.39a11.82,11.82,0,0,1-3.69-.6L67.62,192.11a11.8,11.8,0,0,1-4.26-20L173.24,73.17a11.81,11.81,0,0,1,19.44,6.32l30.74,144.62a11.82,11.82,0,0,1-11.5,14.28ZM181.09,71.74a10.09,10.09,0,0,0-6.78,2.63L64.44,173.3a10.2,10.2,0,0,0,3.67,17.28l140.61,45.69a10.2,10.2,0,0,0,13.13-11.82L191.11,79.83a10.24,10.24,0,0,0-10-8.09Z"/><path class="a64f3791-6136-4cc8-9abb-3ff3ab4c97eb" d="M222.34,245.93a13.68,13.68,0,0,1-3.45-.45L60.21,203a13.12,13.12,0,0,1-5.88-22L170.49,64.85a13.12,13.12,0,0,1,21.95,5.88L235,229.41a13.12,13.12,0,0,1-12.61,16.52ZM179.71,62.78a11.21,11.21,0,0,0-8,3.33L55.59,182.27a11.33,11.33,0,0,0,5.08,19l158.68,42.52a11.33,11.33,0,0,0,13.88-13.88L190.71,71.19a11.42,11.42,0,0,0-11-8.41Z"/><path class="ac5b586f-d4d6-4625-ad6a-894e7b00f089" d="M234.26,253.71a14.92,14.92,0,0,1-3.1-.33L52.62,215.43a14.58,14.58,0,0,1-7.8-24L167,55.77A14.58,14.58,0,0,1,191.65,61l56.4,173.6a14.59,14.59,0,0,1-13.79,19.09ZM168.43,57.1,46.29,192.74A12.6,12.6,0,0,0,53,213.49l178.54,37.95a12.59,12.59,0,0,0,14.6-16.21L189.76,61.63a12.59,12.59,0,0,0-21.33-4.53Z"/><path class="a637b84f-59fb-4ed6-848d-2e01132280dc" d="M247.84,261.64a16.37,16.37,0,0,1-2.6-.21L44.92,229.71a16.2,16.2,0,0,1-10.05-26.19L162.5,45.91a16.19,16.19,0,0,1,27.71,4.38l72.68,189.34a16.2,16.2,0,0,1-15,22ZM164.22,47.29,36.58,204.91a14,14,0,0,0,8.69,22.62l200.31,31.73a14,14,0,0,0,15.25-18.84L188.15,51.08a14,14,0,0,0-23.93-3.79Z"/><path class="b84901a2-5936-430e-bcac-7ef0fe7af3a3" d="M263.27,269.65a18.14,18.14,0,0,1-1.94-.1L37.22,246a18,18,0,0,1-12.68-28.47L157,35.22a18,18,0,0,1,31,3.25l91.66,205.87a18,18,0,0,1-16.38,25.31ZM171.5,30.24A15.38,15.38,0,0,0,159,36.65L26.52,219a15.55,15.55,0,0,0,11,24.6l224.11,23.56a15.55,15.55,0,0,0,15.83-21.79L185.75,39.47a15.36,15.36,0,0,0-12.57-9.14A16,16,0,0,0,171.5,30.24Z"/><path class="a6d5148e-d1f2-4a0a-b8b5-99dcf9c243e6" d="M280.74,277.65l-1.09,0-250-13.11a20,20,0,0,1-15.72-30.86l136.37-210a20,20,0,0,1,34.58,1.81L298.51,248.58a20,20,0,0,1-17.77,29.07ZM167,17.29a17.07,17.07,0,0,0-14.45,7.87l-136.37,210A17.27,17.27,0,0,0,29.75,261.8l250,13.11a17.28,17.28,0,0,0,16.3-25.09L182.42,26.72a17.12,17.12,0,0,0-14.49-9.41Z"/><path class="afcac57e-c630-4019-8d0b-b9ffa9efb889" d="M300.45,285.52H22.25A22.22,22.22,0,0,1,3,252.19L142.11,11.26A22,22,0,0,1,161.35.15h0a22,22,0,0,1,19.24,11.11l139.1,240.93a22.22,22.22,0,0,1-19.24,33.33ZM144.73,12.77,5.63,253.71A19.2,19.2,0,0,0,22.25,282.5h278.2a19.2,19.2,0,0,0,16.63-28.79L178,12.77a19.2,19.2,0,0,0-33.24,0Z"/></g></g></svg>