<svg xmlns="http://www.w3.org/2000/svg" viewBox="0 0 297.39 297.39"><defs><style>.b692f3a8-b497-450c-84f7-c13983fe9a98{fill:#183f74;}</style></defs><g id="f57f2801-cc06-4b18-add3-00b266e14312" data-name="Capa 2"><g id="faa566ef-971d-44a8-a70d-316b8cbe674f" data-name="Logos"><path class="b692f3a8-b497-450c-84f7-c13983fe9a98" d="M297,137.29c-6.93-9-22.33-15.14-43.3-18.09l-2.66-.36h0l-2.7-.31h0l-2.72-.28h-.08L242.7,118h-.11l-2.77-.21h-.14l-2.77-.17h-.19l-2.78-.14h-.24l-2.78-.1h-.28l-2.77-.07h-.35l-2.75,0h-3.6l-2.73,0h-.52l-2.71.06h-.58l-2.68.08-.65,0-2.66.12-.71,0c-.87,0-1.75.08-2.63.13l-.77,0-2.59.16-.86,0-2.55.18-.92.07-2.54.2-1,.09-2.51.22-1,.1-2.47.24-1.1.12-2.43.27-1.18.12-2.38.29c-.42.05-.83.09-1.24.15l-2.37.3-1.29.17-2.33.32-1.35.19c-.77.1-1.54.22-2.31.34l-1.39.2-2.31.36-1.42.22-2.28.38-1.47.24-2.32.41-1.45.25-2.36.43-1.43.26-2.59.5-1.21.24-3.68.74-.15,0H146l-3.83.81-1.28.28-2.58.57-1.53.35-2.3.53-1.59.38-2.21.53-1.6.4c-.72.17-1.45.35-2.16.54l-1.6.41-2.14.55-1.57.42-2.14.57-1.53.42-2.13.6-1.51.43-2.13.62-1.46.42-2.15.65-1.39.42-2.2.68-1.3.41-2.24.72-1.23.4-2.31.76-1.1.38c-.82.27-1.63.55-2.43.83l-.94.32-2.61.92-.72.25-2.91,1.07-.36.13c-7.77,2.88-15.13,5.92-22,9.07l-.12,0-2.78,1.3-.21.1-2.62,1.26-.26.13-2.52,1.25-.28.15c-.82.41-1.63.83-2.44,1.25l-.28.15-2.38,1.26-.27.14-2.35,1.29-.22.13c-.79.44-1.57.87-2.33,1.32l-.18.1-2.33,1.37-.1,0-2.36,1.44h0c-17.66,10.92-29.32,22.5-32.58,33.35a148.29,148.29,0,0,0,22.42,41.6c.16-5.12,2.61-10.49,7-15.92s10.83-10.92,18.85-16.27c.68-.45,1.36-.9,2.06-1.34l.32-.2,1.83-1.15.44-.27,1.78-1.08.49-.29c.6-.36,1.21-.71,1.82-1.06l.5-.28,2-1.11.39-.22,2.32-1.26.09,0c2.5-1.33,5.09-2.65,7.78-3.94l.47-.23,2.18-1,.66-.31,2.05-.93.75-.35,2-.89.79-.35,2.1-.9.75-.32,2.32-1,.56-.23c2-.8,4-1.6,6-2.38l.13-.06,2.88-1.08.8-.29,2.26-.82,1-.36,2.11-.74,1.11-.39,2.07-.69c.38-.14.76-.26,1.15-.39l2.09-.69,1.15-.37,2.2-.7,1.07-.33,2.56-.79.73-.22c1.13-.34,2.25-.67,3.38-1l.35-.1,3-.86,1.1-.3c.77-.21,1.53-.43,2.31-.63l1.31-.35,2.13-.56,1.41-.36,2.08-.53,1.45-.36,2.09-.51,1.45-.34,2.18-.5,1.38-.32,2.41-.54,1.18-.26,3.59-.75h.06c1.17-.25,2.34-.48,3.51-.71l1.18-.23,2.35-.45,1.38-.25,2.14-.39,1.45-.25,2.05-.36,1.47-.24,2-.33,1.46-.23,2-.31,1.43-.21,2-.29,1.39-.19,2.08-.28,1.3-.16,2.18-.27,1.17-.15,2.42-.27.91-.1,3-.31.28,0c2.24-.22,4.47-.42,6.67-.58l.4,0,2.83-.21.69,0,2.51-.15.8,0,2.37-.12.83,0,2.32-.1.81,0,2.32-.06.76,0,2.37,0h6.56c6,.08,11.69.37,17.06.86h.12l2.5.25.22,0q1.2.12,2.37.27l.23,0,2.32.31a.76.76,0,0,1,.21,0l2.31.34.14,0,2.39.4c19.41,3.41,32.69,10.17,36.51,19.83a148.7,148.7,0,0,0,4.35-35.79C297.39,144.86,297.24,141.06,297,137.29Z"/><path class="b692f3a8-b497-450c-84f7-c13983fe9a98" d="M95.7,291.57l.46.17,1.4.52h0l-.93-.35Z"/><path class="b692f3a8-b497-450c-84f7-c13983fe9a98" d="M284.51,88.08A148.73,148.73,0,0,0,2.28,122.64c-.75,4.23-1.32,8.53-1.7,12.87S0,144.25,0,148.7a149.17,149.17,0,0,0,1.91,23.79c5.08-11.34,18.7-23.3,38.31-34.39h0c.59-.34,1.19-.67,1.79-1l.66-.37,1.65-.89.86-.47,1.59-.83,1-.51c.51-.27,1-.53,1.56-.79.36-.18.71-.37,1.07-.54l1.55-.78,1.13-.55,1.56-.74,1.18-.58,1.56-.72,1.24-.57,1.56-.71,1.29-.59,1.58-.69,1.32-.58,1.59-.68,1.36-.58,1.61-.66,1.4-.58,1.62-.66,1.44-.57c.53-.22,1.07-.43,1.62-.64l1.48-.58,1.63-.62,1.52-.57,1.64-.61,1.56-.57,1.65-.6,1.59-.56,1.66-.59,1.62-.56L91,116l1.64-.55,1.7-.56,1.68-.55,1.7-.54,1.72-.54,1.7-.53,1.76-.53,1.7-.51,1.8-.53,1.7-.5,1.83-.53,1.72-.48,1.86-.51,1.71-.47,1.92-.51,1.69-.44,2-.51,1.67-.43,2-.5,1.64-.41,2.12-.5,1.59-.38,2.24-.51,1.5-.34,2.54-.56,1.23-.27,3.8-.8,3.75-.76,1.22-.23,2.5-.49,1.47-.27,2.23-.41,1.57-.28,2.11-.37,1.64-.27,2-.34,1.66-.26,2-.32,1.66-.25,2-.29,1.66-.23,1.93-.27,1.66-.23,1.92-.25,1.65-.2,1.89-.23,1.64-.2,1.89-.2,1.62-.18,1.89-.19,1.58-.16c.64-.07,1.28-.12,1.92-.18l1.53-.14,2-.17,1.37-.11,3.31-.24c.46,0,.92-.06,1.38-.09l2-.13,1.57-.09,1.73-.09,1.62-.07,1.65-.08,1.62-.06,1.6,0,1.64,0,1.55,0,1.63,0,1.52,0h6.17l1.6,0,1.42,0,1.59,0,1.38,0,1.58.05,1.34.06,1.58.07,1.29.07,1.58.09,1.23.09,1.59.11,1,.09c1.46.11,2.92.24,4.34.38,22.92,2.33,40.32,8,49.14,16.78A149,149,0,0,0,284.51,88.08ZM203,54.15l.05,0-1.49,0c-8.66.37-22,1-38.64,3l-2.26.3-.39,0c-1.4.19-2.81.4-4.22.61l-.78.12-3.42.53-1.09.17-3.79.63-.4.07-4.19.75-1.12.21-3.2.6-1.22.24c-1.4.27-2.81.55-4.23.85s-3,.62-4.43.94l-1.23.27-3.53.79-.93.21-4.35,1-.84.21-3.6.89-1,.27q-4.35,1.11-8.61,2.3l-.84.23-3.81,1.1-.45.13c-1.45.42-2.9.86-4.34,1.3l-.27.08-4,1.24-.52.17q-4.26,1.36-8.39,2.79l-.3.1c-4.22,1.46-8.33,3-12.31,4.53l-.09,0q-4,1.57-7.9,3.2l.12-.17q-4.09,1.73-8.23,3.58A113.78,113.78,0,0,1,211.28,53.66C209.75,53.87,206.93,54,203,54.15Z"/><path class="b692f3a8-b497-450c-84f7-c13983fe9a98" d="M251.1,186.16c-3.28-.56-6.73-1-10.37-1.36s-7.42-.59-11.37-.73h-.11l-2.48-.08h-.28l-2.35,0H221l-2.25,0h-.52L216,184l-.53,0-2.33.06-.48,0c-.82,0-1.64.06-2.47.11h-.37l-2.77.14h-.1c-2.93.17-5.92.39-8.94.66l-.42,0-2.54.24-.81.09-2.17.22-1,.12-2,.22-1.13.14-1.91.23-1.21.16-1.86.25-1.26.18-1.83.26-1.3.19-1.83.28c-.44.07-.88.13-1.32.21l-1.82.29-1.34.23-1.86.31-1.3.23-1.95.36-1.25.23-2.13.41-1.06.2-3.2.64h0l-3.26.68-1.06.24c-.73.16-1.47.31-2.19.48l-1.24.28-2,.47-1.31.3-1.9.46c-.44.11-.87.21-1.3.33l-1.9.47-1.26.33-1.92.5-1.2.32-2,.55-1.08.29-2.25.64-.79.23q-3.09.89-6.1,1.82c-.13,0-.26.09-.4.12l-2.57.82-.71.23-2.22.73-.82.27-2.1.71-.83.28-2.06.73-.78.27-2.12.77-.67.25c-.77.28-1.53.56-2.28.85l-.46.17-2.67,1,0,0q-5.55,2.18-10.7,4.48l-.16.07c-.8.35-1.58.71-2.36,1.07l-.23.11-2.26,1.06-.22.1-2.26,1.1-.13.07a163.09,163.09,0,0,0-17.39,9.85c-16.22,10.66-25.35,22-24.13,32a148.79,148.79,0,0,0,239.62-49.82C283.46,196.44,270.6,189.47,251.1,186.16ZM148.69,262.37a113.5,113.5,0,0,1-43.7-8.7c-.8-.33-1.59-.68-2.37-1a206.31,206.31,0,0,1,24.85-11.23h0l.08,0,.5-.2,1.21-.46.6-.23,1.23-.46.61-.22,1.27-.46.54-.19,1.35-.49.28-.09q1.53-.54,3.09-1c18.26-6.14,42.09-12,68.07-12.65,1.14-.05,2.28-.09,3.39-.11h.11c1.13,0,2.26,0,3.36,0h.15c4.55,0,8.88.16,12.95.5l-.17.17c2,.16,4,.35,6,.59A113.43,113.43,0,0,1,148.69,262.37Z"/></g></g></svg>