<svg xmlns="http://www.w3.org/2000/svg" xmlns:xlink="http://www.w3.org/1999/xlink" viewBox="0 0 237.62 210.12"><defs><style>.f27f8f70-91a1-44ad-841a-f405e92341c4{fill:url(#fc541468-2a90-4c4c-a7fc-bb8e5f2b19c7);}.b47bfb71-78ae-47be-99f0-2cea6c6cec00{fill:url(#a256cfa7-c5ea-48e8-9a6c-392ac120f40f);}.f46a945c-1048-4cbf-95fa-e49cf17536c4{fill:url(#a61fe53b-ae54-4132-bce8-8c2015497c31);}.a08c71a4-bc72-4b0e-897e-3e06e8784d32{fill:url(#f66172e4-b177-4c73-a499-bceb6e042fa3);}.b3f4f08e-aaac-47a5-bd89-e947f873fca7{fill:url(#a3d17269-9168-420b-b642-0e64a3f290a4);}.b8f4d58d-1465-4ed7-a017-0dae8b599a4e{fill:url(#bb43b2fc-05b9-4268-bb1e-2ffd24541512);}.a38b4ad9-42c7-4d58-9223-bbcb6ab0cf86{fill:url(#fefd9100-288b-41d8-9611-0c2fe7658a49);}.a9ab03f3-2df2-42f4-af73-872fd65fca51{fill:url(#be7c4be9-dd75-487c-92e3-63f19e0c55e7);}.b4fe333a-c8a2-471c-9726-f5239f7b16bc{fill:url(#bd5849ee-b731-47bd-abdf-f52a841e98b7);}.aadd094a-82e8-4cf0-a4c2-e55a97a53f5e{fill:url(#aeff4a42-898a-4373-863d-80abf1177e0d);}.a6b74ea1-684c-4d24-9ea4-ee6c8cc87fe3{fill:url(#f0618307-f32a-488f-9348-f275294d41e4);}</style><linearGradient id="fc541468-2a90-4c4c-a7fc-bb8e5f2b19c7" x1="1934.58" y1="-2019.02" x2="2172.2" y2="-2019.02" gradientTransform="matrix(0.3, 0.17, -0.17, 0.3, -853.24, 356.75)" gradientUnits="userSpaceOnUse"><stop offset="0" stop-color="#027fa5"/><stop offset="1" stop-color="#69b42d"/></linearGradient><linearGradient id="a256cfa7-c5ea-48e8-9a6c-392ac120f40f" x1="1702.29" y1="-1638.45" x2="1939.91" y2="-1638.45" gradientTransform="translate(-798 350.34) rotate(27) scale(0.39)" xlink:href="#fc541468-2a90-4c4c-a7fc-bb8e5f2b19c7"/><linearGradient id="a61fe53b-ae54-4132-bce8-8c2015497c31" x1="1475.6" y1="-1307.34" x2="1713.22" y2="-1307.34" gradientTransform="translate(-737.09 340.02) rotate(24) scale(0.43)" xlink:href="#fc541468-2a90-4c4c-a7fc-bb8e5f2b19c7"/><linearGradient id="f66172e4-b177-4c73-a499-bceb6e042fa3" x1="1256.25" y1="-1020.43" x2="1493.87" y2="-1020.43" gradientTransform="translate(-670.1 325.02) rotate(21) scale(0.48)" xlink:href="#fc541468-2a90-4c4c-a7fc-bb8e5f2b19c7"/><linearGradient id="a3d17269-9168-420b-b642-0e64a3f290a4" x1="1045.6" y1="-772.9" x2="1283.22" y2="-772.9" gradientTransform="translate(-596.65 304.48) rotate(18) scale(0.53)" xlink:href="#fc541468-2a90-4c4c-a7fc-bb8e5f2b19c7"/><linearGradient id="bb43b2fc-05b9-4268-bb1e-2ffd24541512" x1="844.61" y1="-560.34" x2="1082.23" y2="-560.34" gradientTransform="translate(-516.33 277.42) rotate(15) scale(0.59)" xlink:href="#fc541468-2a90-4c4c-a7fc-bb8e5f2b19c7"/><linearGradient id="fefd9100-288b-41d8-9611-0c2fe7658a49" x1="653.96" y1="-378.78" x2="891.58" y2="-378.78" gradientTransform="translate(-428.79 242.73) rotate(12) scale(0.66)" xlink:href="#fc541468-2a90-4c4c-a7fc-bb8e5f2b19c7"/><linearGradient id="be7c4be9-dd75-487c-92e3-63f19e0c55e7" x1="474.06" y1="-224.57" x2="711.68" y2="-224.57" gradientTransform="translate(-333.68 199.15) rotate(9) scale(0.73)" xlink:href="#fc541468-2a90-4c4c-a7fc-bb8e5f2b19c7"/><linearGradient id="bd5849ee-b731-47bd-abdf-f52a841e98b7" x1="305.1" y1="-94.45" x2="542.72" y2="-94.45" gradientTransform="translate(-230.67 145.25) rotate(6) scale(0.81)" xlink:href="#fc541468-2a90-4c4c-a7fc-bb8e5f2b19c7"/><linearGradient id="aeff4a42-898a-4373-863d-80abf1177e0d" x1="147.12" y1="14.55" x2="384.74" y2="14.55" gradientTransform="translate(-119.52 79.46) rotate(3) scale(0.9)" xlink:href="#fc541468-2a90-4c4c-a7fc-bb8e5f2b19c7"/><linearGradient id="f0618307-f32a-488f-9348-f275294d41e4" x1="0" y1="105.06" x2="237.62" y2="105.06" gradientTransform="matrix(1, 0, 0, 1, 0, 0)" xlink:href="#fc541468-2a90-4c4c-a7fc-bb8e5f2b19c7"/></defs><g id="f69aadc6-7c02-4f9b-92ae-56f2ef374521" data-name="Capa 2"><g id="ee618581-8cb1-450a-b016-81947a78c363" data-name="Capa 1"><path class="f27f8f70-91a1-44ad-841a-f405e92341c4" d="M134.27,155.42a5.66,5.66,0,0,1-2.85-.78L69.57,118.93a5.7,5.7,0,0,1,0-9.88l61.85-35.71A5.71,5.71,0,0,1,140,78.28V149.7a5.74,5.74,0,0,1-5.71,5.72ZM131.81,74,70,109.72a4.94,4.94,0,0,0,0,8.54L131.81,154a4.93,4.93,0,0,0,7.39-4.27V78.28A4.93,4.93,0,0,0,131.81,74Z"/><path class="b47bfb71-78ae-47be-99f0-2cea6c6cec00" d="M138.57,160a6.31,6.31,0,0,1-2.88-.7L65,123.31a6.33,6.33,0,0,1-.57-11L131,69.13a6.34,6.34,0,0,1,9.78,5l4.15,79.25a6.34,6.34,0,0,1-6.32,6.68Zm-7.14-90.19L64.87,113.07a5.48,5.48,0,0,0,.5,9.48l70.71,36a5.47,5.47,0,0,0,7.95-5.17l-4.15-79.25a5.47,5.47,0,0,0-8.45-4.31Z"/><path class="f46a945c-1048-4cbf-95fa-e49cf17536c4" d="M143.58,164.93a7,7,0,0,1-2.89-.62L60.14,128.44a7,7,0,0,1-1.28-12.13L130.2,64.48a7,7,0,0,1,11.14,5l9.22,87.7a7.06,7.06,0,0,1-7,7.79ZM130.48,64.87l.29.39L59.42,117.09a6.08,6.08,0,0,0,1.11,10.48l80.55,35.87a6.09,6.09,0,0,0,8.53-6.2l-9.22-87.7a6.07,6.07,0,0,0-9.62-4.28Z"/><path class="a08c71a4-bc72-4b0e-897e-3e06e8784d32" d="M149.37,170.06a7.76,7.76,0,0,1-2.83-.53L55.07,134.42A7.82,7.82,0,0,1,53,121l76.14-61.66a7.82,7.82,0,0,1,12.65,4.86L157.07,161a7.84,7.84,0,0,1-7.7,9.06ZM129.76,60.2,53.61,121.86a6.76,6.76,0,0,0,1.84,11.56l91.47,35.12a6.77,6.77,0,0,0,9.1-7.37L140.69,64.4a6.75,6.75,0,0,0-10.93-4.2Z"/><path class="b3f4f08e-aaac-47a5-bd89-e947f873fca7" d="M156.05,175.42a8.51,8.51,0,0,1-2.72-.44L49.79,141.34a8.69,8.69,0,0,1-3.13-14.73l80.9-72.84a8.69,8.69,0,0,1,14.32,4.65l22.64,106.49a8.71,8.71,0,0,1-8.47,10.51ZM133.35,52.71a7.45,7.45,0,0,0-5,1.94l-80.9,72.84a7.52,7.52,0,0,0,2.7,12.73l103.54,33.64a7.51,7.51,0,0,0,9.67-8.71L140.72,58.67a7.43,7.43,0,0,0-5-5.59A7.68,7.68,0,0,0,133.35,52.71Z"/><path class="b8f4d58d-1465-4ed7-a017-0dae8b599a4e" d="M163.72,181a9.72,9.72,0,0,1-2.55-.34L44.33,149.33A9.66,9.66,0,0,1,40,133.17l85.54-85.53A9.66,9.66,0,0,1,141.7,52L173,168.81A9.68,9.68,0,0,1,163.72,181ZM132.33,46.11a8.24,8.24,0,0,0-5.86,2.46L40.93,134.1a8.34,8.34,0,0,0,3.74,14l116.84,31.31a8.34,8.34,0,0,0,10.22-10.22L140.43,52.31a8.25,8.25,0,0,0-5.9-5.9A8.39,8.39,0,0,0,132.33,46.11Z"/><path class="a38b4ad9-42c7-4d58-9223-bbcb6ab0cf86" d="M172.49,186.7a11.19,11.19,0,0,1-2.28-.24l-131.47-28A10.73,10.73,0,0,1,33,140.84L122.93,41a10.74,10.74,0,0,1,18.19,3.87l41.53,127.82a10.74,10.74,0,0,1-10.16,14.06ZM124,41.93,34.09,141.81a9.28,9.28,0,0,0,5,15.28L170.52,185a9.27,9.27,0,0,0,10.74-11.94L139.73,45.27A9.27,9.27,0,0,0,124,41.93Z"/><path class="a9ab03f3-2df2-42f4-af73-872fd65fca51" d="M182.5,192.54a12.42,12.42,0,0,1-1.92-.15L33.08,169a11.92,11.92,0,0,1-7.4-19.28l94-116.06a11.92,11.92,0,0,1,20.4,3.23l53.52,139.42a11.93,11.93,0,0,1-11.08,16.2ZM120.92,34.71l-94,116.06a10.31,10.31,0,0,0,6.39,16.66l147.5,23.36a10.3,10.3,0,0,0,11.23-13.87L138.54,37.5a10.3,10.3,0,0,0-17.62-2.79Z"/><path class="b4fe333a-c8a2-471c-9726-f5239f7b16bc" d="M193.86,198.44a13.69,13.69,0,0,1-1.43-.07L27.4,181a13.24,13.24,0,0,1-9.33-21L115.6,25.82a13.24,13.24,0,0,1,22.82,2.4L205.91,179.8a13.24,13.24,0,0,1-12,18.64ZM126.28,22.16a11.32,11.32,0,0,0-9.22,4.72L19.53,161.12a11.44,11.44,0,0,0,8.06,18.11l165,17.34a11.45,11.45,0,0,0,11.66-16L136.78,29a11.34,11.34,0,0,0-9.26-6.73C127.1,22.18,126.69,22.16,126.28,22.16Z"/><path class="aadd094a-82e8-4cf0-a4c2-e55a97a53f5e" d="M206.72,204.33c-.27,0-.53,0-.8,0L21.8,194.66a14.72,14.72,0,0,1-11.57-22.72L110.64,17.32a14.73,14.73,0,0,1,25.47,1.33l83.7,164.28a14.72,14.72,0,0,1-13.09,21.4ZM123,12.62a12.58,12.58,0,0,0-10.64,5.79L11.91,173a12.71,12.71,0,0,0,10,19.63L206,202.31a12.71,12.71,0,0,0,12-18.47L134.32,19.56a12.59,12.59,0,0,0-10.67-6.92C123.42,12.62,123.19,12.62,123,12.62Z"/><path class="a6b74ea1-684c-4d24-9ea4-ee6c8cc87fe3" d="M221.24,210.12H16.38A16.35,16.35,0,0,1,2.22,185.59L104.64,8.18A16.21,16.21,0,0,1,118.81,0h0A16.21,16.21,0,0,1,133,8.18L235.4,185.59a16.35,16.35,0,0,1-14.16,24.53ZM106.57,9.29,4.14,186.7a14.14,14.14,0,0,0,12.24,21.2H221.24a14.14,14.14,0,0,0,12.24-21.2L131.05,9.29a14.14,14.14,0,0,0-24.48,0Z"/></g></g></svg>