<svg xmlns="http://www.w3.org/2000/svg" viewBox="0 0 640.86 351.73"><defs><style>.bcafc3d7-94f8-4724-81c2-4f9b41f6d20e{fill:#183f74;}.e349733f-cd00-4fb9-a6a9-d997205255ec{fill:#777;}</style></defs><g id="f3b07e42-f6de-4103-94fc-4878bdbd2924" data-name="Capa 2"><g id="eabf189e-c737-46cd-8ae4-a5e1fb19a769" data-name="Logos"><path class="bcafc3d7-94f8-4724-81c2-4f9b41f6d20e" d="M393.14,227.9H399v23.22h-5.88Z"/><path class="bcafc3d7-94f8-4724-81c2-4f9b41f6d20e" d="M404.66,227.9h5.82L419,241.72V227.9h5.87v23.22h-5.78l-8.57-13.85v13.85h-5.88Z"/><path class="bcafc3d7-94f8-4724-81c2-4f9b41f6d20e" d="M433.43,251.2a12.66,12.66,0,0,1-3.55-1.14v-5.28a16.29,16.29,0,0,0,3.73,1.39,16,16,0,0,0,3.71.47,4.92,4.92,0,0,0,2.46-.5,1.58,1.58,0,0,0,.83-1.43,1.76,1.76,0,0,0-.45-1.21,4.22,4.22,0,0,0-1.31-.95c-.58-.29-1.48-.69-2.69-1.2a12.79,12.79,0,0,1-4.69-3,6.35,6.35,0,0,1-.35-7.64,7.19,7.19,0,0,1,3.11-2.42,11.37,11.37,0,0,1,4.58-.87,18.78,18.78,0,0,1,3.79.34,13.29,13.29,0,0,1,3.19,1.06V234a12.58,12.58,0,0,0-5.88-1.53,5.38,5.38,0,0,0-2.54.51,1.63,1.63,0,0,0-.95,1.48,1.78,1.78,0,0,0,1,1.56,25.08,25.08,0,0,0,3.56,1.63,19.44,19.44,0,0,1,3.67,1.89,6,6,0,0,1,1.91,2.16,7.13,7.13,0,0,1,.6,3.13,6,6,0,0,1-2.34,5q-2.36,1.81-7,1.81A22.74,22.74,0,0,1,433.43,251.2Z"/><path class="bcafc3d7-94f8-4724-81c2-4f9b41f6d20e" d="M456.65,232.85h-6.54V227.9h19v4.95h-6.58v18.27h-5.88Z"/><path class="bcafc3d7-94f8-4724-81c2-4f9b41f6d20e" d="M473.59,227.9h5.88v23.22h-5.88Z"/><path class="bcafc3d7-94f8-4724-81c2-4f9b41f6d20e" d="M490.5,232.85H484V227.9h19v4.95h-6.58v18.27H490.5Z"/><path class="bcafc3d7-94f8-4724-81c2-4f9b41f6d20e" d="M509.93,248.81a10.34,10.34,0,0,1-2.65-7.42V227.9h5.88v13.55A4.67,4.67,0,0,0,514.4,245a4.79,4.79,0,0,0,3.44,1.19,4.23,4.23,0,0,0,4.65-4.72V227.9h5.88v13.49a10.38,10.38,0,0,1-2.64,7.44q-2.64,2.79-7.89,2.79T509.93,248.81Z"/><path class="bcafc3d7-94f8-4724-81c2-4f9b41f6d20e" d="M539.23,232.85h-6.54V227.9h19v4.95h-6.58v18.27h-5.88Z"/><path class="bcafc3d7-94f8-4724-81c2-4f9b41f6d20e" d="M560.47,250.09a11.5,11.5,0,0,1-4.48-4.27,11.92,11.92,0,0,1-1.64-6.29,12,12,0,0,1,1.64-6.31,11.48,11.48,0,0,1,4.48-4.29,13.24,13.24,0,0,1,6.37-1.53,13.1,13.1,0,0,1,6.32,1.53,11.25,11.25,0,0,1,4.47,4.29,12.13,12.13,0,0,1,1.63,6.31,12,12,0,0,1-1.63,6.29,11.27,11.27,0,0,1-4.47,4.27,13.1,13.1,0,0,1-6.32,1.53A13.24,13.24,0,0,1,560.47,250.09Zm9.59-4.78a5.94,5.94,0,0,0,2.32-2.29,7.47,7.47,0,0,0,0-7,5.94,5.94,0,0,0-2.31-2.3,6.59,6.59,0,0,0-3.25-.81,6.66,6.66,0,0,0-3.29.81,5.94,5.94,0,0,0-2.31,2.3,6.79,6.79,0,0,0-.85,3.47,6.91,6.91,0,0,0,.85,3.49,5.81,5.81,0,0,0,2.32,2.29,6.83,6.83,0,0,0,3.28.8A6.65,6.65,0,0,0,570.06,245.31Z"/><path class="bcafc3d7-94f8-4724-81c2-4f9b41f6d20e" d="M598.19,227.9h8.34a15.07,15.07,0,0,1,6.68,1.4,10.17,10.17,0,0,1,4.4,4,11.73,11.73,0,0,1,1.55,6.09q0,5.79-3.39,8.76t-9.4,3h-8.18Zm8.67,18.27a5.86,5.86,0,0,0,4.64-1.83,7.21,7.21,0,0,0,1.61-5,6.91,6.91,0,0,0-1.61-4.7,5.62,5.62,0,0,0-4.44-1.84h-3v13.32Z"/><path class="bcafc3d7-94f8-4724-81c2-4f9b41f6d20e" d="M624.14,227.9h16.47v4.95H630v4.35h7.74v4.62H630v4.35h10.59v5H624.14Z"/><path class="bcafc3d7-94f8-4724-81c2-4f9b41f6d20e" d="M398.47,290a10.41,10.41,0,0,1-4.44-4.2A14,14,0,0,1,394,273a10.64,10.64,0,0,1,4.44-4.22,14.4,14.4,0,0,1,6.66-1.47,18.79,18.79,0,0,1,4.47.48,12,12,0,0,1,3.6,1.54v5.58a9.19,9.19,0,0,0-3.3-1.67,15.52,15.52,0,0,0-4.24-.52,8.06,8.06,0,0,0-3.67.81,6.26,6.26,0,0,0-2.54,2.35,7.49,7.49,0,0,0,.91,8.53,6.79,6.79,0,0,0,5,1.83,6.56,6.56,0,0,0,3-.6v-3.72h-3.56v-4.12h9.14v11.56a16.6,16.6,0,0,1-8.77,2.16A14.52,14.52,0,0,1,398.47,290Z"/><path class="bcafc3d7-94f8-4724-81c2-4f9b41f6d20e" d="M418.88,267.76h16.48v4.95h-10.6v4.35h7.74v4.62h-7.74V286h10.6v5H418.88Z"/><path class="bcafc3d7-94f8-4724-81c2-4f9b41f6d20e" d="M445.31,290a11.43,11.43,0,0,1-4.49-4.26,12.94,12.94,0,0,1,0-12.61,11.44,11.44,0,0,1,4.49-4.29,14,14,0,0,1,12.69,0,11.29,11.29,0,0,1,4.46,4.29,13,13,0,0,1,0,12.61A11.29,11.29,0,0,1,458,290a13.92,13.92,0,0,1-12.69,0Zm9.58-4.78a6,6,0,0,0,2.33-2.29,6.92,6.92,0,0,0,.86-3.49,6.79,6.79,0,0,0-.85-3.47,5.85,5.85,0,0,0-2.31-2.29,6.49,6.49,0,0,0-3.25-.82,6.56,6.56,0,0,0-3.29.82,5.91,5.91,0,0,0-2.31,2.29,6.89,6.89,0,0,0-.85,3.47,7,7,0,0,0,.85,3.49,5.83,5.83,0,0,0,2.33,2.29,6.77,6.77,0,0,0,3.27.8A6.63,6.63,0,0,0,454.89,285.17Z"/><path class="bcafc3d7-94f8-4724-81c2-4f9b41f6d20e" d="M473.91,290a10.36,10.36,0,0,1-4.44-4.2,14,14,0,0,1,0-12.86,10.58,10.58,0,0,1,4.44-4.22,14.4,14.4,0,0,1,6.66-1.47,18.79,18.79,0,0,1,4.47.48,12,12,0,0,1,3.6,1.54v5.58a9.28,9.28,0,0,0-3.3-1.67,15.57,15.57,0,0,0-4.24-.52,8.06,8.06,0,0,0-3.67.81,6.19,6.19,0,0,0-2.54,2.35,7.49,7.49,0,0,0,.91,8.53,6.79,6.79,0,0,0,5,1.83,6.59,6.59,0,0,0,3-.6v-3.72H480.2v-4.12h9.14v11.56a16.62,16.62,0,0,1-8.77,2.16A14.52,14.52,0,0,1,473.91,290Z"/><path class="bcafc3d7-94f8-4724-81c2-4f9b41f6d20e" d="M494.32,267.76h10.43a9.31,9.31,0,0,1,6.4,2.06,7.56,7.56,0,0,1,2.3,5.92,8.15,8.15,0,0,1-1.13,4.41,6.86,6.86,0,0,1-3.18,2.73l4.11,8.1h-6l-3.69-7.27H500.2V291h-5.88Zm9.4,11a4.75,4.75,0,0,0,2.73-.68,3.39,3.39,0,0,0,0-4.72,4.84,4.84,0,0,0-2.74-.65H500.2v6.05Z"/><path class="bcafc3d7-94f8-4724-81c2-4f9b41f6d20e" d="M525.58,267.76h5.78L540.63,291h-6l-1.86-4.78h-8.57L522.32,291h-6Zm5.71,13.92-2.82-7.8-2.86,7.8Z"/><path class="bcafc3d7-94f8-4724-81c2-4f9b41f6d20e" d="M545.61,267.76h16.48v4.95h-10.6v4.35h7.74v4.62h-7.74V291h-5.88Z"/><path class="bcafc3d7-94f8-4724-81c2-4f9b41f6d20e" d="M566.4,267.76h5.88V291H566.4Zm2.43-7.34H575l-3,5.92h-5.41Z"/><path class="bcafc3d7-94f8-4724-81c2-4f9b41f6d20e" d="M586.57,267.76h5.78L601.62,291h-6l-1.86-4.78h-8.57L583.31,291h-6Zm5.71,13.92-2.82-7.8-2.86,7.8Z"/><path class="e349733f-cd00-4fb9-a6a9-d997205255ec" d="M395.63,328.54a10.37,10.37,0,0,1-2.66-7.43V307.63h5.88v13.55a4.66,4.66,0,0,0,1.25,3.52,4.67,4.67,0,0,0,8.09-3.52V307.63h5.88v13.48a10.34,10.34,0,0,1-2.65,7.44q-2.64,2.79-7.89,2.79C400,331.34,397.4,330.41,395.63,328.54Z"/><path class="e349733f-cd00-4fb9-a6a9-d997205255ec" d="M419.55,307.63h5.81l8.54,13.82V307.63h5.88v23.22H434L425.43,317v13.86h-5.88Z"/><path class="e349733f-cd00-4fb9-a6a9-d997205255ec" d="M454.06,307.63h5.78l9.27,23.22h-6l-1.86-4.79h-8.58l-1.86,4.79h-6Zm5.71,13.91-2.82-7.8-2.86,7.8Z"/><path class="e349733f-cd00-4fb9-a6a9-d997205255ec" d="M473.26,307.63h5.65L485.62,322l6.74-14.38H498v23.22h-5.49V319.19L487,330.85h-2.66l-5.52-11.66v11.66h-5.51Z"/><path class="bcafc3d7-94f8-4724-81c2-4f9b41f6d20e" d="M392.69,21.34h47.59V207H392.69Z"/><path class="bcafc3d7-94f8-4724-81c2-4f9b41f6d20e" d="M521.82,194.53a80.44,80.44,0,0,1-34.21-32.42Q475.55,141,475.56,112.52t12.05-49.59a81.18,81.18,0,0,1,34.21-32.54Q544,19,573.2,19a143.88,143.88,0,0,1,34.47,3.72,92.73,92.73,0,0,1,27.8,11.91V77.67A71.35,71.35,0,0,0,610,64.73a121.81,121.81,0,0,0-32.68-4Q561.42,60.75,549,67a47.61,47.61,0,0,0-19.6,18.07q-7.18,11.79-7.18,27.42,0,24.35,14.23,38.44T575,165.06q13.57,0,22.8-4.62V136.68H570.38V104.91h70.48v84.23q-27.43,16.67-67.66,16.66Q544,205.8,521.82,194.53Z"/><path class="bcafc3d7-94f8-4724-81c2-4f9b41f6d20e" d="M351.22,162.37C343,151.75,324.82,144.47,300,141c-1-.14-2.09-.29-3.15-.42h0l-3.19-.38h0c-1.06-.12-2.13-.23-3.22-.33l-.09,0-3.25-.28h-.13l-3.27-.25h-.16l-3.29-.2-.22,0-3.28-.16h-.28l-3.29-.13h-.34c-1.08,0-2.17-.07-3.27-.08l-.41,0-3.26,0h-4.26l-3.23,0h-.62l-3.19.07-.7,0c-1.05,0-2.11.05-3.16.09l-.77,0-3.15.14-.83,0-3.11.16-.92.05-3.07.19-1,.06-3,.21c-.36,0-.72,0-1.08.09l-3,.23-1.15.1-3,.27c-.41,0-.82.07-1.23.12-1,.08-1.94.18-2.92.28l-1.3.13-2.88.32-1.39.15-2.82.34-1.47.18-2.8.36-1.52.2c-.91.11-1.84.25-2.76.37l-1.59.23c-.91.12-1.83.26-2.74.4l-1.64.24-2.73.43-1.68.26-2.7.44-1.73.29c-.92.15-1.83.32-2.75.48l-1.71.3c-.94.16-1.87.34-2.8.51l-1.69.31-3.06.59-1.44.28c-1.44.28-2.89.58-4.35.88l-.17,0-.06,0-4.54,1-1.51.34-3,.67-1.81.41c-.91.21-1.82.41-2.72.63l-1.89.45-2.61.62-1.9.47-2.55.64-1.89.48-2.53.66-1.86.5-2.53.67-1.81.5-2.52.71c-.6.16-1.19.34-1.79.51l-2.52.72-1.72.51-2.55.77-1.64.5-2.6.8-1.54.49-2.65.85-1.45.46-2.73.91-1.31.44-2.87,1-1.11.38-3.09,1.09-.85.3-3.44,1.26-.43.15c-9.19,3.41-17.89,7-26,10.73l-.14.07c-1.11.5-2.2,1-3.28,1.53l-.25.12-3.1,1.49-.31.16-3,1.48-.33.16-2.88,1.49-.34.17-2.81,1.49-.32.17-2.78,1.52-.26.16q-1.39.77-2.76,1.56l-.21.12c-.93.53-1.85,1.07-2.75,1.62l-.12.06c-.95.57-1.88,1.13-2.8,1.7h0C27.36,207,13.56,220.74,9.71,233.58a175.2,175.2,0,0,0,26.52,49.19c.18-6,3.09-12.4,8.32-18.83S57.35,251,66.84,244.71c.79-.53,1.61-1.07,2.44-1.59l.36-.23c.72-.46,1.44-.92,2.17-1.37l.52-.32,2.11-1.27.58-.35c.71-.42,1.43-.84,2.16-1.25.19-.12.39-.23.58-.33.76-.44,1.53-.87,2.32-1.31l.46-.26c.91-.5,1.82-1,2.75-1.49l.1-.05q4.44-2.37,9.2-4.67l.56-.26,2.58-1.22.78-.36,2.42-1.11.9-.41c.79-.36,1.59-.71,2.4-1.06l.93-.41,2.48-1.06.89-.38,2.74-1.13.66-.28c2.35-.95,4.73-1.9,7.15-2.82l.16-.06,3.4-1.28.94-.34,2.67-1,1.21-.42c.82-.3,1.65-.59,2.48-.87l1.32-.46,2.45-.83,1.36-.45,2.47-.82,1.36-.44,2.6-.82,1.27-.4,3-.93.87-.26,4-1.18.41-.11c1.18-.35,2.37-.69,3.56-1l1.31-.36,2.72-.74,1.55-.41,2.53-.67,1.66-.42,2.46-.62,1.71-.43,2.48-.6,1.71-.41,2.58-.59,1.64-.38,2.85-.63,1.39-.31,4.24-.89h.07l4.16-.83,1.39-.27c.92-.19,1.86-.36,2.78-.54l1.64-.3c.84-.15,1.68-.31,2.53-.45.57-.11,1.14-.2,1.71-.3q1.22-.23,2.43-.42l1.74-.29,2.38-.39,1.73-.27,2.39-.36,1.69-.25,2.4-.35,1.64-.22,2.46-.33,1.55-.2,2.58-.32,1.38-.17L225,194l1.08-.12,3.57-.37.33,0q4-.39,7.89-.69l.48,0,3.34-.25.82-.05,3-.18.94-.06,2.81-.13,1-.05,2.75-.11,1,0,2.74-.08.89,0,2.81,0h.77l2.94,0h.58l3.2,0h.27c7.07.09,13.82.43,20.17,1l.14,0c1,.09,2,.18,3,.29l.26,0,2.81.32.27,0c.92.11,1.84.23,2.74.36l.25,0,2.73.41.17,0,2.82.46c23,4,38.66,12,43.19,23.46a176.38,176.38,0,0,0,5.14-42.33C351.73,171.33,351.55,166.83,351.22,162.37Z"/><path class="bcafc3d7-94f8-4724-81c2-4f9b41f6d20e" d="M113.19,344.84l.54.21c.54.21,1.09.41,1.65.61h0l-1.09-.41Z"/><path class="bcafc3d7-94f8-4724-81c2-4f9b41f6d20e" d="M336.5,104.17A175.91,175.91,0,0,0,2.7,145.05q-1.34,7.5-2,15.22T0,175.87A177.51,177.51,0,0,0,2.25,204c6-13.41,22.13-27.56,45.32-40.68h0l2.11-1.18.78-.44,2-1.05,1-.55c.61-.33,1.25-.66,1.87-1l1.17-.61c.6-.32,1.22-.63,1.84-.94l1.26-.64,1.84-.91,1.34-.66,1.84-.88,1.4-.67,1.84-.86,1.47-.68,1.84-.84c.51-.23,1-.45,1.53-.69s1.24-.54,1.86-.82l1.57-.68,1.88-.81,1.61-.68,1.9-.79,1.65-.68,1.92-.78,1.7-.67c.63-.26,1.27-.51,1.92-.76l1.75-.68,1.93-.74,1.8-.68,1.94-.72,1.84-.67,2-.71,1.87-.67,2-.68,1.92-.67,2-.67,2-.66,2-.66,2-.64,2-.64,2-.65,2-.62,2.08-.63,2-.61,2.13-.62,2-.59,2.16-.62,2-.57,2.21-.61,2-.55,2.27-.61,2-.52,2.32-.6,2-.51,2.4-.59,2-.48,2.5-.6,1.89-.44,2.65-.61,1.77-.41,3-.65,1.45-.32,4.49-1,4.43-.89,1.45-.28,3-.57,1.74-.32c.89-.17,1.76-.33,2.65-.48l1.85-.34,2.5-.43,1.93-.32,2.4-.41,2-.31,2.34-.37,2-.29,2.32-.35,2-.28,2.28-.32,2-.26,2.26-.29,2-.25,2.23-.27,1.94-.23,2.23-.24,1.92-.22,2.23-.22,1.88-.19c.75-.08,1.51-.14,2.27-.21l1.8-.17,2.4-.2,1.63-.13,3.91-.29L234,112l2.31-.15,1.86-.1,2-.12,1.92-.08,2-.09,1.92-.07,1.89-.06,1.94,0,1.83,0,1.93,0,1.8,0,1.91,0H261l1.71,0,1.9,0,1.67,0,1.89,0,1.63,0,1.87.07,1.59.07,1.86.08,1.53.09,1.87.11,1.45.1,1.89.13,1.22.1c1.73.14,3.45.29,5.14.46,27.1,2.75,47.68,9.52,58.11,19.84A176,176,0,0,0,336.5,104.17ZM240.07,64.05l.06,0-1.76,0c-10.24.43-26,1.17-45.71,3.6l-2.67.36-.46.06-5,.72-.92.14c-1.34.2-2.7.41-4,.63l-1.29.2-4.49.75-.48.08-4.95.88-1.32.25c-1.26.23-2.53.47-3.79.72l-1.44.27c-1.66.33-3.33.66-5,1s-3.5.73-5.24,1.11l-1.45.32c-1.4.3-2.79.62-4.18.94l-1.11.25-5.13,1.21-1,.25-4.25,1-1.24.32Q128.07,80.56,123,82l-1,.28c-1.51.42-3,.86-4.51,1.29l-.53.15c-1.72.51-3.44,1-5.14,1.54l-.32.1-4.71,1.47-.62.2q-5,1.61-9.92,3.29l-.36.13Q88.46,93,81.38,95.76l-.1,0q-4.77,1.86-9.35,3.79l.15-.2q-4.85,2-9.74,4.22A134.56,134.56,0,0,1,249.88,63.46C248.08,63.71,244.74,63.85,240.07,64.05Z"/><path class="bcafc3d7-94f8-4724-81c2-4f9b41f6d20e" d="M297,220.17q-5.81-1-12.26-1.61t-13.45-.86h-.14c-1,0-1.94-.06-2.92-.09h-.34l-2.77-.05h-3.73l-2.67,0h-.6l-2.68,0-.62,0-2.77.08-.56,0-2.92.13h-.44l-3.28.17h-.12c-3.46.2-7,.46-10.57.78l-.49,0-3,.28-1,.1-2.57.27-1.19.13-2.37.27-1.34.17c-.75.08-1.5.18-2.25.27l-1.44.19-2.2.29-1.49.21-2.16.31-1.54.23-2.16.33-1.56.24-2.16.35c-.53.09-1.06.17-1.58.27l-2.21.37c-.51.1-1,.19-1.54.27l-2.3.42-1.47.28-2.53.48-1.25.24-3.79.76h0l-3.86.82-1.25.27-2.59.57-1.47.34-2.34.55c-.52.12-1,.23-1.54.36l-2.26.54-1.53.39-2.24.56-1.5.38-2.27.6-1.42.38-2.37.64-1.28.35-2.66.76-.94.27q-3.66,1.05-7.21,2.16l-.47.14-3,1-.84.28-2.63.86-1,.32c-.83.27-1.66.55-2.48.84l-1,.33-2.45.86-.92.33-2.51.91-.79.28-2.69,1-.55.21-3.16,1.22h0c-4.37,1.72-8.6,3.49-12.66,5.31l-.19.08-2.78,1.27-.27.12-2.68,1.26-.26.12-2.67,1.3-.16.08a193.13,193.13,0,0,0-20.57,11.65c-19.18,12.61-30,26-28.54,37.86a176,176,0,0,0,283.41-58.92C335.25,232.33,320,224.09,297,220.17ZM175.86,310.31A134.14,134.14,0,0,1,124.17,300c-.94-.39-1.87-.8-2.8-1.21a243.46,243.46,0,0,1,29.39-13.29h0l0,0,.09,0,.59-.23,1.43-.55.72-.27,1.45-.54.72-.27,1.5-.54.64-.23,1.59-.57.34-.11c1.21-.42,2.43-.83,3.66-1.24,21.58-7.26,49.77-14.15,80.5-15,1.35-.06,2.69-.1,4-.13h.12c1.34,0,2.67,0,4-.05h.17c5.39,0,10.51.19,15.31.59l-.19.2q3.51.29,7.05.7A134.17,134.17,0,0,1,175.86,310.31Z"/></g></g></svg>