<?xml version="1.0" encoding="utf-8"?>
<!-- Generator: Adobe Illustrator 22.0.0, SVG Export Plug-In . SVG Version: 6.00 Build 0)  -->
<svg version="1.1"
	 id="svg2226" inkscape:output_extension="org.inkscape.output.svg.inkscape" inkscape:version="0.45.1" sodipodi:docbase="/home/roman/Escritorio" sodipodi:docname="Escudo-UNAM-escalable.svg" sodipodi:version="0.32" xmlns:cc="http://web.resource.org/cc/" xmlns:dc="http://purl.org/dc/elements/1.1/" xmlns:inkscape="http://www.inkscape.org/namespaces/inkscape" xmlns:rdf="http://www.w3.org/1999/02/22-rdf-syntax-ns#" xmlns:sodipodi="http://sodipodi.sourceforge.net/DTD/sodipodi-0.dtd" xmlns:svg="http://www.w3.org/2000/svg"
	 xmlns="http://www.w3.org/2000/svg" xmlns:xlink="http://www.w3.org/1999/xlink" x="0px" y="0px" viewBox="0 0 447.5 500.9"
	 style="enable-background:new 0 0 447.5 500.9;" xml:space="preserve">
<style type="text/css">
	.st0{fill:#3E3E3E;}
</style>
<sodipodi:namedview  bordercolor="#666666" borderopacity="1.0" gridtolerance="10.0" guidetolerance="10.0" id="base" inkscape:current-layer="svg2226" inkscape:cx="647.95109" inkscape:cy="347.12244" inkscape:pageopacity="0.0" inkscape:pageshadow="2" inkscape:window-height="803" inkscape:window-width="1440" inkscape:window-x="0" inkscape:window-y="29" inkscape:zoom="0.64" objecttolerance="10.0" pagecolor="#ffffff">
	</sodipodi:namedview>
<path id="path2235" class="st0" d="M239.9,499c-2.9-0.6-4.6-1.9-8.1-6.3c-3.4-4.3-5-5.8-7.9-7.3c-1.8-0.9-3.5-0.9-3.4,0
	c0,0.3,0.7,1.5,1.5,2.8c1.5,2.4,1.8,3.2,1.2,3.6c-0.4,0.3-9.8-0.9-11.8-1.4c-0.8-0.2-2.6-1.1-3.9-1.9c-1.3-0.8-3.3-1.8-4.5-2.2
	c-1.2-0.4-2.8-1.3-3.6-1.9c-1.4-1-1.5-1.1-2-0.3c-0.3,0.4-1.2,2.3-1.9,4.1c-1.1,2.7-1.4,3.8-1.3,6.2c0,2.8,0,3-1.1,3.4
	c-1.7,0.6-4-0.6-6.4-3.3c-1.1-1.3-2.2-2.3-2.5-2.3s-1.4,0.4-2.5,0.9c-1.3,0.6-3.6,1-6.7,1.2c-5.4,0.4-6.9,1.1-8,3.3
	c-2,4.3-4.1-2-2.2-6.5c0.4-0.9,2.4-3.5,4.5-5.6c4.6-4.8,5.2-5.6,5.2-7.6c0-2.3-1.4-3.8-3.3-3.8c-1.8,0-8.3,3.6-11.4,6.4
	c-1.4,1.3-2.4,1.8-3.3,1.8c-0.7,0-3.3,0.4-5.7,0.9c-4.2,0.9-4.4,1-5.9,2.8c-0.8,1-1.7,1.9-1.9,1.9s-1-0.6-1.9-1.2
	c-1.4-1.1-2-1.3-5.6-1.5c-3.4-0.2-4.4-0.1-6.7,0.7l-2.7,0.9l-1.6-1.6c-1.1-1-3.7-2.5-7.7-4.2l-6.1-2.7l-1-2.4
	c-1.7-4.2-3.4-7.3-4.6-7.9c-1.9-1-10-0.7-13.7,0.5c-2.7,0.9-3.1,1.2-3.9,2.7c-1.1,2.1-1.9,2.3-3.6,1.1c-1.1-0.8-1.9-0.9-7.3-0.9
	c-5.6,0-6.2,0.1-8.1,1.1l-2.1,1.1l-1.5-1.1c-1.1-0.8-2.3-1.2-4.4-1.5c-1.6-0.2-4.5-0.6-6.4-0.9c-2.7-0.4-3.8-0.4-4.7-0.1
	c-2.1,1-3.1,0.6-4.5-1.4c-1.3-1.9-3.3-3-4.5-2.6c-0.3,0.1-1.1,1.5-1.7,3.1c-2,5.2-2.4,5.4-7.4,3.9l-2.9-0.9l-1.2,1.2
	c-1.5,1.5-1.8,2.3-1.3,3.8c0.4,0.9,0.3,1.3-0.4,2c-1.3,1.3-1.8,1.1-4.4-2.2c-2.1-2.7-2.1-3.7,0-4.1c2.3-0.4,3-0.9,3.8-2.3
	c0.7-1.4,0.4-2.3-1.6-4.8c-0.9-1.1-0.9-1.2-0.2-3.1c0.9-2.2,2.8-4.1,5.9-5.7c3.5-1.8,3.9-4.1,0.8-5.2c-2.6-0.9-2.7-1.6-0.3-5.4
	c0.8-1.3,1-2.1,1-5.7c0-4.7,0.2-5.2,2.7-5.9c1.5-0.5,7-4.2,7.6-5.3c0.6-0.9-0.3-2.5-2.5-5c-2.4-2.6-4.2-3.6-6.4-3.6
	c-1.9,0-2.9-0.6-3.4-2.3c-0.7-2.2-5.7-5.9-8-5.9c-1.3,0-2.1-1.1-2.8-3.7c-0.6-2.4-3.9-6.8-5.6-7.5s-2.2-1.8-1.7-4.1
	c0.6-2.5,0-7.9-1-9.6c-1.1-1.9-1.1-3.4,0.2-4c1.1-0.5,2.2-2.3,2.9-4.6c0.5-1.8-0.2-2.7-3.7-5c-2.7-1.8-4.1-3.4-4.1-4.8
	c0-0.3,0.8-1.7,1.7-3.1s1.7-3,1.7-3.6c0-1.3-0.7-2.7-1.5-2.7c-0.3,0-0.8-0.4-1.1-0.9c-0.4-0.7-0.3-1.1,0.3-2
	c1.1-1.4,3.9-3.1,5.3-3.1c2,0,2.4,1.1,1.5,4.1c-0.5,1.7,0.7,2.5,4.3,2.9c4.3,0.4,4.8,0.9,5.3,5.1c0.3,2,0.7,3.4,1.1,3.7
	c0.8,0.6,7.4,1.6,8,1.2c0.2-0.1,0.4-1,0.4-1.9c0-4.3,2.4-8.4,5.9-10c1.1-0.5,3.3-1.9,5-3.1c3.4-2.5,5.1-3.1,7-2.6
	c1.7,0.5,2.4,2,2.2,4.5c-0.3,3.2-0.1,3.3,4.9,2.1c3.7-0.9,4.8-1.4,6.9-2.9c3-2.3,4.2-2.7,6.9-2.7c3.8,0,6.9,2.4,6.9,5.3
	c0,0.5-0.4,1.6-0.9,2.4c-0.7,1.2-1.1,1.4-2.2,1.3s-1.5-0.5-2.3-1.9c-0.9-1.8-2.4-2.4-3.7-1.5c-0.5,0.3-0.3,0.8,1,2.9
	c1.2,1.8,1.8,3.3,2.2,5.6c0.4,2.3,0.8,3.5,1.7,4.4c0.6,0.7,1.3,1.6,1.4,2.1s1.1,1.8,2.2,2.8c1.1,1.1,3.1,4,4.6,6.4
	c2.8,4.7,3.8,5.7,4.8,5c0.3-0.2,2.6-1.8,5-3.4c2.7-1.9,4.9-3.7,5.5-4.7c0.6-0.9,2.7-3.3,4.6-5.3c3.3-3.4,3.6-3.6,5.4-3.6
	c3.1,0,5.3,1.4,7,4.5c1.4,2.5,1.7,2.8,4.9,4.2c3.6,1.7,4.9,2.9,11.5,10.6c1.9,2.2,4.1,4.5,4.9,5.1l1.5,1.1l1.3-1.2
	c0.7-0.7,1.6-1.9,2-2.8c1-2.2,3.5-5.1,4.9-5.9c0.7-0.4,2.4-0.6,4.1-0.6c1.9,0,4.1-0.4,6.4-1.1c3.4-1.1,3.8-1.1,8.7-0.7
	c4.3,0.3,5.6,0.6,7.5,1.6c2.6,1.3,7.5,5.8,9.8,9.1c3.7,5.2,5.1,6.4,11.1,10.4c5.6,3.7,12.5,7.1,20,9.8c3.5,1.3,8.3,2,13.1,2.1
	c4.7,0,4.7,0,7.5-1.7c5-2.9,7.3-3.7,10.7-3.8c3.9,0,5.2,0.5,13.7,6.1c6.9,4.5,8.4,5.3,11,5.3c1.9,0,2.7-1,2.7-3.3
	c0-1.6,0.3-2.2,1.4-3.5c0.8-0.9,2.3-3.1,3.3-5c4.5-7.9,9.5-13.3,15.3-16.1c2.4-1.2,3.9-1.6,7.3-1.9c2.4-0.3,4.6-0.6,5-0.7
	c1.2-0.3,4.6-5.2,4.9-7c0.4-2.4,0.9-3,2.4-3.3c0.8-0.2,2.4-0.9,3.6-1.5c1.2-0.7,2.7-1.2,3.3-1.2c1.2,0,9.7,6.1,10.2,7.2
	c0.1,0.4,0,1.3-0.3,2c-1.4,3.5-2.3,6.3-2.5,8.3c-0.2,2.2-0.3,2.3-2.2,3.2c-1.1,0.5-2.5,1.1-3,1.4c-1.3,0.6-2,2.4-2.4,6.1
	c-0.2,1.7-0.7,4.8-1.1,6.9s-0.7,4.5-0.6,5.3c0.4,2.3-0.1,3.3-2.1,4.3c-1.9,1-4.5,4.2-7.3,8.9c-1.4,2.4-1.9,2.9-6,5.3
	c-3.2,1.9-5.4,2.9-7.7,3.5c-2,0.5-3.8,1.2-4.8,2c-0.9,0.7-2.9,2.1-4.5,3.2c-4.4,3-5,4.9-1.5,4.9c2.7,0,4.9-0.7,6.5-2.2
	c1.2-1,1.7-1.2,2.9-1c2.2,0.4,7-1.9,9.3-4.5c1.8-2,1.8-2,4-1.7c2,0.2,2.3,0.1,4.6-1.4c2.2-1.5,2.7-1.7,5.1-1.7c2,0,3-0.2,4.4-1.1
	c0.9-0.6,2.3-1.1,3.1-1.1c2,0,3.5-0.8,4-2.2c0.2-0.7,0.8-4.6,1.4-8.7c0.5-4.1,1.3-8.3,1.7-9.4c0.4-1.1,1.5-3.6,2.3-5.6
	c0.9-2,1.6-4.3,1.6-5c0-0.9,0.4-1.7,1.3-2.6c0.7-0.7,3.3-3.8,5.6-6.9c3.9-5.2,4.6-5.8,7.7-7.7c1.9-1.1,3.6-2,3.9-2s3-1,6-2.1
	c10.8-4.2,17.8-3.9,25.8,1c2.8,1.7,6.2,1.8,9.9,0.1c2.8-1.3,8-6.1,8-7.5c0-1-1.2-1.7-3.6-2.1c-0.8-0.2-2-0.7-2.7-1.3
	c-1-0.8-1.2-1.3-1.2-2.7c0-0.9,0.4-2.5,0.9-3.5c1.2-2.7,0.5-4.4-2.3-5.2c-1.9-0.5-1.8-1.8,0.3-3.7c1-0.9,2-1.6,2.3-1.6
	s0.8,0.8,1.1,1.9c0.8,3,1.6,3.5,5.5,3c5.5-0.6,6.6-0.1,7.5,2.9c0.9,3.2,1.1,3.2,7.8-1c2.1-1.3,4.9-2.8,6.4-3.3l2.6-1v-2.2
	c0-2.9,0.7-5.1,2-6.7c1.5-1.8,2.5-2,5-0.9c2.4,1.1,3.9,0.8,4.8-1.1c0.4-0.9,0.3-1.4-0.5-2.9c-0.8-1.4-0.9-1.9-0.5-2.8
	c0.6-1.3,1.6-1.3,3.6,0.1c0.9,0.6,2.4,1.4,3.4,1.7c2.2,0.8,2.9,1.4,2.9,2.4c0,0.9-1.2,1.7-2.7,1.7c-1.7,0-2.4,0.4-3.1,1.8
	c-0.9,1.8-0.8,2.4,0.9,4.6c2,2.6,2,4.1,0,6.5c-0.8,1-1.8,1.8-2.1,1.8c-0.8,0-2.4,1.9-2.4,2.8c0,0.5,0.4,2.2,0.9,3.9
	c1.2,4.1,1.2,8,0,11.1c-2.4,6.2-12.7,13.9-21.8,16.3c-2.7,0.7-5.6,1-13.5,1.3c-11.5,0.4-11.5,0.4-13.3,4
	c-2.8,5.6-9.3,12.2-14.8,15.3c-1.3,0.7-5.9,2.5-10.1,4c-4.3,1.5-9,3.3-10.6,4.1c-5.3,2.7-9.5,6.4-9.5,8.6c0,1.2,3.4,3.3,5.3,3.3
	c3.9,0,14.5-2.1,22.5-4.3c6.3-1.8,11.3-2.6,17.3-2.6c4.6,0,5.8,0.2,9.8,1.3c2.5,0.7,5.9,1.5,7.7,1.6l3.2,0.3l1.2,2.3
	c0.6,1.3,2,3.5,3.1,5c1,1.5,2.2,3.4,2.7,4.2c0.4,0.8,1.3,2,2,2.5c1.3,1,1.6,2.5,0.8,4c-0.2,0.4-0.7,2.2-1.1,4
	c-0.3,1.7-1.1,4.5-1.6,6.2c-0.8,2.5-1.2,3.1-2.3,3.6c-0.7,0.3-2.1,1.3-3,2.2c-2.5,2.3-3,2.5-5.3,2.1c-2.5-0.5-6.5,0.2-9.3,1.7
	c-1.4,0.8-2.3,1-2.6,0.7c-2.6-1.9-3.1-2.1-5.9-2.3c-2.1-0.1-3.3,0-4.2,0.5c-2,1-2.5,0.9-4.6-1.2c-2.4-2.5-3.8-3-5.9-2.4
	c-0.8,0.3-2.1,0.4-2.8,0.4c-1.2-0.1-1.3-0.3-1.5-2.1c-0.2-1.7-0.5-2.1-2.1-3.4c-1.6-1.2-2.2-1.4-3.9-1.3c-1.6,0.1-2.3-0.1-3.5-1
	c-1.8-1.3-3.9-2.1-5.8-2.1c-1.6,0-2.8,1.3-3.8,4.2c-0.6,1.7-3.4,6.5-5.2,8.8c-0.5,0.7-3.2,2.4-6.5,4c-10.2,5.2-13.9,6.2-23,6.2
	c-7.5,0-11.4-0.7-22.4-3.9c-8.9-2.6-13.1-3.4-19.6-3.4c-1.6,0-3.3,0.2-3.7,0.4c-0.4,0.2-1.6,1.5-2.6,2.8s-3.6,3.8-5.9,5.6
	c-3.7,2.9-4.1,3.4-3.6,4.1c0.9,1.6,3.8,3.3,7.2,4.1c3.4,0.8,4.1,1.4,3.1,2.6c-2.2,2.7-10.3,3.4-15.5,1.3c-1.5-0.6-4.2-1.8-6-2.6
	c-1.8-0.8-3.4-1.4-3.6-1.3c-0.2,0.1,0.1,1.1,0.7,2.1c0.6,1,0.9,2,0.8,2.3C244.2,499.1,242,499.4,239.9,499z M254.1,493.6
	c0-0.1-1.4-1.4-3.2-2.9s-4.9-4.2-7-6c-4.7-4-10.2-6.9-15.9-8.4c-4.2-1.1-9.4-1.4-10.5-0.7c-0.8,0.5-1.2,4.3-0.5,4.8
	c0.3,0.2,1.3,0.2,2.2,0.1c1.7-0.2,5,0.7,7.9,2.1c2.4,1.2,5.5,4.3,7.6,7.5c2.7,4.1,3.7,3.4,2.9-2.2c-0.1-0.9,0-1.3,0.5-1.4
	c0.4-0.1,3.9,1.5,7.8,3.5C252.4,493.4,254.1,494.2,254.1,493.6z M191.7,488.3c1.5-5.1,2.2-9.7,1.8-11.8c-0.4-2-2-4.8-3.7-6.2
	c-0.8-0.6-4.7-2.8-8.8-4.8c-6.5-3.2-7.7-3.9-9.6-6c-2.7-2.9-4.8-7.1-4.8-9.4c0-1.5,0.1-1.6,0.8-1.2c0.4,0.2,1.6,1.7,2.5,3.3
	c2.9,4.9,7.3,8.1,17,12.2c6.3,2.7,9.4,4.6,12.8,7.9c3.3,3.2,4.1,3.5,4.9,1.4c1.1-2.9-0.5-6.4-4.4-9.3c-4-2.9-4.3-3.1-10.2-3.4
	c-4.6-0.2-5.4-0.4-6-1.1c-0.3-0.5-0.5-1-0.5-1.3c0.5-1.6,7-2.4,11.6-1.5c5.1,1,8.9,3.8,12.6,9c1,1.4,1.3,2.5,1.5,4.4
	c0.2,3.2-0.9,5.7-3.8,8.3c-2.4,2.2-2.9,3.2-1.9,3.7c0.9,0.5,3.3-0.3,5.2-1.6c2.4-1.7,3.6-3.8,4.1-6.9l0.5-2.9h4.1
	c5,0,7.2-0.4,7.5-1.3c0.4-1.1-0.1-1.5-2-1.5c-2.6,0-4-1-8.5-6.2c-7-7.9-10.4-9-24.1-7.2c-3.4,0.4-4.6,0.4-8-0.2
	c-8.2-1.4-12-3.8-13.4-8.7c-0.9-3.2-0.7-7.2,0.6-8.8c3.1-4.2,9-4.5,12-0.6c1.2,1.6,1.9,1.7,2.4,0.3c0.5-1.3-1-4-2.8-5.2
	c-1.6-1.1-5-1.7-7.3-1.2c-2,0.4-5.6,3.3-7.2,5.8c-2.1,3.3-3.1,7.3-2.8,10.8c0.7,6.3,3.2,11.5,10.1,20.5c6.7,8.8,6.8,11.5,1,18.3
	c-1.5,1.7-2.7,3.3-2.7,3.5c0,0.9,1.8,1.5,3.7,1.2c3.7-0.5,6.2-2.4,8.1-6.3c0.6-1.2,0.8-2.4,0.7-5.7c-0.1-4.3,0.4-5.5,1.9-5
	c1.5,0.6,2,3.2,2.1,10.4c0,5.2,0.2,7.1,0.6,7.7c0.3,0.4,0.7,0.7,0.9,0.7C190.3,492.5,191,490.6,191.7,488.3z M216.6,487.1
	c0-0.3-0.7-1.3-1.5-2.2c-1.7-1.7-3.7-2-5.2-0.9c-0.8,0.6-0.8,0.7,0.4,1.7C212.4,487.5,216.6,488.4,216.6,487.1z M257.9,482.8
	c4.8-2.3,6.7-4.8,6.1-7.9c-0.6-3.2-0.5-6.3,0.5-8.6c1.1-2.8,1.1-5.9,0.1-7.5c-2.5-3.8-9.6-6.8-16.2-6.9H245l-9.8,5
	c-5.4,2.7-10.4,5.2-11.2,5.5c-2.2,0.7-1.7,1.8,1.4,3c5.1,1.9,5.1,1.9,4.3,5.8l-0.3,1.6l2.4,0.7c2.3,0.7,2.6,0.7,4.4,0
	c2.8-1.1,4.3-0.4,5.1,2.3c0.5,1.9,0.9,2.2,5.3,5.4c4.7,3.4,4.8,3.4,6.9,3.1C254.6,484,256.6,483.4,257.9,482.8z M252.8,475.5
	c-0.8-1,0.5-2.8,2.2-2.8c0.2,0,0.6,0.4,0.8,0.9C256.8,475.4,254.2,477.1,252.8,475.5z M250.1,469.6c-0.9-0.5-1-2.6-0.2-3.3
	c0.3-0.3,0.9-0.5,1.4-0.5c2,0,2.7,2.5,1,3.6C251.2,470.2,251.1,470.2,250.1,469.6z M237.4,467.2c-0.7-0.3-0.7-2.5,0.1-3.1
	c1.4-1.2,3.4,0.9,2.7,2.8C239.9,467.5,238.5,467.7,237.4,467.2z M255.4,463.2c-0.7-0.7-1.3-1.6-1.3-2c0-0.8,1.9-2.8,2.6-2.8
	c0.3,0,0.9,0.5,1.5,1.1c1.3,1.3,1.5,3.9,0.2,4.5C257.2,464.7,256.7,464.6,255.4,463.2z M241.1,458.8c-1.3-1.3-0.9-2.6,1-3.4
	c2.2-0.8,2.9-0.5,2.9,1.6c0,1.4-0.2,1.8-1.1,2.2C242.4,459.9,242.2,459.9,241.1,458.8z M145,480.2c3.5-0.6,11.6-3.6,16.4-6.2
	c3.5-1.8,6.4-4.5,6.4-5.8c0-0.5-1.1-2.8-2.4-5.1c-1.4-2.4-2.9-5.8-3.7-8.3c-0.9-3-1.6-4.4-2.3-4.9c-1.5-1-14.2-5.2-17.5-5.8
	c-1.5-0.3-5.6-0.7-9-0.9c-7.3-0.4-10.5,0.1-15.3,2.3c-4,1.9-5.8,3.9-7.5,8.7c-1.9,5.3-1.8,8,0.9,13.3c2.4,4.8,4.9,7.5,8.8,9.4
	c3.1,1.5,7.9,3.1,11.4,3.8C133.6,481.3,140.6,481,145,480.2z M137,475.1c-1.4-2.2,0.7-5.7,2.8-4.6c1.9,1,2.3,3.3,0.8,4.7
	C139.2,476.4,137.8,476.4,137,475.1z M119.7,470.7c-1.1-1.7-0.4-3.3,1.4-3.5c2.6-0.3,3.6,1.9,1.7,3.7
	C121.5,472.1,120.6,472,119.7,470.7z M152.5,464.2c-0.5-0.5-0.7-1.3-0.6-2.5c0.1-1.5,0.3-1.9,1.4-2.4c1.1-0.5,1.4-0.5,2.4,0.3
	c1.6,1.2,1.6,2.4,0,3.9C154.2,465.1,153.5,465.2,152.5,464.2z M134.3,463.8c-1.6-0.8-2-1.8-1.5-3.3c0.8-2.1,2.7-1.9,5.5,0.7
	c1.1,1,1.2,1.7,0.3,2.6C137.8,464.7,136.1,464.6,134.3,463.8z M137.9,457c-1.3-1.8-0.5-4.7,1.5-5.2c1.2-0.3,3.5,1.6,3.5,3
	s-1.8,3.2-3.2,3.2C139,458,138.3,457.6,137.9,457z M119.5,454.8c-0.8-1.6-0.4-3.4,0.9-4.2c2.8-1.6,5.2,2.3,2.7,4.3
	C121.6,456.1,120.2,456.1,119.5,454.8z M325.5,479.4c3.1-0.6,8.7-3.2,12.2-5.6c6-4.1,11.1-11.1,9.5-13c-0.3-0.3-1.6-0.9-2.8-1.3
	c-3.2-0.9-4.3-2.4-4.7-6c-0.3-3.2,0-6.4,0.9-8.2c0.8-1.5,0.5-2.2-1.2-3.1c-1.8-0.9-9.5-0.9-13,0c-4.4,1.2-13.6,4.8-23,9
	c-10.6,4.8-12.5,5.4-23.3,7.6c-8.7,1.8-9.5,2.1-11.6,5.1c-1.4,2-2,5.8-1.2,7.3c0.6,1.2,3.3,1.7,10.7,2.1l6.1,0.3l1.1-1.8
	c0.9-1.5,1.3-1.7,1.9-1.4c1.3,0.7,1.9,1.7,1.6,2.5c-0.2,0.6,0.2,1,1.6,1.7c4.6,2.3,11.2,4.3,16.7,5.1
	C312,480.5,321,480.3,325.5,479.4z M313.4,475.9c-0.7-1-0.7-1.1,0.1-1.9c1.1-1.2,2.5-1.1,3.2,0.3
	C317.7,476.6,314.8,478.1,313.4,475.9z M296.6,470.9c-1.7-2.1-1.4-2.8,1.4-3.8c1.2-0.4,1.5-0.4,2.3,0.4c1.1,1.1,1.1,2.6,0,3.8
	C299,472.6,297.9,472.5,296.6,470.9z M327.6,467.3c-0.7-1-0.7-1.2,0-2.2c0.9-1.3,1.9-1.2,2.8,0.3c0.6,1.1,0.6,1.2-0.2,2
	C329.2,468.6,328.5,468.6,327.6,467.3z M308.5,466.5c-0.6-0.6-0.7-3.2-0.1-3.6c0.9-0.5,2.5,0.2,3.1,1.5c0.6,1.1,0.6,1.3-0.1,1.9
	C310.6,467.2,309.3,467.3,308.5,466.5z M286.9,462.9c-0.5-0.6-0.9-1.4-0.9-1.7c0-0.8,2.5-2.8,3.5-2.8c1.3,0,2.3,1.3,2,2.5
	C290.6,464,288.5,464.9,286.9,462.9z M306.7,458.1c-2.3-0.8-3-3.7-1.1-4.4c1.6-0.6,2.7-0.1,3.5,1.5c0.8,1.8,0.8,1.9-0.1,2.6
	C308.2,458.4,307.7,458.5,306.7,458.1z M322,453.8c-1.4-1.5-1.4-3.1,0.1-3.4c2.5-0.6,4.6,1.9,3,3.7C324,455.3,323.3,455.2,322,453.8
	z M400.6,470c7.2-0.8,10.9-2.8,13.5-7.5c2.9-5,0.8-12.5-5-18.2c-2.7-2.6-4.8-3.7-9.5-4.9c-8.3-2.2-19-1.2-31.7,2.9
	c-5.9,1.9-8.2,2.4-13.9,3.1c-5.6,0.7-7.1,1-8.7,1.9c-2.3,1.4-3.3,3.2-2.9,5.3c0.5,2.4,1.4,2.8,6.7,3.4c7.6,0.8,14.6,3.2,23.1,7.7
	c7.8,4.2,11.1,5.4,17.7,6.2C394,470.6,396,470.6,400.6,470z M391.4,465.5c-0.4-0.2-1.8-2.8-1.8-3.4c0-0.1,0.4-0.4,0.9-0.6
	c0.7-0.4,1-0.3,1.4,0.2c0.3,0.4,0.9,0.7,1.4,0.8c0.6,0.1,0.9,0.5,1,1.4C394.4,465.4,393.1,466.2,391.4,465.5z M403.5,463.1
	c-0.9-0.9-0.7-3.7,0.3-4.2s3.5,0.9,3.5,2C407.2,462.7,404.6,464.2,403.5,463.1z M383.6,457.5c-1-1-0.7-2.5,0.6-2.8
	c1.4-0.3,2.9,0.9,2.7,2.2C386.7,457.9,384.5,458.4,383.6,457.5z M370.2,455.2c-1.2-0.8-1.2-2.4-0.2-3.4c1.2-1.1,2.1-0.9,2.9,0.6
	c0.9,1.7,0.8,2.5-0.2,3C371.6,456,371.4,456,370.2,455.2z M393.5,453.5l-0.9-1.5l1.1-1.3c1.2-1.5,2.1-1.6,3.5-0.6
	c1.3,0.9,1.3,2.8,0,4C395.7,455.4,394.5,455.2,393.5,453.5z M360.6,451.5c-2.3-1.2-2.8-2-2.2-3.2c0.3-0.6,1-1.2,1.6-1.3
	c2.2-0.6,4.2,2.8,2.7,4.7C362.2,452.3,362,452.3,360.6,451.5z M383.7,445.3c-0.4-1.5,0.4-3.3,1.4-3.2c1,0,2.6,1.3,2.9,2.4
	s0.1,1.3-2.3,1.7C384.1,446.4,384,446.4,383.7,445.3z M35.6,466.5c1.4-2,0.3-6.6-1.8-7.1c-2.2-0.5-6.6,2-6,3.5
	c0.4,1,5.2,4.6,6.2,4.6C34.5,467.5,35.2,467.1,35.6,466.5z M82.1,466.4c2.7-0.4,6.8-1.1,9.2-1.7c2.4-0.6,6.1-1.2,8.2-1.4
	c2.1-0.1,4.1-0.5,4.4-0.7s0.5-1,0.5-1.8c0-0.7,0.3-2.7,0.6-4.3c0.3-1.6,0.5-3.2,0.4-3.5s-1.3-1-2.7-1.5c-5-1.9-7.1-3.6-14.1-11.5
	c-3-3.4-6.1-6.4-6.8-6.8c-2.3-1.1-12.4-3.3-15.2-3.3c-3.1,0-5.6,1.2-7,3.3c-0.6,1-1.3,1.5-1.7,1.4c-0.7-0.1-0.7-0.8-0.6-6l0.1-5.8
	l-2.6-7.5C50.2,402,41.3,385,36,379.7c-3.9-3.9-10.8-5.8-14.3-4c-3.1,1.6-5.3,5.1-6.3,10.1c-1,4.7,0.7,11.1,4.1,16.3
	c2.3,3.4,8.3,9.1,14.5,13.4c6,4.3,10.9,9,12.7,12.3s1.5,3.8-2.7,5.9s-6.6,4.3-8.2,7.5c-1,2.1-1.2,2.9-1.2,6.5c0,4.8,0.6,6.2,4,10
	c2.1,2.3,7,5.5,11.1,7.4C54,466.8,72.7,467.7,82.1,466.4z M71.4,460.9c-1.6-2.3,0-5,2.3-3.8c1.2,0.6,1.3,3,0.1,4.1
	C72.8,462.1,72.2,462.1,71.4,460.9z M57.2,457.6c-0.7-0.8-0.7-1-0.1-2.4c0.7-1.6,1.3-1.9,2.6-1c0.6,0.4,0.7,1,0.6,2.3
	c-0.1,1.5-0.3,1.7-1.2,1.8C58.4,458.4,57.7,458.1,57.2,457.6z M88.8,456.5c-0.6-1.4-0.1-3.1,1.2-4c1.4-0.9,1.9-0.3,1.9,2.5
	c0,1.4-0.2,2.1-0.7,2.3C90,457.8,89.3,457.6,88.8,456.5z M45.6,454.4c-1.6-1.2,0.6-4.5,2.2-3.5c1.2,0.7,1.6,1.7,1.3,2.9
	c-0.2,0.9-0.5,1.1-1.5,1.1C46.9,455,46,454.7,45.6,454.4z M65.9,452.5c-1.2-1.4-1.3-1.9-0.5-2.7c1.8-2,4,0,2.9,2.8
	C68,453.5,66.7,453.4,65.9,452.5z M77,449.6c-1.2-1.2-1.4-2.7-0.5-3.9c0.9-1.2,2.5-0.7,3.4,1c0.8,1.6,0.5,2.7-1,3.5
	C78.3,450.6,77.9,450.5,77,449.6z M43.7,446c-1.5-0.9-1.3-4.4,0.2-5c0.8-0.3,2.5,0.7,3.1,1.9c0.4,0.7,0.2,1.1-0.7,2.2
	C45.2,446.4,44.6,446.6,43.7,446z M61.3,446c-1.5-0.5-1.7-2.5-0.5-4c0.8-1,0.8-1,2-0.2C64.9,443.2,63.7,446.8,61.3,446z M72.9,439.5
	c-1.2-1.2-1.1-3.2,0.2-4.6c1.3-1.3,2.1-0.9,2.8,1.6c0.5,1.8,0.2,2.6-1.4,3.4C74,440.2,73.6,440.1,72.9,439.5z M48.1,413.2
	c-1.2-0.8-1.2-4.4,0-4.4c1,0,3.3,2.1,3.3,3C51.4,413.1,49.2,414,48.1,413.2z M38.6,412.4c-1-0.7-1.5-2.2-1-3.1
	c0.4-0.8,0.5-0.8,2.1-0.2c2.1,0.9,2.4,1.2,2.1,2.5c-0.2,0.9-0.5,1.1-1.5,1.1C39.6,412.7,38.8,412.5,38.6,412.4z M25,402.8
	c-1-1-1.1-2.7-0.2-3.6s1.5-0.9,2.7,0c1.3,0.9,1.3,3.4,0.1,4.1C26.5,403.8,26,403.8,25,402.8z M34.7,400c-0.7-0.5-0.8-0.8-0.4-1.8
	c0.6-1.8,1.6-2.2,3-1.3c1.8,1.2,1.3,3.7-0.8,3.7C36,400.6,35.2,400.4,34.7,400z M21.2,389.8c-0.7-0.7-0.7-1.7,0.2-2.8
	c0.9-1.2,2-1.2,3.1,0s1.2,1.7,0.1,2.6C23.8,390.4,22,390.5,21.2,389.8z M30.1,384.6c-1-0.6-1-2.7,0.1-3.6c1.7-1.5,3.7,1.2,2.3,3.2
	C31.8,385.2,31.2,385.3,30.1,384.6z M225.9,456.1c1.6-0.6,5.5-2.3,8.7-3.9c3.1-1.6,6.8-3.2,8.3-3.7c3.4-1.1,7.7-1.1,12.8,0l3.9,0.9
	l1.9-2c3.5-3.8,7.5-14,6.4-16.7c-0.1-0.4-1.5-1.3-3-2.1c-1.5-0.7-3.4-1.9-4.2-2.5c-3.5-2.7-12.2-8.3-13.2-8.5
	c-2-0.5-5.2,0.1-8.6,1.7c-5,2.2-8.9,3-16,3c-5.5,0-6.4-0.1-9.8-1.1c-5.3-1.7-5.2-1.7-4.9,1.2c0.3,2.2,0.2,2.4-0.6,2.4
	c-1.9,0-4.8-4.1-4.8-7c0-0.8-3-2.9-8.6-5.8c-6.3-3.3-10.9-7.1-15.7-12.7c-6.1-7.1-6.8-7.8-8.5-8.5c-2.1-0.9-10.5-1.2-13.9-0.5
	c-1.5,0.3-4.2,0.7-6,0.9c-2.3,0.2-3.7,0.6-4.3,1.1c-0.7,0.6-5.3,7.9-5.9,9.4c-0.1,0.2,0.2,0.7,0.6,1.2c0.6,0.6,1.3,0.8,3.2,0.8
	c3.3,0,3.8-0.2,4.7-2.4c0.5-1.3,1.1-1.9,1.6-1.9c0.8,0,1.8,1.6,1.8,2.8c0,2,3.8,5.4,5.4,4.8c0.4-0.1,0.6-1.3,0.8-3.3
	c0.2-3,0.8-4.4,1.9-4.4c0.9,0,1.2,1.3,1.4,6.6l0.2,5.1l2.5,1.9c1.4,1,5.5,3.6,9.2,5.6c8.1,4.4,25.1,15.3,30.4,19.4
	c5.2,4,9.9,8.7,12.9,12.9c3,4.2,5,6.4,5.9,6.4C222.6,457.1,224.2,456.7,225.9,456.1z M244.4,443.7c-1.6-1.8-1.8-2.7-0.6-2.9
	c1-0.2,3.4,2.4,3.4,3.6C247.2,446,246.2,445.7,244.4,443.7z M252.9,443.1c-1.8-1.5-3.5-4.8-2.9-5.7c0.7-1.2,1.4-1.1,2.6,0.2
	c1.6,1.7,3.6,5.3,3.3,6C255.6,444.5,254.3,444.3,252.9,443.1z M210.9,439.4c-1.4-2-1.5-3.1-0.3-3.3c0.9-0.2,2.3,1,3.2,2.7
	C215.3,441.6,212.9,442.1,210.9,439.4z M221,436.3c-3-3.3-4.3-6.7-2.5-6.7s5.5,4.8,5.5,7.2C223.9,438.7,223.1,438.6,221,436.3z
	 M258,435.5c-2.4-3.1-3.6-5.4-3.2-6.7c0.4-1.7,1.4-1.2,3.7,1.9s3.3,5.3,2.9,6.4C260.8,438.3,259.7,437.7,258,435.5z M228,433.7
	c-2-3.5-2.5-5.3-1.3-5.8c1.5-0.6,4.1,3.4,4.1,6.2C230.8,436.3,229.4,436.1,228,433.7z M238.1,432.7c-1.8-2.2-2.7-4.4-2.3-6
	c0.6-2.2,3.1-0.4,4.1,2.9C240.8,432.5,239.6,434.5,238.1,432.7z M244.4,427.7c-0.8-1.1-0.9-3.4-0.2-3.4c0.6,0,2.1,2.6,2.1,3.6
	C246.3,429,245.2,428.9,244.4,427.7z M189.3,425.4c-2.1-1.1-2.7-3.2-1-3.2c1.3,0,3.3,1.9,3.1,2.9
	C191.3,426.1,190.7,426.1,189.3,425.4z M196,423.3c-3-3-2.1-4.9,1.2-2.6c2.1,1.4,3.2,2.9,2.8,3.8C199.6,425.8,197.9,425.3,196,423.3
	z M168,409.2c-0.4-0.8-0.8-2.4-0.9-3.7c-0.2-2.2-0.2-2.3,0.7-2.3c1.4,0,2.3,1.8,2.4,4.6c0,2-0.1,2.5-0.7,2.6
	C169,410.5,168.5,410.1,168,409.2z M176.5,407.9c-2.2-3.1-2.2-6.3,0.1-5.1c1,0.6,3,4.5,2.9,5.7C179.2,410.1,177.9,409.9,176.5,407.9
	z M272.1,455.7c0.5-0.3,2-1.9,3.2-3.7c5-7.3,6-8.1,13.8-11.4c2.5-1.1,5.6-2.6,6.9-3.5c8.4-5.6,16.7-16.4,18.2-23.7
	c0.7-3.4,0.5-3.9-1.6-5.9l-1.7-1.6l2.1-1.7c6.5-5.2,9-8.4,9.5-11.9c0.5-3.8-2.3-6.8-5.7-6.2c-2.6,0.5-6.2,4.4-6.8,7.4
	c-0.2,1.1-0.1,1.6,0.8,2.7c1.5,1.8,1.4,2.5-0.6,3.3c-0.9,0.4-2.1,1.2-2.5,1.8c-1.3,1.7-2.5,1.4-3.2-0.7c-0.7-2.3-1.8-2.7-6.1-2.4
	c-4.3,0.3-6,1.2-10.3,5.3c-7.7,7.3-14.5,20.7-17.7,34.7c-0.6,2.7-1.5,4.6-4.1,8.9c-1,1.7-1.9,3.5-1.9,4.1c0,1.1,2.5,4.1,4.2,4.9
	C269.7,456.6,270.3,456.6,272.1,455.7z M275.8,441.5c-1.2-1.2-0.3-3.4,1.5-3.4c1.1,0,2,2,1.4,3.2
	C278.1,442.2,276.5,442.3,275.8,441.5z M292.3,432.6c-1-1.1-0.6-2.5,0.9-3.2c0.9-0.4,1.2-0.3,2,0.5c0.9,0.9,0.9,1,0.3,2.1
	C294.7,433.5,293.3,433.7,292.3,432.6z M279.4,426.1c-0.9-1-0.6-2.4,0.6-3c1.8-1,3.2,1,2,2.8C281.1,427.2,280.4,427.2,279.4,426.1z
	 M290,424.2c-0.7-0.3-1-0.8-0.9-1.6c0.1-0.9,0.4-1.1,1.7-1.2c1.9-0.2,2.8,0.7,2.4,2.3C292.9,424.9,291.7,425.1,290,424.2z
	 M303.8,422.8c-0.6-1.6,1.8-3,2.8-1.7c0.4,0.5,0.4,0.9,0.1,1.5C306.2,423.7,304.2,423.8,303.8,422.8z M286.9,416.9
	c-1.8-1.9-0.8-3.9,1.7-3.7c1.2,0.1,1.5,0.3,1.6,1.3c0.1,1.3-0.4,2.2-1.7,2.9C288.1,417.7,287.6,417.6,286.9,416.9z M306.6,415.4
	c-1.8-0.5-1.4-4.1,0.5-4.9c1.5-0.6,2.3-0.2,3,1.7c0.4,1,0.3,1.4-0.4,2.3C308.8,415.7,308.2,415.8,306.6,415.4z M297,413.3
	c-1.5-1.5-0.6-3.3,1.5-3.1c1.2,0.1,1.5,0.3,1.6,1.3c0.1,0.8-0.2,1.4-0.9,1.8C298.1,414.2,297.9,414.2,297,413.3z M292.5,405.8
	c-1.3-2.5,1-5.1,3.3-3.7c1.3,0.9,1.4,2.4,0.1,3.6C294.5,406.9,293.1,406.9,292.5,405.8z M317,393c-0.6-0.2-0.8-0.7-0.8-2.3
	c0-1.9,0.1-2.2,1.1-2.6s1.2-0.4,2.2,0.6s1,1.2,0.6,2.5c-0.4,1.2-1.6,2.4-2.2,2.2C317.8,393.2,317.4,393.1,317,393z M211.4,452.4
	c0-0.7-5.4-6.5-9.9-10.6c-2.4-2.2-5.8-4.8-7.9-5.9c-5.4-3.1-5.1-3.1-5.1,0.3c0,2-0.3,3.4-0.9,4.6c-2.2,4.4-8.4,4.6-10.1,0.4
	c-1.2-3-3-3.4-4.3-0.9c-1.6,3-0.2,7.1,2.8,8.5c3.7,1.7,6,2,14.3,1.6c11-0.5,13-0.4,17,1.1C211.3,452.9,211.4,452.9,211.4,452.4z
	 M109.4,446.3c0.7-0.7,2.5-2.2,4.1-3.3s2.9-2,3-2.1s-0.1-0.5-0.5-0.9c-1.1-1.2-1.3-2.7-0.8-4.6c0.6-2.1,1.9-3.2,2.8-2.4
	c0.4,0.4,0.6,1.5,0.6,3.6c0,1.7,0.1,3.2,0.2,3.3c0.1,0.1,1.5,0,3.1-0.3s3.6-0.6,4.5-0.6c2.2,0,3.8-1.4,4.1-3.5
	c0.3-1.8,1.2-3,1.9-2.3c0.2,0.2,0.7,1.2,1,2.1c0.7,1.9,1.4,2.3,5.4,2.5l2.4,0.1v-2.8c0-3,0.3-3.9,1.2-3.9s1.8,1.3,3.9,5.5l1.9,3.9
	l4.1,1.8c2.3,1,4.7,1.8,5.4,1.8c1.1,0,1.3-0.2,1.7-1.8c1.4-5.3,2.5-7.6,5.6-10.8c2.3-2.4,4.6-3.9,7.4-4.6c1.1-0.3,2.3-0.7,2.7-0.9
	c0.8-0.4,0.8-0.5,0-1.3c-0.4-0.5-1.8-1.5-3.2-2.3c-8.6-5.1-10.8-6.5-13-8.3c-6.3-5.2-6.9-5.4-16.5-6.6c-4-0.5-5.9-1.8-7.5-4.9
	c-0.6-1.1-1.8-2.9-2.8-4.1c-1-1.1-2.9-3.5-4.3-5.3c-3.6-4.7-6.8-7.6-10.2-9.1c-3.1-1.4-3.3-1.6-5.6-5.1c-1.5-2.3-2.6-3.2-4-3.2
	c-1,0-5.8,4.6-7.9,7.5c-0.8,1.2-3.2,3.4-5.3,5.1c-2.1,1.6-5.6,4.6-7.8,6.6c-2.2,2-6.2,5.1-8.9,7c-2.7,1.9-6.3,4.3-8,5.5
	c-1.7,1.1-4.6,3.5-6.5,5.2l-3.4,3.2l0.1,2.1c0.1,2.3,1.2,7.1,1.8,7.7c0.8,0.8,2.9-0.3,5.7-3.2c2.9-3.1,3.2-3.2,4.3-2.6
	c0.5,0.3,0.5,0.7,0.1,2.6c-0.3,1.2-0.4,2.4-0.2,2.6c0.5,0.5,5,1.7,6.1,1.7c0.5,0,1.3-0.6,1.8-1.3c2-2.6,3.3-2.2,3.5,1.2
	c0.1,2.4,0.1,2.4,2.6,4.1l2.5,1.7l1.7-1.6c3-2.7,4-1.9,2.9,2.5c-1.1,4.3-1,5,1.1,7c2.4,2.3,5.3,4.2,8.7,5.8
	C106.7,448,107.8,448,109.4,446.3z M101.5,441.8c-0.4-1,0.2-5.7,0.9-7c0.8-1.5,1.9-2,2.8-1.1c0.6,0.6,0.6,1.1,0.2,3.9
	c-0.5,3.4-1.4,4.9-2.8,4.9C102.2,442.5,101.7,442.2,101.5,441.8z M155.7,437.8c-1.3-1.4-2.6-4.8-2.4-6.2c0.2-1.7,1.8-1.6,3.2,0.2
	C159.5,436,158.9,441.3,155.7,437.8z M110.5,427.3c-0.7-0.9-1.5-8.8-0.9-9.8c0.6-1.1,1.8-1.1,2.8,0s1.5,7.9,0.7,9.4
	C112.5,427.9,111.2,428.1,110.5,427.3z M121.9,426.9c-0.5-0.6-0.9-1.8-1-3.5c-0.2-3.3,0.1-4.7,1.2-4.7c1.5,0,2.3,1.9,2.3,5.5
	c0,3.1,0,3.3-0.8,3.5C123.1,427.8,122.3,427.4,121.9,426.9z M133.3,427.2c-0.9-0.7-1.9-2.7-2.5-5.2c-0.6-2.3-0.4-3.5,0.6-3.9
	c1.2-0.4,1.8,0.2,3.1,3.1c1.5,3.4,1.9,4.9,1.6,5.9C135.8,427.9,134.2,428,133.3,427.2z M145.6,426.6c-1.4-0.3-3.3-2.3-4.4-4.8
	c-1.5-3.5-1.3-4.7,0.8-4.2c1.4,0.3,6.4,6.2,6.3,7.3C148.2,426,146.8,426.9,145.6,426.6z M156.1,424.2c-1.9-1.6-5.5-6.8-5.5-7.9
	c0-1.2,1.6-1.9,2.7-1.2c1.3,0.7,6.8,8.1,6.6,9C159.8,425.4,157.6,425.5,156.1,424.2z M99.5,423.5c-0.6-1.8,1.4-7.2,2.5-6.8
	c1.5,0.5,0.3,7.3-1.3,7.6C100,424.4,99.6,424.1,99.5,423.5z M89.6,420.6c-1-1,0.4-4.5,2.2-5.3c1.2-0.6,1.7,0.2,1.3,2.1
	C92.5,420,90.7,421.7,89.6,420.6z M79.8,416c0-0.8,2.8-4.4,3.7-4.8c2.1-0.8,2,0.9-0.1,3.4C81.9,416.6,79.8,417.3,79.8,416z M121,410
	c-1.2-2.8-2-6.4-1.8-7.4c0.3-1.1,1.8-1.8,2.5-1.2c0.5,0.5,2.5,7.3,2.5,8.5c0,0.9-0.7,1.5-2,1.5C121.9,411.4,121.4,410.8,121,410z
	 M72.7,410.4c-0.4-1,0.9-2.8,2.2-3.1c2.4-0.6,3.2,0.9,1.2,2.3C74.2,410.9,73,411.2,72.7,410.4z M112.5,409.4
	c-0.7-0.8-1.6-4.9-1.6-7.1c0-1.6,1.5-2.5,2.5-1.5c0.9,0.8,1.8,4.2,1.8,6.7c0,1.2-0.2,1.8-0.8,2.1
	C113.3,410.2,113.3,410.2,112.5,409.4z M130.1,409.2c-1.1-1.6-2.4-5.5-2.4-6.8s0.8-1.9,1.9-1.5c0.8,0.3,3.8,7.2,3.6,8.2
	C133,410.3,130.9,410.4,130.1,409.2z M99.9,407.9c-0.5-0.7,0.1-2.4,2.1-5.8c1.9-3.3,3-4,4.2-2.5c0.9,1.1-0.2,5.1-2,7.1
	C102.6,408.4,100.5,409,99.9,407.9z M93.3,404c-1.1-1.1-0.5-2.4,1.7-4.4c2.6-2.2,4.3-2.5,4.6-0.8c0.2,1.3-2.3,4.7-4,5.2
	C94,404.6,93.9,404.6,93.3,404z M85.3,402.1c-0.2-0.2-0.3-0.9-0.3-1.7c0-2.5,4.4-5.5,6.9-4.7c1.3,0.4,1.1,1.3-0.9,3.5
	C88.6,401.8,86.2,403,85.3,402.1z M342.3,432.6c5.3-5.1,8.3-7,17.1-10.6c10.1-4.2,15.4-6.6,17.9-8.2c4.3-2.8,9-8.7,8.2-10.1
	c-0.1-0.2-1.2-0.9-2.4-1.5c-1.3-0.7-2.3-1.5-2.6-2.2c-0.2-0.6-0.4-3-0.4-5.3s-0.2-4.4-0.3-4.7c-0.6-1-3.4-1.8-7.4-2.1
	c-3.9-0.3-4.3-0.2-9.4,1.3c-6.3,1.9-10.1,3.5-13.1,5.7s-7.4,6.4-9.1,8.8c-4.6,6.2-9,19.2-9.6,28.1c-0.3,4.2-0.2,4.3,2.7,4.7
	C337.7,437.1,337.6,437.2,342.3,432.6z M338.3,426.2c-0.6-0.2-0.7-1.8-0.3-2.9c0.4-1.1,3.5-0.9,4.1,0.2
	C343.1,425.4,340.7,427.2,338.3,426.2z M348.2,418.2c-0.3-0.3-0.5-1.3-0.5-2.2c0-1.7,0-1.7,1.4-1.4c1.4,0.3,2.9,1.3,2.9,2
	s-1.7,2.1-2.5,2.1C349.1,418.7,348.5,418.5,348.2,418.2z M362.3,414.2c-0.6-0.6-0.6-0.8,0-2.1c0.6-1.3,0.8-1.4,2.2-1
	c0.9,0.2,1.8,0.7,2.1,1.1c0.5,0.7,0.4,0.9-0.6,1.7C364.7,415,363.3,415.1,362.3,414.2z M342.4,410.5c-0.8-0.5-1-1.8-0.3-3
	c0.3-0.6,0.9-0.8,1.9-0.8c2.6,0,3.3,1.9,1.3,3.4C344,411.1,343.5,411.2,342.4,410.5z M371.2,408.2c-0.8-0.6-0.8-0.7-0.1-2.2
	c0.6-1.2,1-1.6,2-1.6c1.5,0,2.3,0.7,2.3,2.3c0,0.9-0.3,1.3-1.1,1.6C372.7,409,372.2,408.9,371.2,408.2z M359.3,405.7
	c-0.5-0.7-0.5-1.3-0.2-2.2c0.4-1.1,0.6-1.2,2.6-1.1s2.2,0.2,2.3,1.4C364.3,406.4,360.6,407.9,359.3,405.7z M366.8,399.2
	c-1.1-0.5-1.1-0.7-0.5-2.2c0.3-0.9,0.7-1.1,1.9-1.1c3,0,3.6,1,1.8,2.8C368.8,399.9,368.3,399.9,366.8,399.2z M356.8,398.4
	c-0.8-0.8-0.6-2.4,0.3-3.4c1.2-1.2,2.5-1.1,3.2,0.4c0.9,1.8,0.8,2.4-0.4,3C358.6,399,357.5,399,356.8,398.4z M65.4,406.4
	c3.1-2.3,8.2-5.9,11.3-8s5.8-4.3,6-4.7c0.4-1.2-0.1-2.2-1.6-3.2c-0.8-0.5-2.3-2.4-3.6-4.4c-2-3.2-5.5-7.4-6.3-7.4
	c-0.1,0-0.4,0.7-0.7,1.6c-0.6,2.6-2.6,3.6-6.7,3.6h-3.4l-1.7,2.3c-0.9,1.2-2.7,4-4,6c-2.2,3.6-2.3,3.8-1.6,4.7
	c2.2,3,2.1,2.9,1.7,4.5c-0.4,1.3-0.3,2,0.6,4.4c1.4,3.7,2.1,4.8,3.3,4.8C59.4,410.5,62.2,408.8,65.4,406.4z M65.6,395.6
	c-0.8-0.9-1.1-5.4-0.4-6.6c0.7-1.3,2.5-1.2,3.1,0.2c0.6,1.5,0.5,5.2,0,6.3C67.6,396.5,66.3,396.6,65.6,395.6z M73.6,394.5
	c-1.6-1.6-2.4-4.6-1.5-5.7c1-1.2,2.4-0.8,3.1,1c0.9,2.3,1.3,4.3,1,5.3C75.8,396.2,75.2,396.1,73.6,394.5z M57.8,394.5
	c-0.2-2,0.8-4.9,1.9-5.9c0.8-0.7,2-0.5,2.5,0.4c0.6,0.9-0.3,4.1-1.4,5.2C59.9,395.1,57.9,395.3,57.8,394.5z M402,398.3
	c15.3-0.6,27.7-6.3,31.7-14.4c1.3-2.6,1.4-3.3,1.4-6.8c0-4.7-0.2-5-4.1-6.8c-3.7-1.7-8.2-1.9-11.2-0.4c-1.9,0.9-7,5.3-16.4,13.9
	c-2.5,2.3-6,5.1-7.8,6.3c-3.1,2-3.4,2.1-7.3,2.4c-3.5,0.3-4.2,0.5-4.9,1.3c-1.6,1.9-0.6,4.5,1.8,4.8
	C386.6,398.7,394.4,398.6,402,398.3z M400.4,393.1c-0.8-1,0.5-3.1,2.1-3.4c0.7-0.1,1.6-0.1,2,0c0.8,0.3,0.9,2.8,0.1,3.5
	C403.8,393.9,401,393.9,400.4,393.1z M408.6,392.3c-0.7-0.7-0.7-3.3,0.1-3.6c1-0.4,2.8,0.6,3.1,1.6c0.2,0.7,0.1,1.2-0.7,1.8
	C410,393,409.3,393.1,408.6,392.3z M421,388.4c-1.3-0.7-1.6-1.8-0.7-3.2c0.6-0.9,1-1.1,2.5-0.9c1.7,0.1,1.8,0.2,1.9,1.5
	c0.1,1-0.1,1.6-1,2.3C422.5,389.1,422.4,389.1,421,388.4z M411.6,383.6c-0.3-0.4-0.4-0.9-0.1-1.7c0.7-1.9,3.9-1.4,3.9,0.7
	C415.4,384,412.6,384.8,411.6,383.6z M428.2,379.2c-1.3-0.3-1.6-0.8-1.3-2.2c0.4-1.8,1.6-2.4,3.2-1.6
	C432.7,376.7,431.1,379.8,428.2,379.2z M418.3,377.6c-1.1-0.8-0.7-2.5,0.7-3.3c1.1-0.6,1.2-0.6,2.3,0.4c1.3,1.2,1.4,2.4,0.3,3
	C420.4,378.4,419.2,378.3,418.3,377.6z M51.4,389.7c0.5-0.5,2.3-3,4.1-5.5c1.7-2.5,3.6-4.9,4.1-5.4c1.1-1,2.2-2.9,2.2-3.8
	c0-1.2-1.3-2-3.4-2c-1.9,0-14.7,3.9-15.9,4.8c-1.1,0.9,2,5.8,4.6,7.2c1.4,0.7,2.2,1.7,2.2,2.7c0,0.9,0.7,3,1.1,3
	C50.4,390.7,50.9,390.3,51.4,389.7z M67,376.9c1.4-6.4,1.4-8.2,0.2-9.9c-1.6-2.4-3.5-3.1-7-2.9c-4.9,0.3-8.7,1.8-10.9,4
	c-1.7,1.8-2.3,3.2-1.4,3.2c0.2,0,2.3-0.5,4.6-1.1c5.2-1.4,9.1-1.4,10.7-0.2c1.9,1.5,2.6,5.5,1.4,8.4c-0.8,1.8-0.5,2.5,0.8,2.3
	C66.1,380.6,66.3,380,67,376.9z M406.8,375.7c0.3-0.6,0.2-1.5-0.4-3.3c-1.3-3.9-1.9-4.3-5.1-3c-1.7,0.7-3.9,3.3-3.4,4.1
	c0.2,0.2,1.3,0.7,2.5,1.1s2.7,0.9,3.3,1.3C405.3,376.7,406.3,376.6,406.8,375.7z M17.8,372c0.2-0.3,0.3-1.5,0.3-2.8
	c0-2-0.1-2.3-1-2.7c-1.9-0.7-6.7,1-6.7,2.3c0,0.7,3,3.6,4.3,4.1C15.8,373.4,17.2,372.9,17.8,372z M43.3,373.1
	c1.6-0.3,1.9-1.2,0.5-1.5c-1.4-0.4-1.6-1.1-0.7-3.1c0.7-1.6,0.7-1.8-0.1-3.6c-0.5-1.1-0.9-2-1-2.1s-1,0.4-1.9,1
	c-1.9,1.3-1.7,1.9,0.4,2c0.9,0,1,0.1,0.7,1.2c-0.2,0.7-0.4,1.9-0.6,2.7c-0.3,1.4-0.4,1.5-1.9,1.5c-1.4,0-1.5,0-1.2,0.7
	C38.4,373.3,40.2,373.7,43.3,373.1z M437.5,364.1c1.8-0.9,2.3-2.2,1.4-3.3c-0.9-1-4.9-3.1-6.7-3.5c-1.8-0.4-2.6,0.7-2.3,3.1
	c0.4,2.8,0.4,3,2,4C433.5,365.4,435.3,365.3,437.5,364.1z M208.9,395.5c-16.6-8.2-29.8-17.8-43.2-31.5c-6.7-6.8-12.7-14.1-18.1-22.2
	c-2.8-4.2-9.5-15.6-12-20.7c-3.7-7.3-8.4-22.2-10.6-33.3c-2.7-13.6-2.8-18.8-2.5-86.6c0.3-52.1,0.4-59.5,0.9-59.9
	c0.4-0.3,31.4-0.4,100.1-0.2c87.6,0.2,99.5,0.3,100.1,0.9c0.6,0.6,0.6,6.7,0.5,51.2c-0.2,68.5-0.7,81.9-3.5,94
	c-2.3,9.7-4.3,14.8-11.8,29.3c-5.2,10.1-9.1,16.4-17.1,27.2c-4.3,5.9-19.5,21.2-27.5,27.9c-11,9.1-14.3,11.6-22.1,16.5
	c-8.3,5.3-20.1,11.5-22.3,11.9C218.8,400.2,216.7,399.3,208.9,395.5z M226.8,393.4c8.1-4.2,13.7-7.6,22.1-13.6
	c9.8-7,15.6-12,25-21.4c20.1-20.3,30.8-36,39.1-57.1c4.8-12.3,6.7-19.1,7.6-26.8c0.8-7.1,1.3-46.6,1.2-88.5
	c-0.1-36.7-0.2-41.6-0.8-42.2c-0.6-0.6-11.2-0.7-97.5-0.9l-96.9-0.3l-0.5,0.9c-0.4,0.7-0.5,17.9-0.4,67.3l0.1,66.3l1,5.2
	c1.8,9.5,3.5,15.7,7.4,27.2c6.4,18.6,19.5,39.1,34.8,54.4c6.1,6.1,10.4,9.7,17.6,14.9c13.5,9.7,22.1,14.7,28.3,16.7
	c1.5,0.5,3.1,1,3.5,1.1C219.7,396.9,220.6,396.6,226.8,393.4z M216.6,392.4c-2.5-0.7-4.9-1.5-5.5-1.9c-1.3-0.9-2.7-3.1-2.7-4.4
	c0-1.2,1.4-3.9,2.5-5c0.9-0.8,0.9-0.8-0.4-4.3c-1.4-3.9-1.3-5.3,0.3-5.7c2.3-0.6,3.6,1,4.9,6.1c0.6,2.5,1.5,3.6,2.5,3
	c1.1-0.6,1.2-2,0.4-4.2c-1-3-0.5-3.2,3.8-1.8c2,0.7,3.8,1.4,3.9,1.6c0.1,0.2,0,1.2-0.4,2.2s-1.1,4.1-1.6,6.9
	c-0.8,4.5-0.8,5.2-0.3,6.5C225.2,394.1,223.6,394.3,216.6,392.4z M217.6,387.9c1.1-3-1.3-5.5-2.9-3.1c-0.9,1.2-0.8,1.3,0.2,2.6
	C215.9,388.7,217.2,388.9,217.6,387.9z M239.4,376.2c-4.9-2.7-7.1-3.6-8.3-3.6c-3.2,0-2.7-1.1,2.4-4.8c4.1-3,4.9-3.2,5.3-0.8
	c0.5,2.9,1,2.9,4.7,0.3c1.8-1.3,3.7-2.8,4.2-3.4c0.8-1.1,0.8-1.2,0.1-2.5c-0.9-1.7-0.6-2.5,1.5-4.3c2.5-2.1,3.7-1.2,2.6,1.8
	c-0.5,1.4-1.6,7.6-2.4,13.9c-0.6,5.2-1.4,7.1-2.7,7.1C246.5,379.9,243.1,378.2,239.4,376.2z M246.8,372.4c0.2-0.6,0.5-1.6,0.7-2.2
	c0.2-1,0.1-1.1-1.3-1.1c-3.2,0-3.3,4-0.2,4.3C246.2,373.4,246.5,373,246.8,372.4z M188,378.7c-1.1-0.2-1-2.1,0.5-9.2
	c0.7-3.4,1.3-7.2,1.3-8.6s0.2-2.6,0.4-2.8c0.6-0.4,3.9,1.3,5.4,2.8c1.2,1.3,1.2,1.3,0.5,2.8c-1,2.1-0.6,3.1,1.8,4.6
	c2.6,1.6,3.8,1.6,4.6,0c0.8-1.5,1.5-1.6,4-0.4c3,1.4,2.4,2.5-1.9,3.6c-4.1,1.1-9.5,3.5-11.6,5.2C191,378.3,189.3,379,188,378.7z
	 M197.2,371.5c0.3-0.2,0.2-0.6-0.5-1.3c-1.1-1.1-2.1-1.3-2.9-0.5c-0.7,0.7-0.7,2.4,0,2.6C194.4,372.5,196.3,372,197.2,371.5z
	 M214.1,370.3c-8.2-3.6-16.8-9.8-26.8-19.2c-9.3-8.7-11.8-11.5-16.3-18c-4.6-6.6-6.6-9.9-10.7-18.1c-6.1-12.1-8.9-19.9-10.9-30
	l-1.1-5.8l0.3-50.7c0.3-57,0.4-61.4,1.6-62.6c0.8-0.8,3.1-0.8,71.2-0.8c38.7,0,71.8,0.2,73.4,0.3c5,0.4,4.7-2.3,4.1,34.9
	c-0.8,50.6-1.3,75.1-1.8,79.7c-0.8,7.9-2.3,12.9-6.6,21.4c-3.4,6.8-9.9,17.3-14.3,23c-6.5,8.4-18.4,21.2-26.7,28.6
	c-5.5,4.9-13.3,10.5-18.9,13.4c-5.7,3-11.1,5.2-12.4,5.2C217.7,371.7,215.8,371,214.1,370.3z M224.9,366.4
	c5.6-2.8,11.5-6.3,15.6-9.3c1.2-0.9,3.7-2.7,5.6-4.2c4-3,15.3-13.9,19.6-19c6.8-8.1,16.1-21.1,20-28c9.4-16.9,9.4-17,10.2-76.8
	c0.6-44.7,0.6-59.5-0.1-60.1c-0.6-0.5-126.1-1.3-128.2-0.8l-1.2,0.3l1,1.1c1.6,1.7,3.4,2.6,5.7,2.9c1.5,0.2,2.5,0.7,3.6,1.6
	c0.8,0.7,2.2,1.7,3.2,2.2c2.6,1.3,3,2.3,2.5,5.6c-0.2,1.5-0.3,3.6-0.2,4.6c0.7,4.6,6.3,8.4,9.9,6.6c0.5-0.3,2-1.5,3.2-2.7
	c2.1-2.1,2.4-2.2,4.5-2.2h2.3l-0.1,3.2c-0.1,1.8-0.4,4.4-0.8,5.8c-0.8,3.2-0.5,3.6,3.4,4c1.6,0.1,3.1,0.5,3.3,0.7
	c0.2,0.3,0.6,1.7,0.9,3.3c1,5.4,2,6.3,6.7,5.9c3.1-0.3,3.1-0.3,4.9,1.2c1,0.8,1.9,1.5,2.1,1.5c0.2,0,1.9-0.7,3.9-1.5s4-1.5,4.4-1.5
	s1.6,0.5,2.7,1.1c2.5,1.3,10.9,3.3,14.2,3.3c2.4,0,2.6,0.1,5,2.3c1.3,1.3,3.4,3,4.6,3.8s3.5,2.4,5.2,3.5c3.3,2.2,3.8,3,4.3,6.3
	c0.5,3.9,1.7,4.8,6.4,5.4c2.3,0.3,3.5,0.7,5.4,1.8c3.8,2.3,12.5,9.5,13,10.7c0.3,0.6,0.6,2.5,0.7,4.3c0.2,3.5,0.3,3.4-4.1,12.4
	c-1.4,2.9-1.5,3.4-1.3,6c0.4,4.9-0.9,10-3,11.8c-0.4,0.4-2.9,1.4-5.5,2.4c-5.7,2.1-7,3.1-11,8.9c-2.9,4.3-4.8,6.1-8.8,8.5
	c-0.9,0.5-2.5,2.1-3.5,3.4s-3.5,3.9-5.4,5.6l-3.5,3.2l-2.6-0.1c-1.4-0.1-2.5,0.1-2.4,0.3c0.1,0.2,0.4,0.9,0.8,1.6
	c0.6,1.2,0.6,1.3-2.3,4.1c-3.4,3.4-3.4,3.4-4.1,6.4c-0.4,1.5-1.2,3-2.7,4.9c-1.2,1.5-2.5,3.5-3,4.5c-0.8,1.9-1.9,10.5-1.5,12.1
	c0.4,1.5-1,5-2.1,5.5c-2.3,1.1-7.6-2.6-9.4-6.6c-0.7-1.6-0.9-3.3-1.2-10.4c-0.3-8-0.3-8.6,0.7-11.6c1.4-4.4,1.9-8.2,1.9-12.5
	c0-3.2,0.2-4.4,2-9.9c1.6-5.1,2.1-7.4,2.6-12.1c0.5-5.4,1.4-9.2,3-13.6c1-2.8,0.9-3.5-1.2-4.8c-2.3-1.4-5-3.9-5.7-5.4
	c-0.3-0.6-1-2.7-1.5-4.6c-1.3-5-3.6-10.9-5.4-13.8l-1.6-2.4l0.5-3.9c0.6-5.4,1.5-8.3,3.2-10.4c2.2-2.8,5.4-9.7,5.4-11.9
	c0-0.4-0.9-1.7-2-2.9c-1.9-2.2-2.1-2.3-5.2-2.8c-2.9-0.5-3.5-0.8-5.3-2.3c-3-2.7-6.5-4.8-9.4-5.6c-4.5-1.3-5.7-1.9-6.8-3.6
	c-0.6-0.9-1.8-2-2.7-2.4c-1.5-0.7-1.9-0.7-4.5-0.2c-3.4,0.6-4.4,0.5-8.9-1.3c-4-1.6-4.5-2.1-7.9-7.1c-2.3-3.5-2.9-4.8-4.7-10.8
	c-2-6.7-3-9.3-3.9-9.8c-1.1-0.7-0.8,1.3,1,6.3c2.5,7,3.2,10.1,2.5,10.9c-0.8,1-1.6,0.4-3.7-2.6c-1.5-2.2-1.9-3.1-1.9-4.5
	c0-2-0.6-3.7-2.4-6.5c-2.4-3.9-2.4-5.4-2.4,51.1c0,55.7-0.1,54.1,2.4,63.8c2.4,9.7,9.9,26.8,15.4,35.3c5.6,8.7,11.2,15.6,18.7,22.8
	c5.7,5.5,9.1,8.2,16.8,13.2c5.2,3.4,12.8,7.5,14,7.5C219,369.1,221.8,367.9,224.9,366.4z M270.1,234.3c-0.7-0.3-1.4-2.1-1.1-2.9
	c0.3-0.9,1.6-0.8,2.5,0.1c0.8,0.9,0.9,1.9,0.2,2.6C271.1,234.6,271,234.6,270.1,234.3z M260.4,206.2c-0.9-1-0.9-1.7,0.1-2.2
	c1.4-0.7,2.6-0.5,3.8,0.7c1.1,1.1,1.1,1.2,0.3,1.7C263.5,207.2,261.3,207.1,260.4,206.2z M229.1,205.5c-1.4-0.7-1.6-1.4-0.5-2
	c1-0.5,2.9-0.2,4.2,0.7c0.9,0.6,0.9,0.6,0,1.3C231.7,206.2,230.5,206.2,229.1,205.5z M245.3,205.8c-2.3-0.3-2.7-0.8-1.3-1.7
	c0.9-0.6,1.1-1,0.9-1.7c-0.2-0.8,0.1-1,2.3-1.7c4.2-1.3,7.9-0.2,8.8,2.5c0.7,1.9-0.3,2.5-5,2.6C248.8,205.9,246.2,205.9,245.3,205.8
	z M230.6,201.5c-0.5-0.1-1.3-0.3-1.8-0.4c-1.2-0.3-1.3-1.5-0.1-1.8c0.5-0.1,0.8-0.4,0.7-0.7c-0.2-0.7-5.3-2.7-12-4.6
	c-3.2-0.9-6.1-2-6.5-2.4c-1.7-1.7,1.7-3.1,7.5-3.2c4.2,0,6,0.7,10.1,4c1.6,1.3,4.1,3,5.7,3.9c1.6,0.9,3.3,2.1,3.9,2.7
	c1,1,1,1.1,0.3,1.8c-0.5,0.5-1.6,0.8-3.9,0.8C232.9,201.7,231.1,201.6,230.6,201.5z M269.3,358.2c-0.5-0.5-1.8-2.3-2.9-3.9
	c-1.2-1.6-2.4-3-2.9-3.2c-1-0.3-2.8,0.9-5,3.5c-0.9,1.1-1.8,1.9-2,1.9c-0.4,0-1.9-1.9-1.9-2.4c0-0.6,7.7-8.2,9.9-9.9
	c0.8-0.6,1.7-1.1,2-1.1s1,1.1,1.7,2.3c0.8,1.5,2.3,3.4,4.4,5.4l3.3,3l-0.9,1.3c-0.8,1.1-2.7,2.8-4.1,3.6
	C270.4,359.1,269.8,358.8,269.3,358.2z M164.5,356.3c-2.6-2.3-8.3-9.2-8.3-10.1c0-1.4,0.8-2.5,2.2-3.2c1.3-0.7,1.4-0.7,1.9,0.1
	c0.3,0.4,0.6,1.6,0.6,2.6c0,1.8,0.8,3.2,1.9,3.2c0.7,0,3.2-2.1,3.2-2.7c0-0.3-0.5-1-1.2-1.7c-1.3-1.3-1.1-2.1,0.6-3.3
	c0.9-0.6,1-0.5,1.9,0.9c1,1.7,1.5,1.9,2.9,0.9c1.6-1.1,1.1-2.8-1.1-4c-1-0.6-1.8-1.3-1.8-1.5c0-0.7,1.8-2.4,2.5-2.4
	c0.3,0,1.2,0.9,2.1,2c0.9,1.1,2.7,3.3,4,4.9c4.6,5.3,4.8,6,2,6c-1.5,0-2.4,0.4-4.3,1.6c-3.7,2.5-6,4.8-6.4,6.4
	C166.8,357.8,166.3,357.9,164.5,356.3z M278.4,347.2c-0.7-0.5-1.5-1-1.6-1.3s-1.6-0.9-3.3-1.3c-1.9-0.6-3.2-1.2-3.6-1.8
	c-1-1.5-0.8-4.1,0.5-6.7c1.7-3.2,6.9-9.6,7.8-9.6c0.7,0,3.3,1.7,8.8,5.7c1.5,1.1,3.2,2.1,3.8,2.2c0.7,0.1,1.1,0.4,1.1,0.9
	c0,0.8-8,10.7-9.6,12.1C280.9,348.2,280.1,348.2,278.4,347.2z M283.8,341.7c1.7-1.4,2.1-2.6,1.1-3.7c-1.1-1.2-2.5-1-3.5,0.4
	c-1.5,2-1.6,3-0.5,3.7C282.2,343,282.3,343,283.8,341.7z M279.4,336l0.8-1.5l-1.2-1c-1.6-1.4-2.2-1.3-3.5,0.4
	c-1.4,1.8-1.4,3.5-0.2,4.3c0.8,0.6,1.1,0.6,2.1-0.1C278.1,337.8,279,336.8,279.4,336z M153.5,342.4c-0.6-0.5-1.9-2.1-2.9-3.5
	c-2.4-3.6-2.4-5,0-4.3c1.1,0.3,1.7,0.1,4.6-2c3.7-2.6,5.7-4.4,5.7-5c0-1-2-3-3.9-4c-2.4-1.2-2.6-2-0.7-3.3l1.2-0.9l1.6,1.5
	c0.9,0.8,3,3.4,4.7,5.7c4.2,5.5,4.6,7.2,1.9,7.2c-0.8,0-2.2,0.6-3.7,1.7c-4.1,2.8-5.7,4.4-6.1,6.1
	C155.4,343.3,154.9,343.5,153.5,342.4z M280.9,324l-1-0.7l1.1-1.8c1.8-2.9,5.3-7.4,6.1-7.8c0.5-0.3,0.9-0.1,1.4,0.5
	c1,1.3,1.5,1.2,2.4-0.4c0.8-1.5,0.6-1.9-1-1.9c-1.7,0-1.8-1.8-0.3-4.6c1.5-2.8,2.9-4.3,4-4.3c0.7,0,0.9,0.4,1,2.5
	c0.2,2.1,0.7,3.3,3.5,8.3c3.4,6,3.9,7.4,2.6,8.1c-0.4,0.2-4.1,0.6-8.3,0.9c-4.5,0.3-8.1,0.8-9,1.1
	C281.7,324.8,282.1,324.8,280.9,324z M295.5,317c0-0.8-1-2.2-1.7-2.2c-0.2,0-0.6,0.4-0.9,0.9c-0.5,0.8-0.5,1,0.2,1.5
	C294.3,318.1,295.5,317.9,295.5,317z M135.8,309.1c-0.4-0.5-1.4-2.8-2.2-5c-2.6-6.5-3.1-9.8-1.7-11.1c1-0.9,1.8-0.9,2.8-0.1
	c0.7,0.5,0.7,0.7,0.2,2.1c-0.5,1.3-0.5,1.8,0.2,3.5c0.7,1.9,1.1,2.2,2.4,2c1.5-0.2,1.7-0.9,0.8-2.6c-0.5-0.9-0.8-1.8-0.8-1.9
	c0-0.5,2.9-1.5,3.8-1.2c1,0.3,1.2,1,0.5,2.3c-0.6,1.2-0.1,2.2,1.2,2.2c3.5,0,3.7-3.1,0.5-6.8c-1-1.2-1.2-1.6-0.8-2.3
	c0.4-0.7,0.8-0.8,2.5-0.7c2,0.1,2,0.1,2.7,2.3c3.3,9.9,4.3,13.2,4,13.6c-0.4,0.6-1.2,0.5-3.4-0.4c-1.9-0.8-2-0.8-5.7,0
	c-2.1,0.5-4,1-4.3,1.3s-0.6,1.2-0.7,2.1C137.8,310.1,136.8,310.5,135.8,309.1z M306.8,305.4c-0.7-1.4-6.8-3.6-9.7-3.6h-2.5l0.3-1.7
	c0.3-2.1,2-6,3.1-7c0.7-0.7,0.8-0.7,2.2,0.6c1.2,1.1,1.5,1.3,2.3,0.9c1.1-0.6,1.6-2.4,1-3.5c-0.4-0.7-0.7-0.8-2.1-0.6
	c-1,0.2-1.8,0.1-1.9-0.2c-0.4-0.7,1.5-7.9,2.2-8.2c0.4-0.1,0.9,0.1,1.3,0.6c0.9,1.2,2.1,1.8,6,3c2.9,0.9,3.4,0.9,4.6,0.4
	c1.9-0.8,2.5-0.3,2.2,1.8c-0.4,2.4-2,6.6-2.7,6.9c-0.3,0.1-1.3-0.4-2.2-1.1c-0.9-0.7-1.9-1.3-2.1-1.3c-0.8,0-1.9,1.8-1.9,3.1
	c0,1,0.3,1.2,1.6,1.6c0.9,0.2,1.9,0.5,2.1,0.5c1.2,0,1.5,1.7,0.8,3.8C309.6,305.7,307.8,307.3,306.8,305.4z M140.8,283.5
	c-0.2-0.4,0.2-1.1,0.8-1.8c1.5-1.5,2-3.2,1.7-4.6c-0.8-2.9-3-2.3-5.2,1.4c-0.8,1.3-1.9,2.7-2.5,3.2c-1.3,1-3.6,1.1-5.3,0.1
	c-2.1-1.2-2.6-2.9-2.5-8.4l0.1-4.9l1.7-0.1c2.3-0.2,4.5,0.3,4.5,1c0,0.3-0.4,0.9-0.9,1.4c-1.2,1-2.1,2.9-2.1,4.1
	c0,1.6,1.4,0.8,3.4-2.2c1.7-2.5,2.3-2.9,4.3-3.6c3.1-1,4.8-0.7,6.3,1.2c1.7,2.2,2.1,4.1,1.5,7.7c-0.3,2.1-0.3,3.5-0.1,4.2
	c0.6,1.6-0.1,2.1-3.1,2.1C141.7,284.2,141,284,140.8,283.5z M301,270.1c-0.4-0.4-0.4-11,0-12c0.3-0.9,1-0.9,1.9,0
	c1,0.9,2.3,0.5,2.9-1c0.7-1.6,0.2-6.8-0.8-7.7c-0.6-0.6-1-0.6-1.7-0.2c-1.8,1-2.2,0.3-2.2-3.6c0-2.6,0.2-3.8,0.6-4.1
	c0.7-0.6,1.2,0.1,1.7,2.2c0.2,0.7,1.3,1.9,3.2,3.3c4.5,3.3,8.4,5.7,9.4,5.7c1.1,0,2.6,1.2,2.9,2.4c0.4,1.5-1.6,3.4-6.4,6
	c-7.5,4.1-8.9,5.2-9.8,7.3C302,270.3,301.6,270.7,301,270.1z M311.2,254.7c0.4-0.6,0.3-0.9-0.4-1.4c-1.3-1-2-0.8-2,0.6
	c0,0.7,0.1,1.4,0.3,1.5C309.7,255.9,310.7,255.5,311.2,254.7z M144.1,265.8c-1-1-1.2-1.1-6.7-1.1c-4.1,0-6.1,0.2-7.2,0.6
	c-0.8,0.4-1.6,0.5-1.7,0.3c-0.2-0.4-0.4-5.9-0.3-11.4c0.1-4.5,0.4-4.8,5.1-5.3c3.9-0.4,4.3,0,4.7,3.9c0.4,3.9,1.1,4.9,3.2,4.9
	c0.9,0,2.4-0.3,3.2-0.6c2-0.8,2.1-0.6,2.4,3.9c0.2,3.3-0.3,5.8-1.1,5.8C145.3,266.9,144.7,266.4,144.1,265.8z M135,257.3
	c1.3-1.3,0.2-3.5-1.9-4.1c-1.9-0.5-3.5,2.5-2.1,3.9C131.8,258,134.2,258.1,135,257.3z M127.9,245.6c-0.3-1.7-0.1-6.9,0.3-7.4
	c0.2-0.2,0.9-0.1,1.7,0.2c1.8,0.6,13,0.8,14.9,0.3s2.3,0.4,1.9,4.7l-0.3,3.5l-1.3-0.1c-2.7-0.3-12.6-0.3-14.8,0.1l-2.2,0.3
	L127.9,245.6z M317.3,240.5c-0.5-0.3-3.3-2.9-6.4-5.8c-3-3-5.7-5.3-6-5.2c-0.4,0.1-0.5,1.3-0.5,4.4l0.1,4.2h-1.2
	c-0.7,0-1.4-0.3-1.6-0.8c-0.2-0.4-0.5-4.9-0.6-9.9c-0.1-7.8-0.1-9.2,0.5-9.6c0.4-0.2,0.7-0.4,0.9-0.4c0.1,0,2.8,2.4,6,5.4
	c6.4,6,7.2,6.6,7.6,5.6c0.4-1.1-0.1-6-0.7-7.5c-0.5-1.2-0.5-1.5,0-1.8c0.9-0.6,2.3-0.5,3.2,0.2c0.7,0.5,0.8,1.4,0.8,10.5
	c0,8.3-0.1,10.1-0.6,10.6C318.3,240.8,318,240.9,317.3,240.5z M128.1,234c-0.7-2.6-0.3-16.1,0.5-17.7c1.6-3.3,6.5-3.2,9,0.1
	c0.5,0.7,1.2,1.3,1.5,1.3s1.7-0.6,3-1.3c1.5-0.8,2.9-1.3,3.6-1.2c1.1,0.1,1.2,0.3,1.3,2.4c0.1,1.2-0.1,2.6-0.3,3s-1.8,1.6-3.5,2.5
	c-3.5,1.9-4.7,3.3-3.9,4.3c0.7,0.9,4.5,0.9,5.2,0c0.9-1.1,2-0.8,2.3,0.7c0.5,2.4,0.3,6.2-0.3,7.1c-0.6,0.8-0.7,0.8-1.9,0.1
	c-1.7-1-13.2-1.1-14.5-0.1C128.9,236.1,128.6,236,128.1,234z M135.9,227.4c0.7-0.9,0.3-4.3-0.7-5.4c-1-1.1-2.6-1.1-3.7,0
	c-1.2,1.2-1.2,4.9-0.1,5.6C132.6,228.3,135.3,228.2,135.9,227.4z M301.2,209.7c0.1-3.5,0.4-6.1,0.7-6.3c0.4-0.4,0.8-0.3,1.8,0.3
	c2.1,1.2,2.6,0.5,2.6-4.1c0-2.9-0.2-4-0.7-4.5c-0.6-0.6-0.8-0.6-1.6,0c-1.4,1-2,0.1-2-2.7s0.3-4.4,0.9-4.4c0.2,0,0.8,0.7,1.3,1.5
	c1.1,1.9,8.9,7.4,11.1,7.8c2.1,0.4,3.9,1.7,3.9,2.9s-2.2,3.3-8,7.6c-2.3,1.7-5.5,4.2-7,5.4s-2.8,2.3-3,2.3S301.1,212.9,301.2,209.7z
	 M311.8,201.3c0.7-0.7-0.5-2.1-1.7-2.1c-0.6,0-0.8,0.3-0.8,1.3c0,1.1,0.2,1.3,1,1.3C310.8,201.8,311.5,201.5,311.8,201.3z
	 M128.2,212c-0.3-0.3-0.5-1.9-0.5-4.3c0-4.6,0.5-5.3,2.7-3.9c1.3,0.8,2.1,0.9,7.5,0.9c5.5,0,6.1-0.1,6.8-0.9
	c0.4-0.5,1.2-0.8,1.7-0.8c0.8,0.1,0.9,0.5,1,3.8c0.2,4.7-0.4,5.7-2.6,4.8c-0.8-0.3-4-0.7-7.1-0.8c-5.3-0.2-5.8-0.2-7.3,0.7
	C128.7,212.7,128.9,212.7,128.2,212z M128,199.7c-0.7-0.7-0.7-1.5-0.3-9.4c0.3-4.7,0.6-8.7,0.9-9c0.4-0.4,3.4-0.5,3.8,0
	c0.1,0.1,0,0.9-0.3,1.6c-1,2.4-1.1,3.6-0.2,3.9c0.4,0.2,2.8,0.4,5.3,0.5c5.1,0.3,6.7-0.1,7.5-1.8c0.3-0.8,0.8-1.1,1.4-1
	c0.8,0.1,0.9,0.4,1,5.1c0.2,7.4-0.2,8.1-2.8,5.5c-1.4-1.3-1.6-1.4-5.9-1.6c-5.8-0.3-6.9,0-6.6,1.5c0.1,0.6,0.5,1.8,0.8,2.5
	c0.5,1.1,0.5,1.5,0,2C131.7,200.8,128.9,200.7,128,199.7z M302.3,182.5c-0.2-0.2-0.3-1.1-0.3-2c0-1.9,1.7-5.4,3.4-6.9
	c1.4-1.2,1.1-1.6-1.1-1.5l-2,0.1l-0.1-2.4c-0.1-1.3,0-3.5,0.2-5c0.4-3,1.2-3.5,2.3-1.6c0.6,1,1.1,1.3,2.7,1.6
	c2.8,0.4,8.1,0.1,8.3-0.6c0.1-0.3,0.5-0.9,1-1.5c0.7-0.8,0.9-0.9,1.5-0.4s0.7,1.7,0.7,7.5c0,7.7-0.4,9.7-2,11
	c-2,1.6-4.3,1.1-6.9-1.4c-1.7-1.6-2.6-1.4-4.7,1.2C303.7,182.7,302.9,183.1,302.3,182.5z M315.2,175.7c0.4-0.6,0.6-1.6,0.5-2.2
	c-0.1-0.9-0.4-1.3-1.5-1.6c-1.6-0.4-3.1,0.2-3.1,1.2c0,0.4,0.3,1.3,0.6,2.1C312.4,177.1,314.1,177.3,315.2,175.7z M128.1,178
	c-0.7-1.2-0.3-6.8,0.4-7.3c0.3-0.2,1.1-0.2,1.8,0.1c1,0.3,1.7,0.2,3.9-0.9c1.5-0.8,3.2-1.7,3.8-2.2l1.1-0.8l-2.2-1.9
	c-1.2-1.1-2.9-2.3-3.9-2.8c-1.6-0.8-1.8-0.8-2.7-0.2c-0.6,0.4-1.3,0.6-1.6,0.5c-1.2-0.5-1.1-7.5,0.1-7.9c0.3-0.1,0.8,0.5,1.2,1.6
	c0.7,1.8,3.5,4.1,10.5,8.6c6.5,4.1,6.4,5-1.3,8.9c-3.1,1.6-6.4,3.5-7.4,4.1C129.7,179.1,128.8,179.2,128.1,178z M177.7,161.7
	c-2.6-1.7-3.8-3.7-4.2-6.7c-0.4-3.4,0.5-6,2.5-7.8c2.2-1.9,3.3-2.4,6.4-2.4c5.6,0,9,3.3,9,8.5c0,3.1-0.9,5.2-3.1,7.3
	c-1.9,1.8-3.3,2.3-6.4,2.3C180.1,162.9,179.3,162.7,177.7,161.7z M184.3,159c0.8-0.8,0.9-1.3,0.7-4.9c-0.1-2.2-0.4-4.4-0.7-4.9
	c-0.7-1.2-2.8-1.3-3.5-0.1c-0.6,1.1-0.6,8.2,0,9.7C181.3,160.2,183,160.3,184.3,159z M153.2,162.1c-1.1-0.3-1.2-0.5-0.9-4.6
	c0.1-0.9,0.1-3.2,0.1-5.1c0-3.2-0.1-3.4-1.4-4.7c-1.3-1.2-1.3-1.3-0.6-2c0.6-0.6,1.8-0.8,7-0.9c9-0.2,11.9,0.7,12.5,4
	c0.6,2.9-1.7,5-6.1,5.6c-3.4,0.5-3.8,0.8-3.5,2.9c0.1,1,0.4,2.3,0.5,3c0.3,1,0.1,1.2-0.9,1.6C158.6,162.6,154.8,162.6,153.2,162.1z
	 M163.7,149.7c0-0.9-1.9-1.7-3-1.3s-0.9,2.4,0.3,2.9C162.2,151.7,163.7,150.9,163.7,149.7z M196.9,161.9c-0.1-0.4,0.1-1,0.5-1.5
	c0.6-0.7,0.7-1.7,0.7-6.1c0-4.9-0.1-5.4-0.9-6c-1.1-0.9-1.2-1.9-0.1-2.5c0.5-0.3,3.7-0.4,7.5-0.4c6,0,6.8,0.1,8.5,1
	c3.4,1.7,3.4,5.2,0,7.5l-1.7,1.2l2.8,2.9c3.1,3.2,3.3,4,0.9,4.5c-2.2,0.4-4.7-0.5-7.4-2.6c-1.3-1.1-2.5-1.9-2.6-1.9s-0.2,1-0.1,2.3
	l0.1,2.3l-4,0.1C197.8,162.5,197.1,162.4,196.9,161.9z M209.2,150.5c0.3-0.6,0.3-1-0.3-1.5c-0.9-0.9-4.2-0.7-4.4,0.3
	C204.2,151.1,208.3,152.2,209.2,150.5z M242.4,162.1c-0.5-0.4-0.4-0.6,0.8-1.6c1.7-1.5,7.4-10.3,7.4-11.5c0-0.5-0.3-1.2-0.6-1.7
	c-1-1.3-0.8-1.5,1.6-1.7c3.8-0.5,5.4,0.1,7.6,2.8c1,1.3,2.8,3.4,3.8,4.6c1.9,2.2,2,2.3,2.8,1.5c1.6-1.4,3.8-5.3,3.8-6.5
	c0-1.7,0.7-2.3,2.9-2.3c2,0,2.7,0.7,2.7,2.8c0,1.3,4.4,8.1,7,10.9c2.5,2.6,2,2.9-4.5,2.9c-5.6,0-6.3-0.3-5.5-2.2
	c0.4-0.8,0.3-1.3-0.7-2.7c-0.6-1-1.5-1.7-1.9-1.7s-2,1.3-3.5,3c-3.5,3.9-3.9,3.9-7.3,0c-1.4-1.6-3.1-3.8-3.8-4.7
	c-0.7-1-1.5-1.7-1.9-1.7c-0.8,0.1-4.7,5.8-4.7,6.8c0,0.4,0.3,1,0.6,1.3c0.8,0.7,0.8,1.6,0,1.9C248,162.7,243.2,162.5,242.4,162.1z
	 M289.6,161.8c-0.1-0.4,0-1.1,0.3-1.6c0.9-1.5,1.1-8.5,0.3-11.1c-0.4-1.2-0.6-2.5-0.5-2.8c0.3-0.8,3.7-1.2,6.5-0.9
	c2.6,0.3,2.9,0.8,1.7,3.1c-1,1.8-0.9,10.1,0.1,11.7c0.7,1.1,0.7,1.1-0.1,1.7c-0.5,0.4-2,0.6-4.4,0.6
	C290.5,162.5,289.8,162.4,289.6,161.8z M285.5,371.4c-1.9-0.2-3.2-2.2-3.6-5.4c-0.5-4.3,0.1-7.5,1.5-9c1.9-1.9,2.4-1.6,3.4,2.4
	c1.6,6,1.4,5.7,3.1,5.7c0.8,0,2.2-0.4,3.2-0.9l1.7-0.8v-3.2c0-1.8-0.2-5-0.4-7.2c-0.3-3.7-0.3-4,0.5-4.2c1.5-0.5,4-0.4,4.5,0.1
	c0.6,0.6,2,11.8,2,16.1c0,2.6-0.1,3-1,3.6C298.3,370,288.9,371.8,285.5,371.4z M312.1,368.8c-2.7-1.7-3.6-3.6-4.9-10.6
	c-1.3-6.6-1.2-7.4,0.5-8c1.8-0.6,2.1-0.3,3.8,4.6c1,2.8,1.8,4.3,2.7,5.1c1.6,1.3,1.7,1.3,3.2,0c1.5-1.2,2.3-3.6,2.3-6.5
	c0-3.3,0.3-4,1.8-4c1.7,0,1.9,0.6,2.9,7.6c0.9,6.6,0.7,8-1.8,10.3C320.1,369.5,314.6,370.3,312.1,368.8z M332.8,368.2
	c-2.8-0.8-4.6-4-6.3-10.9c-1.1-4.4-1.1-6.4-0.1-7.3c0.9-0.8,2.5-1,2.9-0.3c0.1,0.2,0.5,2,0.9,4c1,5.1,2.1,7.5,3.7,8.1
	c2.5,0.9,6.1,0.2,6.6-1.2c0.1-0.4-0.2-3.3-0.6-6.5c-1.1-7.2-1.1-6.8,0.2-7.4c2.4-1.1,3.7,1.3,5,9c0.8,4.8,0.7,8.4-0.2,9.7
	c-0.9,1.3-3.2,2.3-7.2,2.9C334.6,368.8,334.6,368.8,332.8,368.2z M146.8,367.8c-2.4-0.5-5.1-1.9-6.1-3.2c-1-1.3-1.8-5.5-1.9-10.9
	c-0.1-3.8,0-4.1,0.9-4.9c0.6-0.5,1.5-0.8,2-0.8c1.9,0,2.5,1.2,3.1,6.3c0.3,2.6,0.7,4.9,0.9,5.1c0.7,0.7,1.2-0.2,1.5-2.6
	c0.4-3.3,0.6-4,1.3-4c0.5,0,0.6,0.7,0.6,2.8c0,4.7,0.8,5.4,2.2,2c1-2.3,1.8-2.8,3.8-2.4c1.7,0.4,2,1.7,1.4,5.5
	c-0.7,3.8-1.5,5.7-2.9,6.6C152.5,368.1,149.4,368.4,146.8,367.8z M123.6,365.5c-1.2-0.3-2.7-0.9-3.3-1.3c-2.4-1.6-3.5-6.5-2.9-12.6
	c0.2-1.9,0.4-3.8,0.4-4.4c0-0.5,0.4-1.4,0.9-1.9c0.7-0.7,1.2-0.8,2.5-0.6c0.9,0.2,1.8,0.5,2,0.7s0.4,2.8,0.3,6.4
	c-0.1,6.5-0.1,6.7,2.3,7.1c3,0.5,4.1-0.9,5-7c0.7-4.7,1.3-5.8,3.2-5.4c2.5,0.5,2.7,0.9,2.7,8.4c0,7.9-0.2,8.5-3.7,10.3
	C130.7,366.3,127.2,366.4,123.6,365.5z M104.4,363c-4.9-0.7-7.9-2.7-8.7-5.7c-0.5-1.7,0.1-11.1,0.9-14.7c0.6-2.6,2-3.3,4.5-2.4
	l1.2,0.4L102,347c-0.3,7-0.2,7.8,1.9,8.9c3.1,1.6,4.1,0.5,5.4-6.1c0.6-2.8,1.2-5.5,1.3-5.9c0.4-1.1,1.7-1.3,3.4-0.8l1.5,0.5v3.3
	c0,5.2-0.7,11.8-1.3,13.2c-0.3,0.7-1.1,1.5-1.9,1.9C110.8,363,106.9,363.4,104.4,363z M26.8,362.3c-0.7-1.4-1-4.7-0.5-6.4
	c0.3-1.2,1.1-2.3,2.4-3.5c1.9-1.8,3-2.2,8-3.1c1.6-0.3,3.2-0.9,3.9-1.5c2-1.7,3.9-1.1,3.9,1.2c0,1.7-2.1,3.7-4.3,4.2
	c-4.2,1-4,0.9-4.3,3.7c-0.2,2.2-0.4,2.6-1.3,3.1c-0.6,0.3-1.7,0.5-2.4,0.5c-1,0-1.6,0.4-2.3,1.3C28.8,363.2,27.4,363.5,26.8,362.3z
	 M290.2,361.5c-0.1-0.4-0.3-1.9-0.5-3.2c-0.3-2.9,0.2-4.3,1.6-4.1c0.8,0.1,1,0.6,1.5,3.4c0.8,4.8,0.8,4.7-0.9,4.7
	C290.8,362.2,290.3,362,290.2,361.5z M333.5,357.2c-0.3-0.9-0.6-2.8-0.7-4.2c-0.2-2.1-0.1-2.7,0.4-3.2c1.8-1.5,3,0.4,3.5,5.9
	l0.3,3.1h-1.5C334.1,358.8,333.9,358.6,333.5,357.2z M315.2,357.7c-1.6-1.6-2-7.2-0.5-7.5c1.4-0.3,2.3,1.1,2.7,4.1
	C317.7,357.9,316.8,359.3,315.2,357.7z M126,356.2c-0.6-1.1-0.4-5.8,0.3-6.5c1-1,1.8-0.1,1.8,1.9C128.1,356,127,358.2,126,356.2z
	 M105.1,353.5c-0.3-1.2-0.3-4.5,0.1-5.9c0.2-0.6,0.6-1.1,1-1.2c1-0.2,1.4,1.5,1.1,4.5C107,354.1,105.7,355.6,105.1,353.5z
	 M405.4,351.7c-0.3-0.8,0.5-4.4,3.1-14.6c2.8-10.9,4.5-21.1,5.8-35.5c0.6-6.4,1.8-17.6,2.6-24.9c2.3-20,2.8-26,3.7-46.9
	c0.5-10.6,0.8-20,0.8-21s0.2-1.8,0.4-1.8s1.1,0.6,1.9,1.4l1.6,1.4l-0.4,20c-0.6,26.1-1.8,39.8-4.9,56.4c-1.2,6.4-2.3,14.4-2.7,20.6
	c-0.2,3.5-0.2,4.2,0.3,4.2c0.3,0,0.8-0.4,1.1-0.9c0.5-0.8,5.7-21.7,7.5-30.2c1.8-8.6,3.5-19.9,3.9-26.5c0.2-3.8,0.7-15.9,1-26.8
	l0.6-19.9l1.2-1.1c1.7-1.5,2.7-1.8,3.5-1c0.6,0.6,0.6,3.1,0.2,20.9c-0.3,11.1-0.8,23.2-1.1,26.9c-0.8,8.9-3.4,25.1-5.4,34.7
	c-4.7,21.9-12.9,46.2-20,59.1C406.8,352.2,405.9,353.2,405.4,351.7z M31.8,346c-0.4-0.4-1.3-2.2-2-4c-1.2-3.1-7.4-24.4-11.3-38.6
	c-6.7-24.7-9.1-47.5-8.4-79.9c0.3-15.6,0.3-16.1,1.2-16.1c0.5,0,1.5,0.6,2.3,1.4l1.4,1.4l0.3,7.8c0.1,4.3,0.4,15.5,0.5,25
	c0.3,23.6,1.3,34,4.9,50.8c0.7,3.4,1.8,8.8,2.3,12c1.1,6.4,2.2,9.5,2.9,8.8c0.3-0.3,0.1-2.2-0.6-6.4c-1.2-6.5-1.4-11.3-2.7-47.8
	c-0.3-10.4-0.9-25.8-1.1-34.1c-0.3-8.3-0.4-15.4-0.3-15.8c0.3-0.8,3.3-1.9,3.8-1.3c0.2,0.2,0.6,4.2,0.8,8.8c0.3,4.6,1,16.3,1.5,25.9
	c0.6,9.6,1.3,23.8,1.7,31.5s0.7,14.7,0.9,15.5c0.5,3.1,3.7,51.9,3.6,53.8C33.4,346.6,32.9,347.1,31.8,346z M306.7,342.4
	c-0.5-0.3-0.6-1.4-0.6-5.5c0-4.4,0.1-5.3,1-6.9c1.2-2.2,2.3-3,5.3-3.6c4.7-1,8,0.8,9.3,5.2c0.8,2.9,1,8.1,0.2,9.4
	c-0.5,0.9-2.1,1.7-2.5,1.3c-0.1-0.1-0.4-2.4-0.6-5.1c-0.5-5.7-1.1-7-3.4-7.2c-2-0.2-4.3,1.4-5,3.4c-0.3,0.8-0.5,3.3-0.5,5.5v4h-1.2
	C307.9,342.8,307.1,342.6,306.7,342.4z M313,341.9c-0.1-0.3-0.3-2.4-0.4-4.8c-0.2-4.1-0.2-4.2,0.9-5.1c2.4-1.9,3.1-0.7,3.1,4.9
	c0,2.3-0.1,4.4-0.3,4.8C316.1,342.5,313.2,342.7,313,341.9z M324.3,341.4c-0.4-0.6-0.6-2.6-0.6-5.5c0-5.1,0.6-6.8,3.2-8.5
	c2-1.3,6.3-1.4,8-0.1c2.1,1.6,5,8.8,4.4,10.7c-0.3,1-1.9,2-2.3,1.4c-0.2-0.2-0.7-1.7-1.3-3.4c-1-3.3-1.4-3.8-3.3-5.3
	c-1.7-1.3-3.3-1.2-4.8,0.4c-1.2,1.3-1.3,1.4-1.2,6.3c0,4.5,0,4.9-0.7,4.9C325.2,342.4,324.6,342,324.3,341.4z M329.9,341.3
	c-0.1-0.2-0.5-1.9-0.7-3.7c-0.4-2.9-0.4-3.5,0.2-4.4c0.9-1.3,2.2-1.4,3-0.1c0.8,1.2,1.7,7.2,1.2,7.7
	C333,341.3,330.2,341.7,329.9,341.3z M364.5,341.1c-3.8-1-8.8-5.3-10.5-8.8c-1.4-2.9-1.8-7.5-1.1-12.9l0.5-4.2l-1.1-1.6
	c-1.2-1.7-11.9-13.9-16.4-18.6c-3.2-3.4-3.4-3.1-2,3.8c1.1,5.8,1.1,7.2,0.1,7.8c-1,0.5-7.4,1.4-10.5,1.4c-3.5,0-3.9-0.7-4-6.4
	c-0.1-4,0-4.2,0.9-4.3c0.7-0.1,1.2,0.2,1.7,1.2c2.2,3.8,5.3,0.3,6.1-6.9c0.2-1.9,0.5-3.9,0.7-4.3c0.4-1.1,1.3-1,2.2,0.3
	c0.7,1.1,0.8,1.1,7,1.1h6.3l6.2,4.2c3.4,2.3,7.8,5.4,9.8,6.7c4,2.8,3.7,2.8,9.9,1.1c3.2-0.9,3.9-0.9,7.2-0.5
	c4.1,0.5,7.1,1.7,9.2,3.9c1.6,1.6,1.9,3.1,0.8,4c-0.5,0.4-1.2,0.4-3.4-0.1c-2.7-0.7-4.6-0.6-4.6,0.2c0,0.2,1.2,1.8,2.6,3.5
	c3,3.6,3.7,5.5,2.9,7.9c-0.3,0.9-0.8,1.7-1,1.8c-0.3,0.1-1.8-0.8-3.4-2c-3.5-2.6-6.7-3.7-9.9-3.3c-1.9,0.2-2.5,0.5-4,2.1
	c-2.3,2.4-2.9,4.6-2.6,9.2c0.2,2.8,0.6,4.4,2,8.1c1.4,3.6,1.7,4.7,1.3,5.2C366.9,341.2,365.8,341.4,364.5,341.1z M137,338.3
	c-0.8-0.8-0.9-1.5-0.1-2.5c0.7-1,1.9-0.8,2.8,0.5c0.6,0.8,0.5,1-0.3,1.8C138.3,339.1,137.9,339.2,137,338.3z M78.4,336.5
	c-0.7-0.7-0.3-2.6,1-4.5c3.8-5.6,4.5-9.3,2.6-13.6c-2.6-5.7-8.1-8-17.4-7.1c-5.7,0.5-6.3,0.3-5.8-2.4c0.5-2.5,3.2-4.9,7.1-6.4
	c2.9-1.1,3.1-1.3,2.2-1.6c-0.6-0.2-2.6-0.3-4.4-0.1c-2.4,0.2-3.6,0.1-4-0.2c-1.6-1.3,0.1-4.3,3.6-6.3c1.6-0.9,2.7-1.2,5.6-1.3
	c4.7-0.2,6.9,0.4,11.3,3c2.1,1.3,3.8,2,4.1,1.8c0.3-0.2,3.4-2.7,6.9-5.6s7-5.6,7.9-6c1.2-0.5,2.4-0.6,4.7-0.4c1.8,0.2,4.5,0,6.6-0.3
	c5.2-0.9,5.9-0.2,2.4,2.5c-8.7,7.1-20,18-20,19.4c0,0.5,0.4,2.8,0.9,5.2c1.3,6.1,1,12.4-0.6,15.6c-2.4,4.7-7.3,8.2-11.9,8.6
	C79.8,336.8,78.6,336.7,78.4,336.5z M123.7,335.7c-0.4-0.9-0.4-1.2,0.3-2c1.1-1.2,2.4-0.9,3.1,0.6s0.1,2.5-1.7,2.5
	C124.6,336.8,124.1,336.5,123.7,335.7z M114.4,335.2c-1.2-0.8-1.2-2-0.2-2.9c1.1-1,2.1-0.9,2.9,0.2c0.9,1.2,0.8,1.5-0.2,2.5
	S115.7,336.1,114.4,335.2z M101.9,333.6c-0.3-0.4-0.5-1.3-0.4-2.1c0.1-1.3,0.3-1.4,1.6-1.4c1.8,0,2.6,1,2,2.7
	C104.5,334.2,102.7,334.6,101.9,333.6z M126,330.1c-1.3-0.3-5.7-1.3-9.7-2.1c-10.5-2.3-10.1-2.1-10.1-4.4c0-2.5,0.7-3,3.3-2.6
	c6.3,0.9,20.6,4.5,22.4,5.7c1.1,0.7,1.3,2.4,0.3,3.4C131.4,330.9,129.3,330.9,126,330.1z M312.3,323.2c-0.2-0.6-0.4-2.1-0.4-3.2
	c0-1.8,0.1-2.2,1-2.5c0.5-0.2,5.9-0.5,11.8-0.7c10.7-0.3,10.8-0.3,11.3,0.6c0.6,1.1,0.6,4.7,0,5.1c-0.4,0.3-19.3,1.9-22.1,1.9
	C313,324.3,312.6,324,312.3,323.2z M125.8,321.6c-0.9-0.2-5-1.2-9.1-2.1s-8.2-1.9-9.2-2.2l-1.8-0.5v-4.2c0-5.2,0.4-5.9,3.1-5.5
	c2.8,0.4,3.4,1,3.7,3.6c0.3,3.1,1,3.5,2.5,1.6c0.6-0.8,1.5-1.5,1.9-1.5c1.3,0,4.4,1.6,5.4,2.8c0.9,1,1.1,1.1,2,0.6
	c1.3-0.7,3.3-0.2,4.4,1.2c0.7,0.9,0.9,1.6,0.8,3.7C129.2,322.2,128.9,322.4,125.8,321.6z M399.6,314.5c-0.2-0.4,0-3.3,0.3-6.4
	c1.1-12,1.3-15.5,0.7-22.7c-0.5-6.6-0.5-8.2,0.7-23.1c0.7-8.8,1.5-20.9,1.9-27c0.4-6,1-13.7,1.3-17s0.7-7.3,0.9-8.9
	c0.3-3.5,0.8-4.4,1.7-3.2c0.5,0.7,0.6,2.6,0.6,10.4c0,11-0.6,29.2-1.3,36.7c-1.3,15-2.2,30.6-1.8,31c0.7,0.7,1.7-1.4,2.8-5.9
	c2-8.2,2.4-11.4,3.1-26.7c0.9-20,1.9-40.4,2.2-43.2c0.2-2,0.4-2.3,1.4-2.5c2.1-0.5,2.3,0.3,2.2,10.5c0,16.7-1.3,41.2-2.6,50.5
	c-0.9,6.2-4.3,24-5.4,28.3c-1.1,4.2-5.1,15.2-6.7,18.4C400.7,315.3,400,315.6,399.6,314.5z M315.5,313.3c-0.7-1-0.7-1.2,0-2.2
	c1-1.5,3.1-1.5,3.7,0C320.2,313.7,317,315.6,315.5,313.3z M324,313.1c-1-1-1.1-1.7-0.2-2.9c0.8-1.2,2.8-1.3,3.8-0.2
	c0.8,0.9,0.9,2.7,0.2,3.4C327,314.2,324.9,314,324,313.1z M332.6,312.6c-1.1-1.1-1.1-2.5-0.2-3.8c0.5-0.8,0.9-0.9,1.8-0.7
	c1.7,0.4,2.2,1,2.2,2.6c0,1.5-0.5,2.1-2,2.6C333.8,313.4,333.2,313.3,332.6,312.6z M48.8,308c-3.3-4.2-11.1-25.1-12-32.5
	c-0.9-7-2.6-27-3.1-36.5c-0.5-10.6-0.8-34.5-0.4-34.9c0.1-0.1,0.8-0.1,1.6,0.2c1.5,0.5,1.4-0.3,2.5,17.2c0.3,5.6,0.7,11.1,0.9,12.3
	c0.1,1.2,0.4,6.1,0.7,11c0.6,12,1.4,19,3.7,31.5c2.4,13,2.2,12.5,3,12.5s0.7-2.4-0.5-11.4c-1.2-9.5-1.5-13.2-2.5-28
	c-1-15.5-1.3-37-0.6-41.8c0.4-2.6,1.7-4.7,2.5-3.9c0.6,0.6,1.1,6,1.9,18.2c2.1,35.2,2.9,48.8,3.9,66c0.6,10.6,1.1,19.6,1.1,20.2
	C51.4,309.6,49.9,309.5,48.8,308z M119.3,304.1c-0.9-0.7-2.2-1.9-2.9-2.6c-1.1-1.3-1.2-1.6-1.2-5.7c0-4.9,0.1-5,3.5-3.3
	c1.8,0.9,2,1.2,2.7,3.8c0.4,1.5,0.8,4.2,0.9,5.8C122.3,305.6,121.9,306,119.3,304.1z M376.2,291.8c0-1.3,1-4.7,2.4-8.3
	c1.8-4.7,4.4-13.2,5.2-17.2c0.3-1.6,0.6-4.8,0.6-7s0.4-6.9,0.9-10.4c1-7.3,5.6-44.8,5.6-45.4c0-0.7,1.6-0.5,2.3,0.2
	c0.4,0.4,0.7,1.5,0.7,2.9c0,2.7-4.9,46.9-5.8,52.3c-1.3,7.9-0.5,8.8,2.1,2.3c3.2-8,4.6-14.8,5.5-28.4c0.9-13.3,2.2-27.8,2.6-28.8
	c0.3-0.7,0.8-1,1.7-1h1.3v2.9c0,2.9-1.5,26.1-2,31.6c-0.4,4.1-2.7,16-3.8,20.3c-1.8,6.3-4.1,12.6-6.2,16.8
	c-1.9,3.9-7.4,12.6-10.1,16.1C377.9,292.3,376.2,292.9,376.2,291.8z M63.4,283c-1.5-1.7-3.7-5-4.5-6.8c-1.3-3.2-4.5-16.7-6-25.2
	c-1.8-10.7-2.2-14.6-2.8-26.9c-0.2-5.2-0.5-11.1-0.6-13.2c-0.1-2,0-4.6,0.1-5.8c0.3-2,0.4-2.2,1.7-2.3c1.1-0.1,1.5,0.1,1.8,0.9
	c0.2,0.5,0.6,5.3,0.9,10.5c1.3,26.1,1.6,30.1,3.9,43.4c1.5,8.4,2.4,10.7,2,4.7c-1.2-16.1-3.3-52.4-3.3-56.2v-4.6l1.4-0.9
	c1.8-1.1,2-1.1,2.3,0.1c0.1,0.5,0.7,10.5,1.3,22.1s1.5,24.6,1.9,28.9c1,9.4,1.6,16.7,2,25.8C65.7,284.8,65.5,285.3,63.4,283z
	 M336.7,283.6c-6.4-2.1-9-5.5-10.8-13.8c-1.9-9.2,0.1-19.8,7.1-38.3c7.3-19.3,9.2-25,11.3-35.1c1.3-6.2,1.4-17.4,0.2-23.1
	c-2.3-10.9-7.1-20.2-12-23.3c-3.3-2.1-3.5-2.6-3.6-6.3l-0.1-3.4l1.3-0.1c2.7-0.3,10.7,6.2,14.2,11.6c6.1,9.2,8.1,17.8,8.1,35.6
	c0,6.6-0.2,9.3-1,14c-1.7,10-3.7,17.3-6.9,25.2c-2.9,7.3-7,20.2-7.9,25.3c-1,5.3-1.2,13.8-0.5,15.6c0.6,1.5,1.2,1.5,3.6,0.1
	c3.3-1.9,6.5-1.3,8.8,1.7c0.9,1.2,1.2,2.1,1.4,4.4c0.2,2.6,0.1,3.2-1,5.3c-1.8,3.4-4.1,4.9-7.8,5.1
	C339.7,284.1,337.7,283.9,336.7,283.6z M101.3,279.7c-4.4-0.9-7.7-4.8-7.7-9.1c0-3.9,2.6-7.6,6.1-8.5c1.7-0.4,2.4-0.4,4.7,0.3
	c3.1,1,3.8,0.7,4.7-1.8c0.4-1.2,0.5-3.2,0.4-7.1c-0.2-4.6-0.6-7.2-2.8-17.1c-4.6-20.5-5.5-27.3-5.9-43.3c-0.2-8.2-0.1-11.1,0.5-15.3
	c1.5-11,3.9-18.6,7.6-24.4c3.2-5,7.7-9.1,9.9-9.1c1,0,1.2,0.2,1.5,1.5c0.6,3,0,4.4-3.2,7.7c-5.1,5.3-7.9,10.8-9.4,18.6
	c-0.9,4.7-1,17.2-0.2,24.6c1.4,12.5,3.3,20.9,7.4,33.6c6,18.4,7.4,26.4,6.1,34.5c-0.5,3-3,8.1-4.9,10.1c-1.9,1.9-5.2,3.8-8.3,4.6
	C104.7,280.4,104.6,280.4,101.3,279.7z M359.3,277.8c-0.1-2,0.4-3.4,3.5-10.2c4.9-10.5,7.4-19.4,9.7-34.1c1.3-8.6,2.3-17.3,2.7-24.6
	c0.3-6.2,0.6-7.1,1.8-6.4c0.7,0.4,0.8,1.3,0.7,10.6c-0.1,11.7-0.4,14.2-3.7,27.8c-1.2,5.1-2.1,9.4-1.9,9.9c0.3,0.7,0.3,0.7,1.1,0
	c0.5-0.4,1.3-1.9,1.8-3.2c1.4-3.8,4.6-16.1,5.8-22.7c0.6-3.3,1.3-6.9,1.6-8c0.2-1.1,0.8-4.9,1.3-8.4c0.6-4.3,1-6.6,1.5-7.1
	c1.4-1.4,1.6,0,1.4,7.8c-0.2,8.3-1.5,16.3-4.4,27.4c-1.8,7-2.4,8.5-6.2,17.6c-4.4,10.3-7.7,15.8-14.2,23.4
	C360.6,278.7,359.4,278.9,359.3,277.8z M77.8,267.5c-5.1-8.6-5.7-9.8-7.5-14.8c-3-8.5-3.8-13.6-4.5-28.5c-0.3-7.2-0.8-15.9-1.1-19.3
	c-0.2-3.4-0.4-6.3-0.2-6.5c0.4-0.6,2.5,0.1,2.8,1c0.2,0.5,0.7,5.1,1.1,10.2c1.2,15.3,2,21.4,3.5,29.3c1.6,7.8,4.3,17.7,5,17.7
	c0.5,0,0.5-0.3-0.5-6c-1.4-8.3-3-20.8-3.9-31.3c-0.5-5.5-1.1-11.1-1.3-12.5c-0.8-5-0.3-9.3,1.1-9.3c1.6,0,2,1.9,3.9,18.1
	c0.8,7.2,2.3,19,3.2,26.1c1.8,13.5,2.6,27.8,1.8,29.9C80.9,272.6,80.6,272.2,77.8,267.5z M93.3,256.8c-1.4-1.1-3.4-4.4-6.9-11
	c-2.1-4-3.6-8.3-5-14.5c-1.3-5.8-4.8-33-4.4-34.1c0.3-0.7,2.4-1,2.4-0.3c0,2.4,5,33.1,5.8,35.7c2.2,7,2.5,7.6,3.4,6.2
	c0.3-0.5,0.3-1.4-0.1-3c-1.4-6.1-4-23.4-4.6-30.2c-0.9-10.4-0.9-10.2,0.4-10.2s1.5,0.7,2.8,9.3c3.2,21.1,6.7,41,8,46.1
	c0.9,3.3,1.4,6.2,1.3,6.6C96.1,258.2,94.7,258,93.3,256.8z M348.8,257.3c-0.1-0.3,0.5-2.3,1.4-4.4c6.7-16.6,9.3-26.5,11.2-42.5
	c0.9-8.2,1-8.6,2-8.6c1.4,0,2.5,0.8,2.5,1.8c0,1.2-2.4,15.2-3.3,18.7c-0.3,1.5-1.2,5.6-1.9,9.1c-0.7,3.5-1.8,7.8-2.4,9.6
	c-1.8,5-1.9,5.6-1.5,5.8s2.6-2.4,4.4-5.2c2-3,4.9-11.8,6.6-19.5c0.4-1.6,0.8-6.8,1.1-11.6c0.2-4.7,0.6-8.7,0.8-8.9
	c0.6-0.6,2.2,0.1,2.4,1.1c0.7,2.6,0,13.3-1.3,21.3c-0.6,3.8-3.4,12.9-5.3,16.9c-2.6,5.8-7.8,12.6-11.9,15.6
	C351.8,257.9,349.1,258.3,348.8,257.3z M349.7,237.3c-0.8-0.8-0.9-0.2,0.4-7.1c0.6-3.4,1.4-9.5,1.7-14.7c0.6-8.9,0.8-10.3,1.6-10.3
	c1.4,0,1.4,4.4,0.1,14.6c-0.7,5.4-0.3,7.1,0.8,3.6c0.7-2.2,1.8-9.5,2.2-15.5c0.3-3.8,1-5.5,2-4.6c1.1,1.1,0.3,13.9-1.2,19.1
	c-0.6,2.1-4.1,11-5.4,13.9C351.3,237.8,350.5,238.2,349.7,237.3z M96.3,233.1c-3.1-6.3-4.3-11.1-6.5-26.6
	c-0.9-6.5-1.6-12.1-1.5-12.4c0.5-1.3,3.2-1,3.2,0.3c0,0.3,0.6,5.3,1.3,11.1c1.3,10.6,1.8,13.6,2.6,14c0.6,0.4,0.5-1.6-0.2-7.5
	c-0.4-2.8-0.7-8.3-0.8-12.4l-0.1-7.3l1.2-0.1c2.3-0.3,2.5,0.2,2.5,8.1c0,3.9,0.2,9.7,0.4,12.8c0.2,3.1,0.5,9.6,0.7,14.6
	C99.4,238.3,99.2,238.9,96.3,233.1z M329.8,230.6c-0.3-0.9-0.1-12.7,0.3-13c0.5-0.5,4.9,0.9,5,1.6c0.2,0.8-3.7,10.7-4.5,11.5
	C330.1,231.2,330,231.2,329.8,230.6z M116.8,229.7c-1.6-2.5-3.3-10.3-2.5-11.3c0.3-0.3,1.5-1.1,2.8-1.7c3-1.5,3.7-1.1,3.7,2.4
	c0,3.3-0.8,9-1.4,10.3C118.7,230.8,117.6,230.9,116.8,229.7z M330,213.2c-0.4-0.5-0.5-1.2-0.2-3c0.4-2.1,0.5-2.3,2.3-3.2
	c2.1-1.1,4.7-1.3,5.5-0.5c0.5,0.5,0.7,3.2,0.2,4.4C337.2,212.8,331.1,214.6,330,213.2z M111.3,205.8c-0.4-0.5-0.6-2.6-0.7-7.2
	c-0.2-5.6-0.1-6.6,0.5-7.1c0.8-0.7,7.2-1.1,7.9-0.6c0.8,0.6,1.4,4.5,1.4,9.6c0,3.7-0.1,4.8-0.7,5.3c-1.7,1.7-2.5,0.6-3.2-4.4
	c-0.6-4.2-0.8-4.8-1.5-4.8c-0.5,0-1.1,3.8-1.1,7.6c0,1.2-0.2,1.9-0.7,2C112.2,206.6,111.9,206.6,111.3,205.8z M330.7,205.5
	c-1-0.7-1.7-5.5-1.5-9.3c0.1-2.3,0.4-2.9,1.2-3.6c2-1.7,3.9-0.9,4.4,1.8c0.5,2.6-0.1,9.8-0.9,10.5
	C332.9,205.9,331.5,206.1,330.7,205.5z M337.1,202.5c-0.2-0.3-0.4-2.6-0.5-5.2c-0.1-3.8,0-4.8,0.5-5.7c0.8-1.3,2.4-1.8,3.7-1.1
	c0.8,0.4,0.9,0.9,0.9,3.3c0,2.9-1,7.7-1.8,8.7c-0.2,0.3-0.9,0.5-1.4,0.5C337.9,203.1,337.2,202.8,337.1,202.5z M424.2,202.2
	c-1-0.5-2.3-1.5-3-2.3l-1.1-1.4l0.3-16.3c0.2-10.6,0.4-16.5,0.7-16.9c0.6-0.8,2.5-0.3,3.2,0.8c0.4,0.6,0.6,4.9,0.7,13.7
	c0.2,11.2,0.3,12.9,1,13.9c1.4,2.2,4.3,1.4,5.9-1.7c0.3-0.6,0.5-3.6,0.5-7.5c0-3.6,0.2-9.5,0.3-13.1l0.3-6.5l1.4-1
	c2.8-1.9,2.8-2.2,2.5,14.7c-0.2,8.3-0.5,16.1-0.7,17.3c-0.5,2.5-2.6,5.4-4.9,6.5C429.2,203.3,426.4,203.2,424.2,202.2z M17.4,199.6
	c-2.5-0.3-4.3-1.6-5.6-4.3c-0.6-1.3-0.7-2.5-0.5-9.3c0.2-4.3,0.6-11.1,0.9-15.1c0.7-7.4,2.7-24.2,3.1-26c0.3-1.2,1.4-1.2,2.9-0.1
	c1.5,1.1,1.5,1.8,0,12.5c-1,7.4-1.2,9.8-1.2,20.5c0,12.9,0.2,14.5,2.2,14.8c1.2,0.2,3.1-1.8,3.6-3.7c0.4-1.7,1.9-17.4,2.6-27.4
	c0.5-7.3,0.8-9.7,1.3-10.6c0.4-0.7,2.5-0.7,3.1-0.1c0.3,0.3,0,6.7-0.9,18.1c-0.7,9.7-1.4,19.6-1.6,22c-0.3,4.6-1.2,7.6-2.6,8.3
	C23.7,199.6,20.1,199.9,17.4,199.6z M407.4,198.6c-0.7-0.3-1.8-1.1-2.3-1.8c-0.9-1.2-0.9-1.5-0.9-14.7c0-7.7,0.2-14,0.4-14.6
	c0.5-1.3,1.9-1.5,2.5-0.4c0.2,0.4,0.5,5.2,0.6,10.7c0.2,10.8,0.5,12.3,2.2,12.3c2.1,0,2.4-1.1,2.8-12.2c0.3-9.9,0.4-10.2,1.4-11.3
	c2-2.1,2.2-1.6,2.1,5.5c0,3.6-0.2,9.9-0.4,13.9c-0.5,10.4-1.4,12.5-5.5,13C409.5,199.1,408.1,198.9,407.4,198.6z M34.5,197.7
	c-1.8-1-2.3-2.8-2-7.3C33,183,35,158,35.3,155.6c0.3-2.2,0.4-2.4,1.5-2.5C38,153,38,153,38,155.7c0,2.9-0.9,14.5-2,25.8
	c-0.9,9-0.9,9,0.5,9.5c1.2,0.4,4.1-0.4,4.1-1.2c0-1.9,3.3-30.9,3.7-32.8c0.2-0.7,0.5-1,1.3-1c1.5,0,1.7,0.8,1.1,4.2
	c-0.3,1.6-1.1,9.6-1.8,17.8c-1.4,16-1.8,17.8-4.1,19.3C39.3,198.3,35.9,198.5,34.5,197.7z M392.9,195.7c-2.2-1.3-2.9-5.8-2.5-17.4
	c0.2-5.1,0.4-9.4,0.6-9.7c0.5-0.9,2.3-0.6,2.6,0.5c0.1,0.5,0.3,5,0.3,9.8c0,6.3,0.2,9,0.5,9.4c0.7,0.7,1.9,0.6,2.2-0.2
	c0.1-0.4,0.3-4.8,0.4-9.9c0.1-9.8,0.3-10.5,2.3-10.5c1,0,1,0.1,1,3.3c0,1.8-0.3,7.7-0.7,13l-0.7,9.7l-1.3,1.2
	C396.4,196.2,394.3,196.5,392.9,195.7z M379.2,193.7l-1.3-1.2l0.4-11.1c0.3-9.1,0.5-11.3,1.1-11.8c0.4-0.4,0.9-0.6,1.1-0.4
	c0.2,0.1,0.5,4.1,0.7,8.8c0.3,8.3,0.6,9.9,1.6,8.9c0.8-0.8,1.2-3.6,1.5-10.1c0.3-6.3,0.6-8.2,1.5-8.2c0.3,0,0.4,4.1,0.4,11.9v11.9
	l-1.3,1.3C383.1,195.3,381,195.3,379.2,193.7z M49.7,193.8c-2.1-1.5-2.4-2.8-2.1-10.1c0.2-3.7,0.7-10.8,1.1-15.8
	c0.7-7.4,1-9.2,1.6-9.6c1.5-1.1,1.6,0,1,10.6c-0.3,5.6-0.6,11.7-0.5,13.4c0.1,4.5,1.5,6.4,3.3,4.5c0.5-0.6,1.2-4.4,2.5-13.5
	c1-7,2-13,2.3-13.3c0.9-0.9,2.4-0.2,2.4,1.1c0,0.6-0.7,6.8-1.5,13.7S58.2,188.6,58,190c-0.2,2.2-0.5,2.9-1.4,3.6
	C55.3,194.7,51.2,194.8,49.7,193.8z M367.7,191.4c-1.3-0.8-1.4-1-1.6-4c-0.4-4.5-0.1-16.4,0.4-16.6c1.3-0.4,1.6,0.8,2.2,6.7
	c0.3,3.3,0.8,6.5,1.1,7c1,1.9,1.6-0.2,1.9-7.2c0.3-6.9,0.6-8,2.2-7.4c0.6,0.2,0.7,1.1,0.4,8.4c-0.4,9.7-0.6,11.1-2.4,12.7
	C370.3,192.5,369.5,192.6,367.7,191.4z M66.9,191.5c-1.5-0.3-3.4-1.7-4.1-3.1c-0.4-0.7-0.6-2.4-0.6-4.3c0-3,1.5-18.8,2-20.7
	c0.4-1.4,1.6-2,2.4-1.1c0.6,0.7,0.6,1.7-0.1,9.9c-0.9,11.1-0.7,12.6,1.3,12.6c1.5,0,2.1-1.9,3.6-10.8c1.7-9.9,1.7-10.2,2.9-10.8
	c0.6-0.3,0.9-0.3,1.1,0.3c0.3,0.8-0.6,19-1.1,22.2c-0.2,1.1-0.6,2.5-1,3.1C72,190.8,69.2,191.9,66.9,191.5z M357.3,190.8
	c-1.6-1.1-2.2-3.6-2.5-10.4c-0.3-6.9-0.1-7.8,1.5-6.2c0.7,0.7,0.9,1.5,0.9,4.2c0.1,4,0.4,5.4,1.3,5.6c0.9,0.2,1.1-0.8,1.4-7.1
	c0.2-4.1,0.4-4.8,1.1-5c1.8-0.5,2,0.2,1.8,7.3c-0.2,7.7-0.5,9.5-2.1,11.1C359.5,191.6,358.6,191.7,357.3,190.8z M427.5,190.3
	c-0.5-0.6-0.6-2.6-0.5-9.8c0.1-9.3,0.4-11.7,1.4-11.7c1.1,0,1.4,3,1.2,11.9C429.3,190.9,429,192.2,427.5,190.3z M330.9,188.8
	c-0.6-1.1-1.7-9.3-1.7-12.7c0-3,0.4-3.6,2.4-3.6c1.7,0,1.9,0.2,2.8,4.5c0.6,2.8,0.9,3.5,1.6,3.6c0.8,0.1,0.9-0.2,1.1-3.7
	c0.2-3.2,0.4-3.9,1.2-4.6c1.3-1.1,3-0.8,3.7,0.6c0.3,0.6,0.7,3.1,1,5.6c0.4,3.9,0.4,4.8-0.1,6.1c-0.8,2-3.4,3.5-7.2,4.4
	C332,189.9,331.4,189.9,330.9,188.8z M81.3,188.4c-0.7-0.4-1.8-1.5-2.3-2.3c-0.9-1.4-0.9-2-0.9-10.5c0-6.4,0.1-9.2,0.5-9.5
	c0.6-0.6,1.9-0.7,2.3-0.1c0.1,0.2,0.3,3.7,0.4,7.7c0.2,8,0.6,9.7,2.4,9.9c1.7,0.2,2.2-1.1,2.9-8.9c0.4-4,0.8-7.4,1.1-7.6
	c0.3-0.3,0.7-0.3,1.1,0.1c0.7,0.4,0.7,1.4,0.7,9.1c-0.1,9.8-0.4,11.1-2.9,12.3C84.6,189.5,82.9,189.4,81.3,188.4z M409.2,187.2
	c-0.2-0.7-0.4-13.3-0.3-16c0-0.6,0.3-1,0.8-1c0.7,0,0.8,0.5,1.1,2.9c0.2,1.6,0.3,5.6,0.3,8.8c0,5.6,0,5.9-0.8,5.9
	C409.8,188,409.3,187.6,409.2,187.2z M19,181.4c0-9.4,1.7-26.8,3.1-30.8c0.5-1.6,1.5-1.8,1.9-0.5c0.3,1-0.3,9.6-1.5,19.4
	c-0.4,3.7-1,8.7-1.3,11.2c-0.5,4.5-1.1,6.9-1.8,6.9C19.2,187.5,19,184.8,19,181.4z M92.6,185.9c-1.8-2-2.1-3.7-1.6-10.5
	c0.2-3.6,0.6-6.7,0.9-7c1-1,1.3,0.6,1.4,6.3c0.1,4,0.3,6.1,0.6,6.4c1,1,1.8-0.6,2.5-5c1-6.5,1-6.3,2.1-6.2c0.9,0.1,1,0.3,1.1,5.4
	c0.1,5.9-0.3,8.1-1.9,10c-0.9,1-1.4,1.3-2.7,1.3C93.9,186.7,93.1,186.4,92.6,185.9z M37.5,185.4c-0.6-0.4-0.6-0.9,0.1-6.3
	c0.4-3.3,1.2-9.6,1.6-14.1c0.5-4.5,1-8.3,1.3-8.6c0.2-0.2,0.7-0.3,1.1-0.2c1,0.4,0.9,3-0.6,15.8C39.4,185.8,39.2,186.4,37.5,185.4z
	 M112.6,184.1c-1.3-0.2-1.5-0.5-1.6-1.7c-0.2-2,1.3-2.9,4.4-2.5c1.3,0.2,2.5,0.4,2.8,0.6c0.8,0.5,1,2,0.4,2.8
	C117.9,184.1,114.8,184.6,112.6,184.1z M52.4,179.7c0.1-1.7,0.5-6.2,0.8-10c0.5-7.3,0.8-8.8,1.9-8.8c1.2,0,1.2,1.1,0.3,8.3
	c-1.6,12.3-1.8,13.7-2.5,13.7C52.2,182.8,52.1,182.3,52.4,179.7z M67.6,181.2c-0.7-0.7,0.5-14.6,1.4-17.1c0.5-1.3,1.6-1.5,2.1-0.4
	c0.4,1-1.1,15-1.7,16.3C68.9,181,68,181.6,67.6,181.2z M82.6,179.3c-0.2-0.5-0.1-3.4,0-6.5c0.2-4.3,0.5-5.7,0.9-5.9
	c0.3-0.1,0.8,0,1,0.4c0.4,0.6,0.2,10.2-0.3,11.9C84,180.4,83,180.5,82.6,179.3z M112.1,177.1c-1-0.6-1-2.4,0.1-3
	c1.2-0.6,6.2-0.6,6.8,0.1c0.7,0.7,0.6,1.9-0.2,2.7C118,177.7,113.3,177.9,112.1,177.1z M117.8,167c-0.8-0.6-2-1.3-2.8-1.4
	c-2.1-0.4-2-1.5,0.2-3.9c1.1-1.1,2.3-2.6,2.7-3.4c0.4-0.8,1-1.3,1.2-1.3c0.6,0.2,0.8,10.2,0.3,10.7C119.4,168,118.6,167.7,117.8,167
	z M356.5,167.3c-1.5-0.6-2.3-2.2-2.6-5.2c-0.2-2.4-0.2-2.8,0.5-3.3c1.3-1,1.9-0.7,1.9,0.9c0,3.2,1.8,5.8,3.3,4.6
	c0.5-0.4,0.6-1.1,0.4-3.2c-0.2-2.2-0.1-2.7,0.5-3.3c1.5-1.3,2.2-1.3,2.5,0.1c0.3,1.7,0.3,4.4,0,6.5
	C362.5,167,359.4,168.4,356.5,167.3z M367.4,165.6c-1.4-0.9-1.5-1-2-5.7c-0.5-4.1-0.2-4.7,1.7-4.7c1.5,0,1.6,0.2,2,3.4
	c0.3,2.9,0.6,3.2,1.9,2.8c0.9-0.3,0.9-0.5,0.7-3.9c-0.2-3.3-0.1-3.7,0.7-4.3c1.2-0.8,2.4-0.8,2.5,0.1c0.2,2.7-0.2,10.4-0.5,11
	C373.4,166.3,369.6,167,367.4,165.6z M329.7,164.6c-0.5-0.5-0.8-10.4-0.3-11.7c0.1-0.4,0.6-0.7,1.1-0.7c1.8,0,7.4,6.9,8,9.8
	c0.3,1.4,0.2,1.4-1.2,1.4c-0.8,0-1.8-0.2-2.3-0.4c-0.6-0.3-1.3,0-2.4,0.9C330.8,165.2,330.4,165.3,329.7,164.6z M379.8,163.3
	c-1.3-0.6-1.3-0.8-1.7-6.8c-0.3-5.1-0.3-5.2,0.6-5.2c1.2,0,1.6,0.9,2,3.9s0.8,3.9,1.6,3.1c0.4-0.4,0.6-1.8,0.6-4.3v-3.7l1.4-0.8
	c0.8-0.4,1.6-0.7,1.9-0.5s0.4,2.2,0.2,6.6c-0.3,6-0.3,6.4-1.4,7.3C383.8,163.9,381.4,164.1,379.8,163.3z M391.2,161.5
	c-1.4-0.9-1.5-1.1-1.7-4.2c-0.1-1.8-0.3-4.9-0.3-7l-0.1-3.8h1.3c0.7,0,1.4,0.2,1.5,0.4s0.4,2.5,0.7,5.1c0.5,5.4,1.1,6.4,2.6,4.9
	c0.9-1,1-1.3,0.8-6.7c-0.2-5-0.1-5.8,0.5-6.4c0.9-0.8,1.9-0.8,2.6,0s0.3,14.7-0.4,16.1c-0.7,1.3-3,2.6-4.6,2.6
	C393.3,162.5,392,162.1,391.2,161.5z M406.1,160c-0.7-0.4-1.8-1.3-2.3-2c-0.9-1.1-0.9-1.6-0.9-10.4c0-9,0-9.2,0.9-9.5
	c0.5-0.2,1.1-0.1,1.3,0.1c0.2,0.2,0.6,2.4,0.8,4.8c0.4,4.6,1.3,7.1,2.7,7.9c0.7,0.4,1,0.3,1.5-0.2s0.8-2.3,1.1-8.3
	c0.3-7.1,0.4-7.7,1.3-8.4c2-1.6,2-1.5,2,11.4c0,10.4-0.1,12.3-0.7,13.2C412.3,160.8,408.6,161.5,406.1,160z M99.3,158.3
	c0.2-2.4-0.7-3.1-1.1-0.9c-0.3,1.6-1.2,2.7-2,2.2c-0.2-0.2-0.6-1-0.7-2c-0.3-2.1-0.9-2.2-1.4-0.3c-0.2,0.8-0.7,1.6-1.1,1.8
	c-1.2,0.7-2.6-1.2-2.2-3.2c0.8-4.5,4.1-6.3,8.2-4.6c1.8,0.7,2.8,2.7,2.8,5.4c0,2.2-0.6,3.4-1.8,3.4
	C99.3,160.4,99.2,160.1,99.3,158.3z M425.1,157.6c-0.7-0.3-1.9-1.2-2.6-2l-1.3-1.4v-11.7v-11.7l1.1-0.3c1.1-0.3,1.2-0.3,1.4,2.1
	c0.1,1.3,0.4,5.4,0.7,9c0.5,8.3,1.3,10.2,4.1,9.5c2.1-0.5,2.4-2,2.4-12.2c0-10.3,0.1-10.7,2.5-11.2l1.3-0.3l0.3,9.2
	c0.2,5.1,0.4,11.1,0.5,13.4l0.2,4.1l-1.4,1.6C432.4,158.1,428.1,158.9,425.1,157.6z M86.3,155.1c0-1.3-0.2-2.6-0.4-2.9
	c-0.3-0.5-0.4-0.3-0.4,0.8c0,1.7-0.7,3.1-1.5,3.1c-0.4,0-0.6-0.7-0.7-2.5l-0.1-2.5l-0.6,1.7c-0.3,1-0.9,2.1-1.2,2.6
	c-0.6,0.8-0.7,0.8-1.3,0.2c-0.6-0.6-0.6-1-0.2-3.2c0.8-4,3.6-6,6.7-4.7c2.1,0.9,2.5,2.2,2.1,6.3c-0.3,2.9-0.5,3.2-1.3,3.4
	C86.4,157.4,86.3,157.2,86.3,155.1z M356.2,154.7c-0.4-0.6-0.7-1.5-0.7-2.2c0-1.4,0.6-1.7,7.1-3.8c10.1-3.2,16.2-6.8,24.3-14.3
	c4-3.7,6.5-5.4,13.9-9.4c9.7-5.2,12.9-7.9,12.9-10.6c0-2.1-0.7-3.5-2.9-6.2c-3-3.7-6-5.4-8.4-4.9c-1.4,0.3-0.8,1,3.1,3.4
	c2.1,1.4,4,2.7,4.1,3s-0.2,0.7-0.6,1c-0.6,0.3-1.8-0.1-5.3-1.9c-7.9-4.1-9.5-3.6-2.4,0.7c3,1.8,4.2,2.8,4.2,3.4c0,1.3-1.6,1-6.3-1.1
	c-2.4-1.1-4.6-1.9-5.1-1.9c-0.8,0-0.8,0-0.1,0.8c0.4,0.5,2,1.7,3.5,2.6c1.8,1.2,2.8,2.1,2.8,2.6c0,1-0.5,0.9-4.9-1.2
	c-3.5-1.7-4.6-1.8-4.6-0.6c0,0.6,0.8,1.4,2.3,2.4c2.6,1.7,3.1,2.3,2.5,2.9c-0.3,0.3-1.5,0-3.3-0.7c-1.6-0.6-3.3-1.1-3.7-1.1
	c-1.4,0-0.9,1.5,1.3,3.7c2.8,2.8,2.2,3.4-1.4,1.5c-2.8-1.4-4-1.5-4.5-0.2c-0.1,0.4,0.4,1.4,1.1,2.4c0.8,1,1.3,2,1.1,2.4
	c-0.2,0.6-0.6,0.5-2.6-0.5c-2.6-1.3-3.3-1.1-2.2,0.5c1.4,2.2,0.8,2.8-1.9,1.9c-1.3-0.4-1.5-0.4-2.2,0.4c-0.7,0.9-0.7,1,0.1,2.8
	c0.4,1,0.7,2,0.5,2.2s-1.2-0.1-2.1-0.6c-2.3-1.2-3.3-0.9-2.9,1.1c0.3,1.9-0.4,2.5-2.2,2c-1.6-0.5-1.8-0.3-1.8,1.3s-0.2,1.7-2.2,1.1
	c-2.1-0.6-2.6-0.1-2.1,2.2c0.4,1.9-0.2,2.2-2.2,1.2c-1.7-0.9-2.2-0.7-2.8,1.1c-0.5,1.4-0.6,1.5-2.1,1.3c-1.4-0.1-1.6,0-2.2,1.2
	c-0.9,1.8-2,1.7-4.1-0.3c-1.9-1.8-2.3-3.4-1-4.5c0.4-0.4,2.9-1.9,5.5-3.4c11.5-6.6,18.2-12.8,22-20.4c1.9-3.9,2.4-7.2,1.3-9.9
	c-1.8-4.8-7.6-6.9-10.8-3.9c-0.9,0.8-1.1,1.4-1.1,2.9c0,2.3,1.1,3.8,3.4,5c2.4,1.2,3.1,2,2.7,3.4c-0.7,2.8-4.5,8.9-8.3,13.4
	c-3.7,4.3-9.6,8-16.8,10.4c-3.3,1.1-4.7,0.9-6.8-0.9c-2.5-2.2-2-3.1,3.3-5.7c6.6-3.3,12-7.8,15-12.4c2.8-4.3,2.8-4.7,0-7.6
	c-3.2-3.3-3.4-3.8-3.3-8.3c0.1-2.1-0.1-4-0.3-4.3c-0.2-0.2-2.4-1.2-4.9-2.2c-6.4-2.6-9.7-4.7-11.2-7.5c-1.1-1.9-1.3-2.6-1.3-5.7
	c0-5.9,2.4-12.1,8-20.5c2-3,3.6-5.6,3.6-5.9c0-0.3-0.3-0.6-0.8-0.7c-1.8-0.6-10.4-2-18-3.1c-4.5-0.6-11.5-1.6-15.5-2.2
	c-27.2-3.8-64.6-5.6-108.5-5.2c-25.4,0.2-29.9,0.4-49.2,2C132,51.3,99.7,56,98.6,57.7c-0.4,0.6,0.3,1.7,4.1,6.6
	c5.7,7.3,7.5,10.9,8,15.9c0.5,4.9-1.5,7.9-9.5,13.8l-4.7,3.5l0.3,2.2c0.2,2,0.1,2.4-1,4.2c-0.7,1.1-2.2,2.5-3.2,3.2
	c-2.5,1.7-3.3,3.1-3.3,6c0,3.1,2,7.1,4.5,9.1c4.2,3.4,16.3,9.4,22.1,11.1c3.6,1,4.5,1.5,4.5,2.3c0,0.3-1.6,2.2-3.5,4.3
	c-4,4.3-4.3,4.4-9.8,2.9c-8.1-2.2-19.1-9.1-26.6-16.6c-5.8-5.8-8-8.8-8.2-11.1c-0.2-1.7-0.1-1.9,1.6-3.1c2.7-1.9,3.6-3.3,3.1-4.8
	c-0.6-1.8-2.9-3-5.8-2.9c-3.1,0-4.5,0.9-5.6,3.5c-2.1,4.7,1.2,12.9,7.9,20c3,3.2,5.5,4.9,15.2,10.9c4.5,2.8,8.9,5.7,9.9,6.6
	c1.5,1.3,1.6,1.6,1.1,2.2c-0.5,0.5-1.1,0.7-3,0.5c-3-0.3-7.6-2.4-14.8-6.8c-6.1-3.7-31.9-17.3-36.2-19.1c-1.7-0.7-5.3-2-8-3
	c-7.9-2.8-9.1-3.6-9-6.6c0-3.9,2.4-6.7,10.3-11.9c2.3-1.5,4.1-2.9,4.1-3.2c0-0.9-8.2-3.3-13.1-3.8c-5.7-0.6-6.3-0.5-5.9,1.7
	c0.1,0.9,0.4,3.2,0.5,5.1c0.2,3,0.2,3.7-0.7,5.3c-1.4,2.7-3.6,5-6.3,6.4c-3.4,1.8-3.7,1.5-4.4-4.6c-0.3-2.7-0.7-6.2-0.9-7.7
	c-0.4-3.1-0.2-4.6,1.1-7.2c1.8-3.5,6.8-7,12.4-8.6c3.2-0.9,4.6-1.1,9.8-1.1c3.4,0,9.5,0.3,13.6,0.7c15.1,1.4,21.6,1,28.5-1.6
	c4.2-1.6,9.9-5.2,9.9-6.2c0-2-9.4-1.9-20.5,0.4c-30.2,6.2-36.8,6.5-42,2.2c-2-1.7-2.8-3.8-4.1-10.6c-1.2-6.5-1.4-7.2-5-12.5
	c-1.4-2-3-4.9-3.7-6.5C10.2,44,10.9,38.1,14,34.4c3.3-4,15.5-8,41.3-13.6C110.6,8.6,166,2.9,227,2.9c28.2,0,41.9,0.5,64.8,2.2
	c5.8,0.4,23.2,2.6,29.5,3.6c2,0.3,7.2,1.1,11.4,1.7c18.8,2.7,46.1,8.1,60.8,11.9c13.3,3.5,29.5,8.6,35.6,11.3
	c8,3.6,9.8,5.9,9.4,12.8c-0.2,4-1.6,7.3-5.6,12.5c-3.2,4.2-4,6.2-4.7,11c-0.3,1.9-0.7,4.1-0.9,4.8c-0.6,2-2.7,3.8-5.9,5.1
	c-4.4,1.7-6.7,1.8-13.7,0.3c-17.7-3.8-28.5-5.3-38.6-5.4c-8.3-0.1-9.9,0.2-9.9,1.4c0,1.2,3.3,4.2,6.3,5.6c4.9,2.4,3.9,2.4,41.4,1.4
	c15.8-0.4,22.7,0.6,28.3,4.2c2.5,1.6,3.6,3,5.6,6.7c1.3,2.5,1.4,2.7,0.9,5.2c-0.5,2.6-4.4,11.8-5.5,13.2c-1.1,1.2-2.7,0.1-4.4-3.1
	c-1.1-2.1-1.4-3.7-1.7-9.4c-0.3-6.3-0.2-6.2-8-5.9c-8,0.3-11.1,1.6-7.9,3.5c3.8,2.3,12.2,10.2,15.8,14.9c2.9,3.9,3.4,6.1,1.9,9.3
	c-1.1,2.3-2.6,3.1-6.6,3.8c-6.5,1.1-7.6,1.4-12.4,3.9c-5.8,3-22,12.4-26.7,15.5c-7.6,4.9-19.4,9.6-26.9,10.5
	C357.1,155.7,356.8,155.6,356.2,154.7z M438.4,102.7c0.7-1.6,1.1-3.2,0.9-3.7c-0.3-0.8-3.5-3-4.4-3c-0.8,0-1.4,2.7-1.4,6.6
	c0,3.1,0.2,4.1,0.8,4.7c0.7,0.8,0.8,0.8,1.9-0.5C436.8,106.2,437.8,104.3,438.4,102.7z M19.3,106.1c2.5-2.7,2.9-5.8,1.3-11.5
	c-1.1-4.2-1.7-4.5-3.8-1.9c-1.3,1.6-1.5,2.2-1.6,4.8c-0.2,2.8,0.4,6.4,1.3,8.8C16.9,107.6,17.9,107.6,19.3,106.1z M362.5,95.5
	c6-2.8,8-3.1,19.1-3.1c7.8,0,11.5,0.2,17.5,1l7.6,1l5.2-1.3c6.8-1.8,12.6-2.1,18.2-1.1c2.3,0.4,4.7,0.8,5.5,1
	c1.9,0.3,1.9-0.7-0.2-2.6c-3.9-3.7-8.8-4.3-32-3.9c-9.7,0.2-21.1,0.3-25.3,0.3c-7.5,0-7.9-0.1-11.3-1.3c-4.3-1.6-7.8-3.8-9.9-6.4
	c-1.1-1.4-1.9-1.9-2.7-1.9c-1.7,0-7.8,3.9-10.4,6.7c-1.9,2-2.2,2.5-2,3.6c0.4,1.8,1.5,3.2,4.2,5c2.4,1.7,9.9,4.5,12.1,4.6
	C358.8,96.9,360.7,96.3,362.5,95.5z M57.8,94.2c6-0.9,17.9-0.9,23.5,0c2.4,0.4,5.8,0.8,7.5,0.9l3.2,0.2l4.8-2.4
	c3.8-1.9,5.5-3.1,7.9-5.4c1.7-1.6,3-3.2,3-3.6c0-1.4-4.2-4-10.2-6.2c-3.3-1.2-4.3-1.3-5.7-0.1c-3.6,2.9-9.4,5.9-15.3,8
	c-3.7,1.3-10.9,1.8-20.9,1.4c-21.9-0.9-23.1-0.9-26.7-0.4c-7,1-9.4,3-3.6,3c4.9,0,15,2.2,21.7,4.7C49.6,95.3,50.2,95.3,57.8,94.2z
	 M347.5,77.5c9-5.3,12.4-6,27.5-5.2c10.4,0.5,18.7,1.6,30,4.1c7.4,1.6,11.6,1.9,14.3,0.9c2-0.7,2.1-1.4,0.4-2.4
	c-4.8-3-43.4-13.1-57.4-15c-5.1-0.7-5.9-0.7-7.3-0.2c-2.4,0.9-8,7.9-10.5,12.8c-2,4.1-2.9,7.5-1.9,7.5
	C342.9,80.1,345.1,79,347.5,77.5z M107.1,77.1c-0.3-2.6-5.8-10.5-11.4-16.5c-1.4-1.5-2.2-2-3.2-2c-3.5,0-29.3,5.9-44,10
	c-7.1,2-17.1,7-16.4,8.2c0.1,0.2,3.1,0.4,6.5,0.4c5.7,0,7.1-0.2,17.1-2.1c26.8-5.3,31.3-5.2,45.3,1c2.9,1.3,5.5,2.3,5.7,2.2
	C107,78.1,107.2,77.6,107.1,77.1z M29.7,73.6c9.6-5.9,22.2-9.7,51.9-15.9c23.6-4.9,48.1-8.4,75-10.8c5.5-0.5,10.5-1,11-1.1
	c5-1.1,58.2-1.5,84.6-0.6c34.7,1.2,37.9,1.4,54.4,3.5c22.3,2.8,40.6,5.9,63,10.3c18.9,3.8,22.2,4.6,42.6,10.5
	c5.4,1.6,10.4,2.9,11.2,2.9l1.4,0.1l0.7-3.2c1-5,1.6-6.4,4.6-10.9c3.4-5.1,5-8.7,5.2-12.2c0.5-7.6-1.8-9.2-22.6-15.4
	C385.4,22.7,358.2,16.6,333,13c-2.7-0.4-8-1.2-11.6-1.7C291.6,6.7,254.3,4.7,214,5.5c-29.8,0.6-45.3,1.6-79.2,5.2
	c-26.4,2.8-43.4,5.3-63,9.5c-5.7,1.2-12,2.5-14,2.8c-5.7,1-21.7,4.8-27.6,6.5s-10.9,3.8-13.3,5.6c-2.3,1.8-3.3,4.4-3,8.3
	s1.2,6.3,4,9.5c2.5,2.9,4.4,5.7,5,7.2c0.3,0.7,0.8,4,1.2,7.3c0.8,5.9,1.3,7.9,2.2,7.9C26.6,75.4,28.1,74.6,29.7,73.6z M412.4,63.8
	c-2-2-1.8-4.1,1.3-13.1c2.9-8.5,3.5-9.9,5.1-11.6c0.8-0.9,1.5-1.2,2.7-1.2c3.3,0,4.7,2.6,3.7,6.6c-0.9,3.4-5.2,15.9-6,17.6
	C417.5,65.3,414.6,66,412.4,63.8z M416.9,60.4c1.1-2.2,4-10.9,5.2-15.6c1-3.8,0.2-5.6-1.6-3.6c-0.8,0.9-3.9,9.6-5.7,15.8
	c-1,3.4-1.1,4.3-0.7,4.9C415.1,62.9,415.8,62.5,416.9,60.4z M34.7,63.5c-0.5-0.4-1.4-1.3-1.9-2.2c-1.1-1.7-7.3-20.2-7.3-21.6
	c0-1.1,1-1.6,1.7-0.8c0.3,0.3,2,5,3.9,10.4s3.7,10.3,4.1,10.8c0.4,0.6,1,1,1.6,0.9c1.5-0.2,1.2-2.2-2.2-12.6
	c-4-12.4-3.7-11.4-2.9-11.7c0.4-0.2,1,0,1.4,0.4c1,1,7.5,20.5,7.5,22.6c0,1.3-0.3,2.2-1,2.9C38.4,64,36,64.5,34.7,63.5z M402.5,60.7
	c-1.7-1.7-1.7-3.4,0.5-11.1c2.2-7.8,4-12.7,5.3-13.9c1.6-1.5,3.4-1.6,4.8-0.4c1.5,1.2,1.8,3.6,1,6.6c-0.5,1.9-0.7,2.2-1.6,2.2
	c-1.1,0-1.1,0-0.9-3.4c0.2-3.3,0.1-3.4-0.9-3.2c-0.9,0.1-1.2,0.8-2.6,4.9c-2.3,6.8-4.3,14.9-4,16.1c0.4,1.8,1.7,0.9,3.2-2.4
	c1.5-3.1,2.1-3.6,3-2.6c0.6,0.7,0.2,2.3-1.4,5.3C407.1,62.2,404.6,62.9,402.5,60.7z M44.6,60.4c-0.7-0.4-2.2-4.8-5.1-15.1
	c-2.5-8.9-2.7-10.5-1.2-10.7c0.7-0.1,1.5,0.7,3.5,3.7c2.4,3.5,4,5.4,4,4.7c0-0.1-0.5-2.3-1.1-4.8s-1-4.7-0.8-5
	c0.6-0.9,1.4-0.3,2.3,1.7c1.8,4.3,6.6,20.5,6.6,22.4c0,1.3-1.2,1.7-1.9,0.7c-0.3-0.4-1.8-2.7-3.2-4.9c-3.1-4.8-3.8-5.8-4.1-5.5
	c-0.1,0.1,0.5,2.9,1.3,6.2C46.4,60.2,46.4,61.5,44.6,60.4z M396.2,58.8c-0.1-0.4-0.1-1.6,0-2.7c0.5-3.4,5.8-22.6,6.3-23
	c0.8-0.5,1.7,0,1.7,1.1c0,2.2-5.7,23.7-6.5,24.7C397,59.6,396.5,59.6,396.2,58.8z M392.1,57.3c-0.2-0.5-0.4-1.4-0.5-2
	c0-1.8-0.5-4.4-0.8-4.4c-0.2,0-1,1.2-1.9,2.6c-1.9,3-2.5,3.6-3.4,3.2c-0.9-0.4-0.9-1.3,0.1-2.7c0.4-0.6,1.8-3.2,3.1-5.7l2.3-4.5
	l0.2-6.6c0.1-5.3,0.3-6.7,0.8-6.9c1-0.4,1.5,0.4,1.8,3.3c0.3,3.1,1,3.7,2,1.8s2.9-4,3.3-3.7c0.8,0.5,0.3,2.1-2.2,7.2l-2.6,5.3v6.3
	c0,3.5-0.1,6.6-0.3,7C393.7,58.4,392.7,58.3,392.1,57.3z M55.3,56.5c-0.6-1.1-5.4-18.1-6.1-21.6c-0.4-2-0.4-2.8-0.1-3.1
	c1.4-1.4,2,0,5.9,14.5c2.2,8.2,2.6,10.7,1.4,10.9C56.1,57.2,55.5,56.9,55.3,56.5z M379.1,55.3c-1.9-0.6-2-0.7-2-2
	c0-2.8,5-23.9,5.8-24.8c0.5-0.5,1-0.5,3.1-0.1c2.5,0.5,4.1,1.5,3.5,2.1c-0.2,0.2-1.2,0.3-2.3,0.4c-1.2,0-2.1,0.3-2.4,0.7
	c-0.6,1-1.2,3.4-1.5,6c-0.2,2.3-0.2,2.4,1.1,3.1c1.7,0.9,1.5,1.7-0.4,2.1c-0.8,0.2-1.7,0.6-2,1c-0.7,0.9-2,8.3-1.6,8.9
	c0.2,0.3,1,0.7,1.8,1.1c1,0.4,1.4,0.9,1.3,1.4C383.2,56,381.6,56.1,379.1,55.3z M62.4,54.6c-0.7-1.1-7.1-16.6-8.5-20.7
	c-0.9-2.6-0.8-3.8,0.2-3.8c0.6,0,1.2,1.1,4.6,8.5c0.8,1.7,1.6,3.1,1.8,3.1s0.2-2.1,0.1-5.1c-0.5-7.5-0.5-8,0.3-8.2
	c0.4-0.1,0.8,0.2,1,0.6c0.5,1.4,2.4,17.9,2.5,22.1c0.1,3.5,0,4.1-0.6,4.2C63.4,55.5,62.8,55.1,62.4,54.6z M70,53.3
	C69.8,53,69.4,52,69.1,51c-0.8-3-3.9-18.4-4.2-21c-0.3-2.3-0.2-2.5,0.7-3c1.6-0.8,4.4-1.2,5.3-0.7c0.8,0.4,0.8,0.5-0.2,1.2
	c-0.6,0.4-1.3,0.8-1.5,0.8c-0.3,0-0.7,0.3-1,0.7c-0.4,0.5-0.4,1.3,0.2,4.2c0.4,1.9,0.9,3.7,1.2,4c0.2,0.3,1.1,0.7,1.9,0.8
	c1.9,0.3,1.9,1,0.1,2.5l-1.4,1.1l0.7,4.2c0.4,2.3,1,4.5,1.2,4.8c0.3,0.3,1.3,0.6,2.4,0.6c1.4,0,1.9,0.2,1.9,0.7
	C76.4,53.1,70.9,54.4,70,53.3z M372.5,53.2c-0.1-0.3,0.1-2.8,0.4-5.5c0.8-5.7,0.9-8.3,0.2-7.2c-0.2,0.4-1.1,2.5-1.9,4.7
	c-1.9,5.3-2.9,7.2-3.6,7.2c-0.4,0-0.6-0.7-0.6-2.5c0-3.5-0.5-12.2-0.7-12c-0.1,0.1-0.7,2.9-1.5,6.2c-0.7,3.3-1.4,6.3-1.5,6.7
	c-0.3,0.9-1.4,1-1.7,0.2c-0.4-0.9,3.7-24.1,4.4-25.2c0.7-1.1,1.4-1.2,2.7-0.3c0.9,0.6,1,1,1,5.5c0,2.7,0.2,5.2,0.4,5.7
	c0.3,0.8,0.4,0.7,1.1-0.6c0.4-0.8,1.3-3.1,2.1-5.1c1.5-3.9,2.2-4.6,3.9-4.2c1,0.2,1.1,0.5,1.1,1.7c0,1.5-2.7,18.5-3.5,22.1
	C374.2,53.5,373.1,54.7,372.5,53.2z M78.6,51.3c-0.5-0.9-4.8-23.1-4.8-24.6c0-1.3,1.2-2,3.7-1.9c2.7,0.1,3.4,0.5,4.5,3
	c1.3,3,1.8,6.4,1.2,8.8c-0.6,2.3-0.5,2.7,2.2,9.7c1.4,3.7,1.4,4.5,0.1,4.5c-0.8,0-1.2-0.6-3.7-6.5c-1.8-4.2-2.1-4.2-1.7,0
	c0.6,6.1,0.5,7.5-0.3,7.7C79.3,52.1,78.8,51.8,78.6,51.3z M80.7,35.5c0.5-1.2-0.3-5.8-1.1-7.1c-0.8-1.2-1.8-1.6-2.4-1
	c-0.5,0.5,0.3,5.9,1.2,8.2C79,37.1,80.1,37.1,80.7,35.5z M90.7,50c-1.2-0.2-2.6-1.9-3.2-4c-1.1-3.6,0.8-4.1,2.5-0.6
	c1.2,2.4,2,2.9,3.1,1.9c1.5-1.5-0.1-6.3-3.4-10c-1.5-1.7-3.1-4-3.7-5.2c-2.4-5.2-0.3-10.7,3.6-9.1c1.7,0.7,2.8,2.4,2.9,4.4
	c0.1,2.3-1,2.1-2.2-0.4c-0.5-1.1-1.3-2-1.6-2c-1.6,0-1.8,3.3-0.3,6.3c0.4,0.7,1.8,2.6,3.1,4.1c2.8,3.2,4.1,5.5,4.5,8
	c0.3,1.8-0.2,4.3-1.1,5.5C94.2,49.6,92.1,50.2,90.7,50z M98.6,47.7c-1-2.9-4.2-22.6-4-24.4c0.1-0.8,0.4-1.2,1-1.2
	c1.1,0,1.3,1,3.4,13.2c1.7,9.8,1.8,12.6,0.6,12.9C99.1,48.2,98.7,48,98.6,47.7z M340.5,47.9c-2.1-0.4-2.1-1.6,0.8-17.5
	c1.4-7.9,1.8-9.3,2.8-9.7c1.2-0.5,3.8,0.3,5,1.6c1.1,1.1,1.2,1.5,1.2,4.1c0,4-2,15.9-3.1,18.2C345.8,47.6,343.8,48.5,340.5,47.9z
	 M344.4,44.6c0.7-1.1,3.7-15.9,3.7-18.4c0-1.8-0.9-3.1-2.1-3.1c-0.6,0-0.9,0.6-1.5,3.1c-0.9,3.8-0.9,5.5,0,6.6
	c1,1.3,0.8,2.7-0.4,3.5c-0.6,0.4-1.2,1.1-1.4,1.6c-0.6,1.8-1.4,6.5-1.1,7.1C341.9,46,343.7,45.7,344.4,44.6z M103.6,47.2
	c-0.7-0.8-4-21.1-4-24.5c0-2.1,0.8-2.6,3.8-2.6c1.9,0,2.3,0.2,3.2,1.3c1.4,1.6,1.8,3,3.1,11c1.8,10.8,1.3,13.9-2.2,14.9
	C105.4,47.9,104.2,47.9,103.6,47.2z M107.6,44.5c0.8-0.8,0.8-2.1,0-8.6c-1.3-10.5-2.3-13.6-4.2-13.6c-0.9,0-0.9,0.1-0.7,3.8
	c0.3,4.2,2.2,16.2,2.9,18C106.2,45.3,106.7,45.5,107.6,44.5z M113.6,45.5c-0.2-0.3-0.4-6.3-0.5-13.3c-0.1-11.1,0-12.8,0.5-13.3
	c0.5-0.4,0.8-0.4,1.3,0c1.2,1,7.6,22,7.6,25.1c0,0.5-0.3,0.8-0.8,0.8c-0.6,0-1-0.6-1.6-2c-1-2.8-1.4-3.2-3-3
	c-1.3,0.1-1.3,0.2-1.8,3.1C115,45.7,114.4,46.7,113.6,45.5z M117.3,34.5c0-1.8-1.6-5.7-1.7-4.2c-0.1,1.3,0.1,5.1,0.3,5.5
	c0.1,0.2,0.5,0.3,0.8,0.3C117.2,36.1,117.3,35.6,117.3,34.5z M124.8,44.2c-0.5-0.6-2-10.8-3.1-21c-0.6-5.7-0.4-6.1,2.9-6.1
	c2.5,0,3.9,0.7,4.7,2.5c0.8,1.7,2.2,10.5,2.6,16.6c0.3,4.8-0.1,6.3-1.9,7.4C128.1,44.6,125.4,45,124.8,44.2z M129.5,39.5
	c0.3-4.6-1.7-18-2.9-19.3c-0.8-0.9-2.1-1.1-2.4-0.3c-0.6,1.6,2.1,20.5,3.1,21.7C128.2,42.6,129.4,41.6,129.5,39.5z M323.8,43.4
	c-0.2-0.8-0.3-2-0.3-2.8c0-1.5-0.6-2.2-1.9-2.4c-0.7-0.1-1.1,0.4-2,2.2c-1.4,2.8-2,3.6-2.5,3.2c-0.7-0.5-0.4-2.2,1.8-9.7
	c4.6-15.8,5.2-17.2,7-16.3c0.8,0.4,0.8,0.8,0.5,11.7c-0.4,13-0.6,15.1-1.6,15.3C324.3,44.7,324,44.4,323.8,43.4z M323.8,32.9
	c0.3-2.1-0.1-4.2-0.7-3.8c-0.2,0.1-0.7,1.3-1.1,2.6c-0.5,1.8-0.6,2.5-0.2,3C322.6,35.6,323.5,34.9,323.8,32.9z M312.1,36.4
	c0.2-4.4,0.1-6.7-0.1-6.1c-0.2,0.5-1.2,3.4-2.2,6.6c-1.4,4.6-1.9,5.7-2.5,5.6c-0.8-0.1-0.8-0.6-1.6-10.8c-0.1-1.9-0.4-3.3-0.5-3.1
	c-0.1,0.1-0.7,3.1-1.2,6.6c-1,6.5-1.7,8.2-2.8,6.9c-0.6-0.7-0.4-4.2,1.3-17.7c0.9-7.4,1.5-9.3,2.9-9.3c1.9,0,2.2,0.9,2.7,6.5
	c0.2,3,0.6,5.6,0.8,5.8c0.2,0.2,1-1.6,2-4.7c0.9-2.8,1.8-5.4,2-5.7c0.6-0.7,2.7-0.7,3.3,0.1c0.5,0.7,0.3,3.5-1.3,17.3
	c-0.9,7.9-1.3,9.3-2.4,9.3C311.9,43.5,311.8,42.8,312.1,36.4z M293,41.9c-0.5-0.1-1.4-0.8-2-1.5c-1.3-1.6-1.4-3.8-0.5-12.2
	c1.2-10.8,2.1-13.3,4.7-14.1c1.6-0.5,4,0.6,4.6,2.2c0.6,1.5,0.2,11.6-0.7,17.5c-0.8,5.1-1.8,7.4-3.7,8c-0.8,0.3-1.4,0.5-1.4,0.4
	C294,42.1,293.6,42,293,41.9z M295.5,37.7c0.6-1.8,2.2-15.1,2.2-18.1c0-4-2.1-4.6-3-0.9c-1.1,4.7-2.2,19.5-1.5,20.1
	C293.9,39.6,295,39.1,295.5,37.7z M146.3,39.7c-0.5-1.8-1.4-8.6-2.4-17.7c-0.6-5.7-0.6-6.3,0-6.9c1.1-1.1,1.9-0.2,4.1,4.7
	c2.6,5.7,3.2,6,2.8,1.5c-0.1-1.9-0.3-4.1-0.5-5c-0.2-1.2,0-1.7,0.5-1.9c0.4-0.1,0.9-0.1,1.1,0.1c0.8,0.8,3.7,23.6,3.2,25.2
	c-0.6,1.8-1.7,0.5-4.1-5c-3.4-7.9-3.4-7.9-3.4-4.5c0,1.6,0.2,4.4,0.4,6.2c0.3,1.8,0.3,3.7,0.2,4.1C147.8,41.8,146.8,41.4,146.3,39.7
	z M285.6,40.1c-0.4-0.7-3.1-12.7-3.1-13.7c0-0.2-0.2-0.2-0.4,0s-0.7,3.2-1.1,6.6c-0.4,3.4-0.8,6.3-0.9,6.6c-0.1,0.2-0.6,0.4-1.1,0.4
	c-0.7,0-0.8-0.3-0.8-2c0-4.4,1.8-24.1,2.2-24.7c0.3-0.3,0.9-0.5,1.4-0.5c0.8,0.1,1.1,0.8,2,4.7c1.3,5.2,1.6,6.2,1.9,5.9
	c0.1-0.1,0.5-2.2,0.9-4.6c0.3-2.4,0.7-4.6,0.9-4.8c0.4-0.6,1.4-0.4,1.6,0.2c0.4,1-1.1,22.6-1.7,25.1C287.2,40.7,286.1,41,285.6,40.1
	z M157.2,38.4c-0.5-3.1,0.5-24.2,1.1-25c0.7-0.9,1.6-0.8,2.1,0.2c0.7,1.4,5.6,21.6,5.8,23.7c0.1,1.8,0,2-0.7,2c-0.6,0-1-0.6-1.5-2
	c-0.8-2.4-1.6-3.4-2.7-3.4c-1,0-1.3,0.5-1.9,3.6c-0.3,1.9-0.7,2.7-1.2,2.8C157.7,40.5,157.5,40,157.2,38.4z M161.8,29.4
	c0-1.5-0.9-4.5-1.4-4.5s-0.6,3.7-0.1,5.1C160.6,31,161.8,30.6,161.8,29.4z M170.1,39.4c-1.9-1.4-2.8-5.7-3.4-16.9
	c-0.3-5.5,0.1-8.3,1.4-9.8c0.7-0.8,3.1-1,4.4-0.3c1.8,1,3,7.5,1.5,8.1c-0.9,0.3-1,0.2-1.7-2.7c-1.3-5-3.2-4.6-3.2,0.7
	c0,4,1.2,16,1.7,17.3c0.5,1.3,1.5,1.8,2.2,1.1c0.3-0.3,0.5-1.7,0.5-3.1c0-1.7,0.2-2.9,0.6-3.5c0.6-0.8,0.7-0.8,1.3,0
	c0.8,1,0.8,3.8,0.2,6.5C174.8,39.6,172.2,40.8,170.1,39.4z M269.5,39.5c-1.5-0.9-2-2.8-2-7.4c0-5.7,0.7-15.2,1.3-17
	c1.4-4.3,7.1-4,8,0.5c0.3,1.8-0.5,17.1-1.1,19.9c-0.6,2.8-2,4.4-4,4.4C270.9,40,269.9,39.8,269.5,39.5z M273.2,34.3
	c0.6-4.8,1.1-16.1,0.8-17.8c-0.2-1.3-0.5-1.8-1.3-1.9c-1.4-0.2-1.7,0.9-2.2,8.2c-0.7,9.3-0.6,13.5,0.2,14.3c0.6,0.6,0.8,0.6,1.5,0
	C272.7,36.8,273.1,35.6,273.2,34.3z M248.3,37.8c-0.6-0.7-1.2-2-1.4-2.9c-0.4-2.2,0.6-21.9,1.2-23c0.3-0.5,0.7-0.8,1-0.7
	c0.4,0.1,0.5,3.4,0.5,12.3c0,10.5,0.1,12.2,0.7,12.8c0.8,0.8,2,0.5,2.3-0.7c0.1-0.4,0.5-5.8,0.8-12s0.7-11.4,0.9-11.7
	c0.5-0.9,1.5-0.5,1.8,0.7c0.5,2-0.6,21.8-1.3,23.5C253.5,39.3,250.3,40.1,248.3,37.8z M260.6,38.4c-0.3-0.5-0.2-5,0-12.4l0.5-11.6
	l-1-0.8c-1.5-1.2-0.9-2.1,1.6-2c4.3,0.1,5.9,1.1,3.6,2.2c-1.4,0.7-1.6,1.7-2.2,12.1c-0.3,4.9-0.6,9.9-0.8,11
	C262.1,39,261.3,39.7,260.6,38.4z M178.8,38.3c-0.8-1.3-2.2-24.7-1.5-25.9c0.5-0.9,1.1-1.1,1.5-0.5c0.4,0.7,1,6.7,1.6,16.3
	c0.4,7.4,0.4,9.2,0,9.8C179.7,38.8,179.2,38.9,178.8,38.3z M185,38.2c-1.6-1.2-2.1-3.7-2.5-12.8c-0.5-9.5-0.3-11.8,1.4-13.5
	c2-2,5-1.4,6.3,1.2c0.9,1.8,1.8,16.5,1.3,20.5c-0.4,3.2-1.8,5-4.1,5C186.4,38.7,185.4,38.5,185,38.2z M188,36.2
	c0.3-0.2,0.7-1.1,0.8-2.1c0.3-2.5-0.6-19.5-1.2-20.5c-0.6-1.1-1.6-1.1-2.4,0.2c-0.6,1-0.7,2-0.2,11C185.5,36.1,185.9,37.5,188,36.2z
	 M194.4,37.9c-0.4-0.6-1.1-14.4-1.1-20.1c0-5.9,0.3-6.9,1.7-6.9c0.9,0,1.2,0.5,2.8,4.8c1,2.7,1.9,4.9,2,5.1c0.1,0.1,0.4-2,0.6-4.7
	c0.3-4.4,0.4-5,1.1-5c1.1,0,1.4,1.8,1.7,12.3c0.4,12.1,0.3,14-0.8,14c-0.9,0-1.4-1.2-3.7-8.2c-0.7-2-1.3-3.8-1.5-4
	c-0.4-0.4-0.9,4.4-0.9,9.1c0,2-0.1,3.6-0.2,3.6c-0.1,0-0.5,0.1-0.8,0.2C194.9,38.2,194.5,38.1,194.4,37.9z M216.5,37.6
	c-0.6-0.8-0.6-0.3-0.5-15.4c0.1-11.3,0.1-11.5,1-11.5c0.5,0,1,0.2,1.1,0.5s0.3,5.9,0.5,12.4l0.3,11.8L221,36c1.2,0.3,2,0.8,1.9,1.1
	C222.5,38.3,217.4,38.7,216.5,37.6z M205.2,37.2c-0.5-1.2,1.9-22.3,2.8-25.1c0.4-1.1,0.7-1.4,1.4-1.3c1.3,0.2,1.7,1.6,3.5,13.2
	c1.8,11.3,1.9,12.9,0.9,13.3c-0.9,0.3-1.4-0.5-1.7-2.6c-0.2-0.9-0.6-2.1-1-2.6c-0.6-0.8-0.9-0.8-1.8-0.5c-0.8,0.3-1.2,1.1-1.7,3.2
	C206.8,37.6,205.8,38.7,205.2,37.2z M210.4,27c0.1-0.6-0.1-2-0.4-3c-0.5-1.7-0.5-1.8-0.8-0.8c-0.4,1.4-0.5,4.5-0.1,4.9
	C209.7,28.6,210.3,28.1,210.4,27z M236,36.6c0-2.5,2.4-18.4,3.5-23.4c0.4-1.7,0.6-2,1.5-2c0.6,0,1.1,0.2,1.3,0.4
	c0.8,1.3,3.1,23.4,2.6,25.3c-0.3,1.2-1.3,1.4-1.7,0.5c-0.1-0.3-0.4-1.5-0.5-2.6c-0.4-2.4-1.1-3.2-2.7-2.6c-0.9,0.3-1.3,0.9-1.8,3
	c-0.5,1.8-0.9,2.6-1.4,2.7C236.1,37.9,236,37.6,236,36.6z M241.5,26.5c-0.1-2.3-0.6-4.2-1-3.3c-0.7,1.7-1.1,4.5-0.7,5
	C240.8,29.2,241.6,28.3,241.5,26.5z M76,154.7c-0.3-0.3-0.5-1.7-0.5-3.2c0-3.5-0.7-3.9-1.1-0.6c-0.3,2.7-1,3.7-2.1,3.3
	c-0.5-0.2-0.7-1-0.7-3.3c0-4.5-0.8-4-1.5,1c-0.2,1.7-0.4,2-1.2,2c-2.1,0-2.4-1.6-1.3-6.3c0.9-3.5,2.3-4.9,5.1-4.9
	c2.4,0,3.9,0.6,5.2,2c1.2,1.3,1.3,3,0.5,6.8C77.7,154.3,76.8,155.5,76,154.7z M53.1,150.2c-0.4-0.5-0.5-1.8-0.4-4.4
	c0.3-6.2,2.2-8.9,6.2-8.8c2.2,0,3.6,0.8,5.1,2.8c1.2,1.6,1.5,7.8,0.5,9.7c-0.6,1.1-0.9,1.4-1.9,1.3c-1.1-0.1-1.2-0.2-1.3-3.6
	c-0.1-3.8-0.5-4.5-1.6-3.4c-0.6,0.6-0.7,1.3-0.5,3.7s0.1,3-0.4,3.2c-1.4,0.5-2.1-1-2.1-4.7c0-2.2-0.2-3.6-0.5-3.7
	c-0.5-0.2-0.9,2.1-1.1,6.4C55,150.8,54.1,151.5,53.1,150.2z M46.7,147.8c-0.6-0.6-0.7-2.7-0.1-5.5c0.5-2.4,0.3-4.6-0.2-2.4
	c-0.8,3.6-1.2,4.5-2.2,5.6s-1.2,1.1-1.8,0.5s-0.6-1.1-0.2-3.4c0.3-1.5,0.5-3.2,0.4-3.8v-1l-0.4,1.1c-0.2,0.6-0.7,2.2-1.1,3.6
	c-0.8,2.8-2.2,4-3.5,2.9c-0.9-0.8-0.8-2.4,0.4-6.8c1.6-5.5,3.7-7,8.2-5.8c2.8,0.8,4.1,2.5,4.1,5.4c0,2.8-0.8,8.3-1.4,9.3
	C48.7,148.4,47.4,148.5,46.7,147.8z M408.8,147.9c-0.4-0.7-1.2-9-0.9-9.8c0.4-1,1.5-0.7,1.9,0.6
	C410.6,142.1,409.8,149.6,408.8,147.9z M427.1,145.6c-0.7-2.4-0.4-13.5,0.3-14.2c0.3-0.3,0.7-0.4,0.8-0.2c0.2,0.2,0.5,2.6,0.7,5.4
	C429.6,144.5,428.3,150.4,427.1,145.6z M29.1,141.1c-0.2-0.6-0.1-2.6,0.5-6.7c0.4-2.4-0.3-2-2.2,1.6c-1.7,3.2-2.6,3.3-2.6,0.3
	c0-1.2,0.2-3.1,0.4-4.3c0.6-3.2-0.5-2.4-2.3,1.8c-0.8,2-1.8,3.7-2.2,4c-1,0.6-2,0.1-2.7-1.3c-0.5-1-0.5-1.4,0.2-3.3
	c1.2-3.4,3.2-8.1,3.8-9.1c1.3-2,4.7-1.7,8.5,0.8c2.3,1.5,4.1,4.3,4.1,6.4c0,1.6-2.2,8.7-3,9.6C30.8,142,29.4,142,29.1,141.1z
	 M179.4,138.4c-0.9-0.7-1-1.2-1.2-5.5c-0.2-6.7,0.1-9,1.5-9.6c1.7-0.8,2.3-0.6,3.1,1.1c1.1,2.1,5.8,14,5.6,14.1
	c-0.1,0.1-1.9,0.2-4.1,0.4C180.9,139.2,180.3,139.1,179.4,138.4z M184.4,135.5c-0.5-2.1-2.9-7.9-3.3-8.1c-0.5-0.3-0.5,0.7,0,4.8
	c0.6,4.4,0.6,4.5,2.2,4.5C184.6,136.6,184.7,136.5,184.4,135.5z M168.5,138.2c-2.2-0.4-3.1-0.7-3.2-1.2c-0.2-0.9,5.5-12,6.4-12.6
	c0.5-0.3,1.4-0.3,2.8,0c1.7,0.3,2.1,0.6,2.4,1.6c0.4,1.6-0.3,9.5-1.1,11.4c-0.6,1.4-0.7,1.5-2.5,1.4
	C172.3,138.7,170.1,138.5,168.5,138.2z M173.4,135.4c0.5-1,1.3-7.3,1-8.1c-0.5-1.3-2.3-0.1-2.9,2c-0.2,0.6-0.8,2-1.3,3.1
	c-1.2,2.4-1.3,3.2-0.3,3.5C171.6,136.4,173,136.2,173.4,135.4z M191,138.5c-1-0.2-2.3-2.8-4.6-9s-2.3-8,0.1-9.4
	c1.6-0.9,1.6-0.9,2.4-0.1c0.8,0.9,6.6,14.6,7.2,17c0.2,1.1,0.1,1.3-1.1,1.5C193.5,138.8,192.2,138.8,191,138.5z M192.4,133.7
	c0-1.9-3.3-9.5-4.2-9.5c-0.3,0-0.6,0.3-0.6,0.6c0,1.1,2.1,7.7,2.8,8.7C191.3,134.7,192.4,134.8,192.4,133.7z M156.4,137.2
	c-1.9-0.3-3.6-0.8-3.8-1c-0.4-0.4,7.3-10.5,8.9-11.8c1.1-0.9,3.3-0.9,5.4-0.1c1.3,0.5,1.5,0.7,1.5,1.9c-0.1,1.4-4.1,8.6-5.9,10.6
	C161.3,138.1,161.2,138.1,156.4,137.2z M163.2,131.3c1.7-3.7,1.7-3.8,0.9-4.4c-0.5-0.3-1-0.5-1.3-0.5c-0.8,0.2-4.9,6.8-4.7,7.5
	c0.3,0.7,1.7,1.4,2.7,1.3C161.2,135.2,162.3,133.4,163.2,131.3z M198.5,137.4c-1.7-2-7.8-17.1-7.8-19.2c0-1,0.3-1.6,1.6-2.4
	c2.2-1.5,3.7-1.4,5,0.2c2.2,2.7,8.5,16.7,8.5,19c0,1-0.3,1.3-1.7,1.9C201.3,137.9,199.1,138.1,198.5,137.4z M202.3,133.9
	c0.4-0.5,0-1.6-1.5-5c-3.4-7.8-4-8.6-5.2-8.6c-0.6,0-1.2,0.3-1.3,0.7c-0.2,0.6,3.9,10.4,5.3,12.6
	C200.3,134.6,201.5,134.8,202.3,133.9z M246.3,136.8c-4.3-1.2-7.3-3.8-9.6-8.3c-2-3.9-1.9-4,4.7-3.7c5.4,0.2,5.6,0.2,9.4-1.2
	c2.1-0.8,5.5-2.4,7.4-3.7c3.4-2.2,6.9-5.3,6.5-5.7c-0.1-0.1-1.3,0.4-2.7,1.1c-7.3,3.6-13.5,4.3-18.5,2.1c-3.2-1.4-5.1-3.3-6-5.8
	c-0.7-2.1-0.9-4.6-0.3-5c0.2-0.1,2,0,4,0.3c4.6,0.7,7.5,0.1,12.2-2.2c3.9-2,9.4-5.9,9.1-6.4c-0.1-0.2-2.1-0.5-4.5-0.6
	c-3.6-0.2-4.7-0.4-7.2-1.6c-3.8-1.8-5.4-3-7-5.5c-2.1-3.1-2-3.2,3.5-3.2c7.7,0,15-1.1,15-2.2c0-0.2-0.6-0.4-1.4-0.4
	c-2.2,0-6.2-1.2-8.4-2.4c-2.5-1.5-4.2-3.9-4.2-6.3v-1.8l6.4-0.1c6.9-0.1,12-0.9,13.7-2.2l0.9-0.8l-1.3-2.6
	c-2.3-4.4-2.6-8.7-0.7-12.3c1.8-3.5,2.8-3.8,5-1.5c0.8,0.8,1.7,1.5,2.1,1.4c0.3-0.1,1-1.2,1.5-2.5s1.3-2.4,1.6-2.5
	c0.4-0.1,2.1,1,3.9,2.4c5,4,4.7,3.9,7.5,1.4c1.5-1.4,2.7-2.1,3.1-1.9c0.4,0.1,0.7,0.2,0.8,0.2c0.1,0,1.1,1.7,2.3,3.8
	c4.4,7.7,9.1,10.9,18.6,12.8c10.4,2.1,13.4,3.5,15.8,7.5c1.8,3,1.9,5.6,0.4,8.5c-1,2-3.5,4.8-4.2,4.8c-0.2,0-0.6-0.8-0.8-1.8
	c-0.7-2.5-1.6-3.8-3.3-4.5c-1.6-0.7-3.9-0.8-4.9-0.2c-0.8,0.5-0.6,0.7,1.5,1.4c1.4,0.5,1.7,0.8,1.8,1.8c0.2,1.5-1,2.9-3.7,4.5
	c-2,1.2-2.1,1.2-15.2,0.3c-3.7-0.2-4.2-0.2-5.2,0.6c-1.8,1.4-2.3,4.1-2.2,11.7c0,10.2,1.3,14.7,5,18.6c3.9,4.1,9.5,5.5,13.5,3.5
	c1-0.5,2-0.9,2.3-0.9c0.7,0,0.5,3.3-0.2,4.7c-0.9,1.8-4.2,4.6-6.1,5.2c-1,0.3-2.9,0.5-5,0.3c-2.9-0.2-3.9-0.5-7.5-2.2l-4.1-2
	l-1.4,1.6c-2.9,3.4-3.3,3.7-4.6,3.4c-2.1-0.5-4.2-2.4-6.7-5.8c-3.2-4.5-3.9-5.1-5.1-4.5c-0.5,0.3-2.5,1.7-4.3,3.2
	c-3.6,3-8.3,5.5-12,6.5C253.6,137.4,249,137.6,246.3,136.8z M254.3,133c4.1-0.5,10.5-3.8,14.5-7.4c2.3-2,3.4-4.3,3.6-6.9
	c0.1-1.9,0-2.1-1-2.2c-0.8-0.1-2.1,0.6-4.5,2.3c-8.3,6-13.8,8.7-19.9,9.9c-4.5,0.9-4.8,1.1-3.7,2.3c0.5,0.5,1.2,1.1,1.7,1.4
	c1,0.6,4.9,1.1,6.3,1C251.7,133.3,253.1,133.1,254.3,133z M286.9,132c0.8-1,0.8-7.6,0-8.4c-0.5-0.5-1-0.3-2.9,0.7
	c-3.5,1.8-3.8,2.3-2.8,4.4c0.5,1.2,1.4,2.1,2.7,2.9C286.1,132.9,286.2,133,286.9,132z M306.3,131.9c0-0.2-0.4-0.4-1-0.4
	s-2.6-0.6-4.6-1.3s-3.7-1.2-3.8-1.1c-0.2,0.2,2.6,2.3,3.8,2.8C302.1,132.4,306.3,132.4,306.3,131.9z M281.1,120.5
	c0.9-2.7,1.2-8.1,0.5-9c-0.6-0.8-0.7-0.8-2.1-0.1c-0.8,0.4-2,1.2-2.5,1.8c-0.9,0.9-0.9,1.4-0.8,4.5c0.1,3.2,0.3,3.6,1.4,4.6
	c1.1,0.9,1.3,1,2.1,0.5C280.2,122.4,280.8,121.4,281.1,120.5z M255.3,114c4.3-1.3,13.7-8.6,17.4-13.5c1.4-1.9,1.7-2.7,1.7-4.2
	c0-3.2-0.8-2.9-5.7,1.9c-6.4,6.3-14.8,11-21,12c-4.2,0.6-5.2,1.1-5.1,2.1c0.1,0.6,0.7,1.2,1.6,1.7
	C246.1,114.8,252.2,114.9,255.3,114z M288.1,112.4c1.2-2.9,1.5-7.1,0.6-8.9c-1-1.9-2-2.1-3-0.6c-1.5,2.3-0.6,11.4,1.2,11.4
	C287.1,114.2,287.7,113.4,288.1,112.4z M276.4,109.4c3.6-2.6,6.3-7.9,5.2-10c-1-1.8-6.5,2.5-8.7,6.8c-0.7,1.4-0.9,3.6-0.4,4.2
	C273.1,111.1,274.7,110.7,276.4,109.4z M289.9,96.3c0.7-1.5,1.1-3.1,1.2-5.4c0.2-4-0.1-4.5-2.9-3.8c-1.5,0.4-2.1,0.3-3.4-0.3
	c-1.4-0.7-1.7-0.7-3.7,0c-1.5,0.5-2.4,1.1-3,2.1c-1.1,1.7-1.1,4.2,0,5.5l0.8,1l1.8-1.2c1-0.6,1.9-1.2,2.2-1.2c0.2,0,0.9,0.9,1.6,2
	C287,99.4,288.2,99.7,289.9,96.3z M264.5,92.8c3-0.9,8.6-3.8,9.8-5.1c0.8-0.8,0.9-1.2,0.5-2.1c-1-2.6,0.7-6.3,4.1-9.2
	c5-4.3,5.4-4.7,5-6c-0.3-1.1-0.3-2.1,0-7.4c0.1-1.3-0.2-1.7-2.2-3.4c-1.3-1-2.5-1.8-2.7-1.6c-0.6,0.4-0.5,4.6,0.2,6.9
	c0.8,2.7,0.8,3.2,0,3.2c-1,0-4.3-3.2-6.5-6.5c-1.1-1.6-2.2-3-2.4-3c-0.2,0-0.7,0.5-1,1.1c-0.6,1-0.6,1.3,0,3.7
	c0.8,3,1.4,4.1,4.5,7.1c1.2,1.2,2.2,2.4,2.2,2.6c0,0.3-1,0.9-2.1,1.4c-4.3,1.8-7,2.3-14.4,2.5c-8.2,0.2-9,0.6-4.8,2.6
	c3,1.4,7.2,1.7,11.7,1c3.9-0.6,4.5-0.3,4.4,2.8c-0.1,3.3-1.8,4.6-8.3,6.2c-3,0.7-9.7,1.8-11.4,1.8c-0.8,0,0.8,1.3,2,1.7
	C255.7,93.7,261.9,93.6,264.5,92.8z M313.8,89.6c0.3-0.5-1.5-1-5.8-1.8c-3.9-0.7-5.4-1.6-4.9-2.8c0.5-1.3,9.2-4,14.4-4.4
	c3.4-0.2,4-0.2,6.6,0.9c1.6,0.6,2.9,1.1,3.1,1.1c0.7,0,0.1-2.9-0.8-4.1c-1.4-1.8-4-3-9.5-4.3c-6.4-1.5-6.3-1.5-8.8,1.7
	c-1.2,1.5-4.2,4.5-6.7,6.6s-4.6,4-4.6,4.1c0,0.4,2.4,1.1,7.3,2c2.5,0.5,4.9,0.9,5.4,1C311.2,90.1,313.6,90,313.8,89.6z M280.5,83.3
	c0.8-0.4,2.2-1.4,3.2-2.2c1-0.8,2-1.5,2.2-1.5c0.5,0,0.9,1,0.9,2.2c0,0.5,0.3,0.8,0.7,0.8c0.7,0,3.6-2.8,3.6-3.5
	c0-0.2,1.5-1.2,3.3-2.1c3.3-1.7,4.9-3.3,4.9-5.1c0-0.6-0.4-0.4-1.8,1c-2.5,2.4-4.6,3-8.1,2c-2.4-0.7-2.8-0.7-4-0.1
	c-2,1-6.1,4.8-6.8,6.4c-0.5,1.2-0.4,2.6,0.2,2.6C279,84,279.8,83.7,280.5,83.3z M300.7,78.9c3.1-3.1,4.7-5.2,4.7-5.8
	c0-0.2-0.4-0.1-0.8,0.2c-1,0.7-6.5,6.8-7,7.8C296.8,82.6,298,81.8,300.7,78.9z M293.9,70.3c1-0.9,0.5-1.5-1-1.2
	c-1.7,0.3-2.7-0.2-3.4-1.9c-0.7-1.6-1.2-1.7-1.6-0.2c-0.4,1.6,0.5,3.1,2.1,3.9C291.5,71.5,292.7,71.3,293.9,70.3z M295.1,63.1
	c0-0.6-2.2-3.9-3-4.4c-0.9-0.5-1.3,0.2-0.8,1.4C292.1,62.5,295.1,64.8,295.1,63.1z M142.2,136.4c-3.2-0.6-5.1-1.4-5.4-2.2
	c-0.1-0.3,0.7-1.2,1.7-2c3.7-3,16.8-12,17.5-12c1,0,3.9,2.5,3.9,3.4c0,0.7-9.6,11.5-11.3,12.8C147.6,137.2,146.3,137.2,142.2,136.4z
	 M152,129.2c4.7-4.6,4.7-4.7,3.8-5.4c-0.9-0.6-1.2-0.4-6.8,3.3c-5.7,3.9-7,5.1-6.5,6.3c0.3,0.8,2.9,1.5,3.9,0.9
	C146.9,134.1,149.4,131.8,152,129.2z M265.4,136.3c-0.2-0.5,0.3-1.3,1.8-2.6c3.1-2.8,5.4-4.4,6.2-4.4c0.6,0,4.3,5.8,4.3,6.8
	c0,0.4-5.2,0.9-9.4,0.9C266.3,137.1,265.7,136.9,265.4,136.3z M172.9,122.2c-1.2-1.2-0.9-3.9,0.4-4.9c1.3-1,3.8-1.2,4.2-0.3
	c0.2,0.6-0.6,4.8-1.1,5.2C175.7,122.8,173.5,122.8,172.9,122.2z M175.5,119.2c0.1-1,0-1.2-0.6-1.1c-0.5,0.1-0.8,0.6-0.9,1.4
	c-0.1,1,0,1.2,0.6,1.1C175.1,120.5,175.4,120,175.5,119.2z M163.5,121.7c-1.1-0.3-2.2-0.9-2.5-1.2c-0.3-0.4-0.6-3.6-0.9-8.7
	c-0.2-4.5-0.5-8.5-0.7-8.9s-1.3-1.5-2.4-2.3c-3.4-2.5-3.7-3.8-1.9-8.2c0.7-1.6,1.1-3.4,1.1-4.8c0-1.9-0.3-2.6-1.9-5.1
	c-3.2-4.8-7-16.5-6.6-20c0.3-2.5,1.3-3.3,4.7-3.7c4.5-0.5,5.9-0.9,7.9-2.5c1.7-1.4,2.2-1.6,4.3-1.6c2.7,0,6.9,1.7,9.2,3.6
	c1.2,1,1.4,1.5,1.6,4.1c0.3,2.6,0.5,3.3,2,5.3c1,1.3,2.4,3.3,3.2,4.5s2.3,3.3,3.4,4.7c2.2,2.8,2.4,4.1,1.3,6.5
	c-0.8,1.6-2.3,3.3-2.9,3.3c-0.2,0-0.9-0.4-1.4-0.9c-1.1-1.1-1.3-0.7-0.4,1.4c0.7,1.7,0.5,2.3-0.9,3.9c-1.3,1.4-2.1,1.5-3.3,0.3
	l-0.9-0.8l0.1,2.1c0.1,1.9,0,2.2-1.3,3.2c-1.7,1.3-2.7,1.4-3.9,0.4c-1.5-1.4-1.7-0.1-0.5,4.6c1,4,1.2,5.4,1.2,11.9
	c0,6.9,0,7.5-0.8,8.3C169,122.2,165.9,122.5,163.5,121.7z M167.2,116.5c0.6-0.9,0.7-1.9,0.5-6.6c-0.1-3-0.7-7.7-1.1-10.4
	c-1.5-8.1-1.8-7.2,4.9-14.7c3.3-3.7,5.9-7,6.1-7.7c0.4-1.8-0.8-4.6-3.7-8.4c-2.5-3.3-2.6-3.6-2.5-5.6c0.1-2.5-0.2-2.9-3.8-4.2
	c-3-1.1-3.4-1.1-5,0.5c-2.1,2.1-2.9,2.4-6.5,3s-4.3,1.1-3.9,3c1.1,4.9,3.1,10.1,4.9,13.1c3.6,5.9,4.1,8.8,2.7,14.2l-0.7,2.7l1.5,2.3
	c2.1,3.3,2.4,4.3,3,11.5c0.5,6.4,1,8.3,2.4,8.3C166.2,117.6,166.8,117.2,167.2,116.5z M160,75.6c-2.5-1.4-1-6.7,1.8-6.7
	c2,0,3.5,1.5,3.5,3.4C165.2,75.3,162.5,77,160,75.6z M173.5,94.1c0.9-0.8,1-1.4,0.4-2.3c-0.3-0.5-0.6-0.5-1.5,0.4
	C170.4,94,171.5,95.9,173.5,94.1z M180.2,80.6c1.8-2,2.3-2.8,1.9-3.2c-0.6-0.6-1-0.3-8.6,8c-4.7,5.1-6.2,7-5.9,7.5
	c0.2,0.6,1.3-0.3,5.2-4.4C175.6,85.7,178.9,82.1,180.2,80.6z M178.9,88.9c0.1-0.5-0.3-1.2-0.7-1.7c-0.8-0.7-0.9-0.7-1.1-0.1
	c-0.1,0.4-0.1,1.2,0,1.8C177.4,90.3,178.8,90.3,178.9,88.9z M183.8,82.2c0.6-0.9,0.8-1.5,0.5-1.8c-0.6-0.6-3.4,1.9-2.9,2.6
	C181.9,83.9,182.8,83.6,183.8,82.2z M179.9,119.6c-0.6-1.5-0.5-3.6,0.1-4.9c0.3-0.6,1.7-1.6,3.1-2.4l2.5-1.3l0.8,1
	c0.6,0.7,0.8,1.7,0.8,3.2c0,1.9-0.2,2.4-1.2,3.3C183.5,120.9,180.6,121.4,179.9,119.6z M183.8,118.1c0.5-0.3,0.8-0.9,0.8-1.7
	c0-1.4-0.6-1.8-2-1.3c-0.8,0.3-1,0.7-1,1.9C181.6,118.6,182.2,118.9,183.8,118.1z M189.3,114.7c-2.4-2.7-0.6-8.3,2.7-8.3
	c1.6,0,2.5,1.4,2.5,4c0,2.7-0.5,3.6-2.4,4.4C190.2,115.7,190.1,115.7,189.3,114.7z M192.4,112c0.3-0.5,0.3-1.5,0.2-2.2
	c-0.2-1-0.5-1.3-1.2-1.2c-1.3,0.2-1.9,2.3-0.9,3.4C191.5,113.1,191.8,113.1,192.4,112z M173.1,114.1c-0.3-0.3-0.5-1.4-0.5-2.4
	c0-1.6,0.3-2.2,1.8-3.8c2.6-2.8,3.5-2.6,3.7,0.9c0.1,1.4-0.1,3.1-0.4,3.7C177,114.3,174.2,115.3,173.1,114.1z M176.2,111.3
	c0.4-1.7-0.5-2.4-1.5-1.1c-0.9,1.1-0.7,2.2,0.4,2.2C175.6,112.5,176,112,176.2,111.3z M179.9,110.3c-0.3-0.5-0.4-2.2-0.3-3.8
	c0.1-2.7,0.2-2.9,1.6-3.9c0.8-0.5,2-1,2.7-1c1,0,1.3,0.2,1.7,1.6c1,3.7,0.3,5.9-2.1,7.2C181.6,111.4,180.5,111.3,179.9,110.3z
	 M183.1,107.5c0.4-1.1,0.3-3.1-0.2-3.4s-2.1,0.9-2.1,1.6c0,0.2,0.2,0.8,0.4,1.4C181.7,108.3,182.7,108.5,183.1,107.5z M187.7,105.1
	c-0.3-0.5-0.6-2.1-0.7-3.6l-0.3-2.8l1.8-1.9c1.5-1.6,1.9-1.8,2.5-1.4c1.9,1.2,2.9,5.7,1.7,7.9c-0.7,1.2-2.8,2.7-3.8,2.7
	C188.5,106,187.9,105.6,187.7,105.1z M191,102c0.7-0.7,0.7-3.6-0.1-4.2c-1.3-1.1-2.9,2.1-2,3.8C189.5,102.7,190.3,102.8,191,102z
	 M173.2,104.6c-1-1.4-0.9-5.2,0.1-6c2.8-2.4,4-1.8,4.3,2.4c0.2,2.4,0.1,2.9-0.7,3.7C175.7,105.8,174.1,105.8,173.2,104.6z
	 M175.9,101.5c0.1-1.4,0-1.6-0.6-1.5s-0.8,0.6-0.9,1.8c-0.1,1.4,0,1.6,0.6,1.5C175.6,103.2,175.8,102.7,175.9,101.5z M179.1,99.9
	c-0.3-0.3-0.5-1.6-0.5-3c0-2.1,0.2-2.6,1.2-3.6c1.9-1.8,2.9-1.5,3.7,0.9c0.4,1.1,0.7,2.4,0.7,2.9C184.2,99.1,180.4,101.2,179.1,99.9
	z M182.4,97c0.2-2-0.6-2.7-1.7-1.4c-0.5,0.6-0.8,1.5-0.8,2.1c0,0.9,0.2,1,1.2,0.9C182.1,98.5,182.3,98.2,182.4,97z M142.8,95.1
	c-1.3-0.3-4.7-1-7.5-1.6c-6.1-1.2-7.1-1.5-7.1-2.3c0-0.9,1.2-1.7,5.7-3.7c2.3-1,4.6-2.3,5.1-2.7c0.9-0.8,0.9-0.9,0.1-1.4
	c-0.5-0.3-1.9-0.6-3.5-0.6c-3.9,0-4.1-0.1-4.1-3c0-3.6,1-6.2,3.7-9.1c2.6-2.8,6.9-5.3,8.7-5.1c1,0.1,1.3,0.6,2.9,4.7
	c1.9,4.9,3.7,8.8,5.8,12.5c0.9,1.5,1.3,3,1.3,4.1c0,2.3-2.1,6.7-3.7,7.7C148.7,95.6,145.8,95.8,142.8,95.1z M147.5,91.1
	c1.3-0.9,2.3-2.9,2.3-4.8c0-1.3-0.4-2.2-1.9-4.1c-1.2-1.6-2.6-4.1-3.7-6.9c-1-2.4-1.9-4.6-2.1-4.8c-1.2-1.3-5.3,2.1-6.1,5.1
	c-0.6,2.2-0.1,2.6,3.6,3.1c2.9,0.3,4.8,1.1,5.3,2.2c0.1,0.4,0.3,1.8,0.3,3.1c0,2.5-0.4,3.1-3.3,5.2c-1.6,1.2-1.1,1.9,1.6,2.3
	C146.2,91.8,146.4,91.8,147.5,91.1z M184.9,93.9c-0.8-1.6-0.8-4.4,0-6s3.1-3.5,3.9-3.2c0.8,0.3,2.8,4.9,2.8,6.3
	c0,1.2-0.6,1.9-2.3,3.3C187.4,95.7,185.7,95.5,184.9,93.9z M188.6,92.3c0.9-0.7,0.9-1,0.6-2.2c-0.6-1.9-1.8-2.7-2.6-1.5
	c-0.8,1-0.8,3.3-0.1,4C187.1,93.2,187.4,93.2,188.6,92.3z M121,91.1c-4.5-2.4-5.2-3.4-4.9-7.7c0.2-3.4,1.5-5.5,5.1-8.3
	c2.9-2.2,7.6-4.6,8.4-4.3c0.8,0.3,0.8,0.6-0.1,6.2l-0.7,4.6l-2.6,2.5c-2.5,2.4-2.6,2.5-2.3,4.1c0.6,3.4,0.6,3.4-0.6,3.5
	C122.8,91.7,121.7,91.5,121,91.1z M122.9,82.8c2-1.8,2.3-2.3,2.5-4.1c0.2-1.8,0.1-2-0.6-2c-2.2,0-6.4,6.5-5,7.9
	C120.3,85,120.5,84.9,122.9,82.8z"/>
</svg>
